<?xml version="1.0" encoding="utf-8"?>
<!-- Generator: Adobe Illustrator 16.0.0, SVG Export Plug-In . SVG Version: 6.00 Build 0)  -->
<!DOCTYPE svg PUBLIC "-//W3C//DTD SVG 1.1//EN" "http://www.w3.org/Graphics/SVG/1.1/DTD/svg11.dtd">
<svg version="1.1" xmlns="http://www.w3.org/2000/svg" xmlns:xlink="http://www.w3.org/1999/xlink" x="0px" y="0px" width="601px"
	 height="634.5px" viewBox="0 -34.5 601 634.5" enable-background="new 0 -34.5 601 634.5" xml:space="preserve">
<g id="Layer_1">
	<polygon fill="#383838" points="86.872,27.586 86.872,33.76 43.649,33.76 25.124,33.76 25.124,52.285 25.124,58.46 43.649,58.46 
		43.649,52.285 86.872,52.285 86.872,76.984 105.398,76.984 105.398,27.586 	"/>
	<polygon fill="#383838" points="43.649,114.033 43.649,107.858 86.872,107.858 105.398,107.858 105.398,89.333 105.398,83.16 
		86.872,83.16 86.872,89.333 43.649,89.333 43.649,64.634 25.124,64.634 25.124,114.033 	"/>
	<rect x="25.093" y="33.729" opacity="0.6" fill="#00E215" enable-background="new    " width="18.524" height="24.699"/>
	<rect x="86.84" y="2.887" opacity="0.6" fill="#00E215" enable-background="new    " width="18.525" height="24.698"/>
	<rect x="25.093" y="114.033" opacity="0.6" fill="#00E215" enable-background="new    " width="18.524" height="24.7"/>
	<rect x="105.398" y="27.524" opacity="0.6" fill="#00E215" enable-background="new    " width="24.698" height="18.523"/>
	<rect x="0.424" y="95.447" opacity="0.6" fill="#00E215" enable-background="new    " width="24.699" height="18.524"/>
	<g>
		<polygon fill="#383838" points="243.629,24.41 243.629,30.585 200.404,30.585 181.88,30.585 181.88,49.109 181.88,55.284 
			200.404,55.284 200.404,49.109 243.629,49.109 243.629,73.808 262.153,73.808 262.153,24.41 		"/>
		<polygon fill="#383838" points="200.404,110.857 200.404,104.682 243.629,104.682 262.153,104.682 262.153,86.157 262.153,79.984 
			243.629,79.984 243.629,86.157 200.404,86.157 200.404,61.458 181.88,61.458 181.88,110.857 		"/>
	</g>
	<g>
		<polygon fill="#383838" points="61.748,179.417 61.748,185.591 18.525,185.591 0,185.591 0,204.115 0,210.292 18.525,210.292 
			18.525,204.115 61.748,204.115 61.748,228.816 80.274,228.816 80.274,179.417 		"/>
		<polygon fill="#383838" points="18.525,265.865 18.525,259.689 61.748,259.689 80.274,259.689 80.274,241.165 80.274,234.99 
			61.748,234.99 61.748,241.165 18.525,241.165 18.525,216.466 0,216.466 0,265.865 		"/>
	</g>
	<g>
		<polygon fill="#383838" points="109.879,356.967 109.879,363.14 66.656,363.14 48.131,363.14 48.131,381.664 48.131,387.842 
			66.656,387.842 66.656,381.664 109.879,381.664 109.879,406.365 128.405,406.365 128.405,356.967 		"/>
		<polygon fill="#383838" points="66.656,443.414 66.656,437.238 109.879,437.238 128.405,437.238 128.405,418.715 128.405,412.539 
			109.879,412.539 109.879,418.715 66.656,418.715 66.656,394.015 48.131,394.015 48.131,443.414 		"/>
	</g>
	<g>
		<polygon fill="#383838" points="256.286,342.506 254.318,348.359 213.351,334.574 195.794,328.666 189.886,346.222 
			187.917,352.076 205.474,357.984 207.443,352.131 248.409,365.916 240.533,389.326 258.092,395.232 273.845,348.412 		"/>
		<polygon fill="#383838" points="187.753,410.656 189.722,404.802 230.689,418.588 248.245,424.494 254.154,406.935 
			256.122,401.086 238.565,395.177 236.597,401.031 195.629,387.246 203.505,363.836 185.948,357.929 170.195,404.75 		"/>
	</g>
	<g>
		<polygon fill="#383838" points="241.632,192.586 241.632,196.879 198.407,196.879 179.884,196.879 179.884,209.76 
			179.884,214.053 198.407,214.053 198.407,209.76 241.632,209.76 241.632,226.936 260.156,226.936 260.156,192.586 		"/>
		<polygon fill="#383838" points="198.407,252.696 198.407,248.403 241.632,248.403 260.156,248.403 260.156,235.522 
			260.156,231.229 241.632,231.229 241.632,235.522 198.407,235.522 198.407,218.348 179.884,218.348 179.884,252.696 		"/>
	</g>
	<g>
		<rect x="497.911" y="63.469" width="1.614" height="3.109"/>
		<rect x="505.983" y="63.487" width="1.614" height="3.109"/>
		<path d="M481.96,56.12v17.027h107.984V56.12H481.96L481.96,56.12z M493.07,63.393l-3.228-0.008l-0.007,3.24l3.229,0.006
			l-0.004,1.621l-4.842-0.014l0.016-6.479l4.841,0.012L493.07,63.393z M501.129,68.272l-4.843-0.014l0.016-6.479l4.842,0.012
			L501.129,68.272z M509.201,66.671l-1.612-0.004l-0.003,1.619l-3.229-0.008l0.015-6.479l3.229,0.008l-0.004,1.619l1.613,0.004
			L509.201,66.671z M514.041,68.3l-1.614-0.004l0.015-6.479l1.613,0.004L514.041,68.3z M522.121,63.46l-3.228-0.006l-0.007,3.238
			l3.228,0.006l-0.003,1.621l-4.842-0.012l0.014-6.479l4.844,0.012L522.121,63.46z M530.192,63.479l-3.228-0.008l-0.004,1.619
			l1.614,0.004l-0.004,1.617l1.614,0.006l-0.003,1.621l-4.843-0.014l0.016-6.479l4.842,0.01L530.192,63.479z M539.864,68.358
			l-1.612-0.002l0.015-6.479l1.614,0.004L539.864,68.358z M547.935,68.38l-1.615-0.004l0.012-4.859l-1.614-0.004l-0.012,4.859
			l-1.613-0.006l0.015-6.479l4.842,0.012L547.935,68.38z M556.005,68.395l-4.843-0.01l0.016-6.48l1.614,0.006l-0.012,4.859
			l1.614,0.002l0.011-4.857l1.614,0.004L556.005,68.395z M564.086,63.555l-1.614-0.004l-0.011,4.859l-1.615-0.006l0.012-4.857
			l-1.614-0.002l0.004-1.621l4.843,0.012L564.086,63.555z M568.917,68.425l-1.614-0.002l0.015-6.48l1.614,0.004L568.917,68.425z
			 M576.987,68.444l-4.841-0.01l0.014-6.479l1.615,0.004l-0.012,4.857l3.229,0.008L576.987,68.444z M585.068,63.604l-3.228-0.008
			l-0.003,1.619l1.613,0.004l-0.004,1.619l1.614,0.004l-0.004,1.619l-4.842-0.012l0.015-6.479l4.842,0.012L585.068,63.604z"/>
	</g>
	<g>
		<polygon fill="#383838" points="559.49,185.592 559.49,191.765 516.267,191.765 497.743,191.765 497.743,210.291 497.743,216.467 
			516.267,216.467 516.267,210.291 559.49,210.291 559.49,221.043 578.016,221.043 578.016,185.592 		"/>
		<polygon fill="#383838" points="516.267,272.041 516.267,265.865 559.49,265.865 578.016,265.865 578.016,247.34 578.016,241.168 
			559.49,241.168 559.49,247.34 516.267,247.34 516.267,236.59 497.743,236.59 497.743,272.041 		"/>
		<rect x="497.912" y="227.541" width="1.613" height="3.109"/>
		<rect x="505.984" y="227.558" width="1.614" height="3.109"/>
		<path d="M481.96,220.189v17.027h107.984v-17.027H481.96L481.96,220.189z M493.07,227.463l-3.229-0.006l-0.006,3.238l3.228,0.008
			l-0.004,1.619l-4.842-0.012l0.016-6.479l4.842,0.01L493.07,227.463z M501.13,232.342l-4.842-0.012l0.014-6.479l4.842,0.01
			L501.13,232.342z M509.202,230.74l-1.613-0.002l-0.003,1.617l-3.229-0.006l0.016-6.479l3.229,0.006l-0.004,1.621l1.614,0.004
			L509.202,230.74z M514.041,232.371l-1.613-0.004l0.015-6.479l1.613,0.004L514.041,232.371z M522.122,227.529l-3.229-0.006
			l-0.007,3.238l3.228,0.008l-0.003,1.619l-4.842-0.01l0.015-6.48l4.843,0.012L522.122,227.529z M530.192,227.549l-3.228-0.008
			l-0.003,1.619l1.614,0.004l-0.005,1.619l1.615,0.006l-0.004,1.619l-4.843-0.012l0.016-6.479l4.842,0.01L530.192,227.549z
			 M539.865,232.429l-1.612-0.004l0.014-6.479l1.614,0.004L539.865,232.429z M547.936,232.449l-1.614-0.004l0.012-4.857
			l-1.614-0.004l-0.011,4.857l-1.613-0.004l0.015-6.479l4.842,0.01L547.936,232.449z M556.005,232.467l-4.844-0.01l0.016-6.48
			l1.615,0.006l-0.012,4.857l1.613,0.004l0.011-4.859l1.614,0.004L556.005,232.467z M564.086,227.627l-1.614-0.004l-0.01,4.859
			l-1.615-0.006l0.012-4.855l-1.614-0.006l0.004-1.619l4.844,0.012L564.086,227.627z M568.917,232.498l-1.613-0.004l0.015-6.479
			l1.614,0.002L568.917,232.498z M576.987,232.515l-4.842-0.012l0.014-6.479l1.615,0.004l-0.012,4.859l3.229,0.006L576.987,232.515z
			 M585.068,227.674l-3.229-0.006l-0.003,1.619l1.612,0.004l-0.003,1.619l1.614,0.004l-0.004,1.617l-4.842-0.012l0.015-6.479
			l4.841,0.012L585.068,227.674z"/>
	</g>
	<g>
		<polygon fill="#383838" points="561.327,324.831 561.327,331.005 518.105,331.005 499.578,331.005 499.578,349.53 
			499.578,355.706 518.105,355.706 518.105,349.53 561.327,349.53 561.327,374.229 579.852,374.229 579.852,324.831 		"/>
		<polygon fill="#383838" points="518.105,411.28 518.105,405.102 561.327,405.102 579.852,405.102 579.852,386.579 
			579.852,380.405 561.327,380.405 561.327,386.579 518.105,386.579 518.105,361.88 499.578,361.88 499.578,411.28 		"/>
		<rect x="497.911" y="420.21" width="1.614" height="3.109"/>
		<rect x="505.983" y="420.227" width="1.614" height="3.111"/>
		<path d="M481.959,412.86v17.027h107.986V412.86H481.959L481.959,412.86z M493.07,420.134l-3.229-0.008l-0.007,3.24l3.229,0.006
			l-0.004,1.621l-4.843-0.014l0.016-6.479l4.842,0.012L493.07,420.134z M501.129,425.012l-4.843-0.012l0.016-6.48l4.842,0.012
			L501.129,425.012z M509.201,423.411l-1.613-0.002l-0.004,1.617l-3.229-0.008l0.015-6.479l3.229,0.008l-0.004,1.619l1.613,0.004
			L509.201,423.411z M514.039,425.04l-1.612-0.002l0.015-6.48l1.613,0.004L514.039,425.04z M522.121,420.2l-3.229-0.006
			l-0.007,3.238l3.228,0.008l-0.003,1.619l-4.842-0.012l0.014-6.479l4.843,0.012L522.121,420.2z M530.192,420.219l-3.229-0.008
			l-0.004,1.619l1.614,0.004l-0.004,1.619l1.614,0.004l-0.004,1.621l-4.844-0.012l0.016-6.48l4.843,0.01L530.192,420.219z
			 M539.865,425.1l-1.613-0.004l0.016-6.479l1.613,0.004L539.865,425.1z M547.936,425.12l-1.615-0.004l0.011-4.859l-1.613-0.004
			l-0.012,4.859l-1.611-0.006l0.014-6.479l4.843,0.012L547.936,425.12z M556.004,425.135l-4.844-0.01l0.016-6.48l1.615,0.006
			l-0.012,4.859l1.613,0.004l0.012-4.859l1.613,0.004L556.004,425.135z M564.084,420.296l-1.612-0.004l-0.012,4.859l-1.613-0.006
			l0.011-4.855l-1.614-0.004l0.005-1.621l4.842,0.012L564.084,420.296z M568.916,425.167l-1.612-0.004l0.014-6.479l1.614,0.004
			L568.916,425.167z M576.987,425.184l-4.841-0.01l0.014-6.479l1.614,0.004l-0.011,4.857l3.228,0.008L576.987,425.184z
			 M585.068,420.344l-3.229-0.008l-0.004,1.619l1.614,0.004l-0.004,1.621l1.614,0.002l-0.003,1.619l-4.844-0.012l0.016-6.479
			l4.842,0.012L585.068,420.344z"/>
	</g>
	<text transform="matrix(1 0 0 1 497.9124 -26.0115)" font-family="'Inconsolata-Regular'" font-size="10.4603">NOT together !!!</text>
	<text transform="matrix(1 0 0 1 329.969 -26.0115)" font-family="'Inconsolata-Regular'" font-size="10.4603">Just your style.</text>
	<text transform="matrix(1 0 0 1 183.8796 -26.0115)" enable-background="new    "><tspan x="0" y="0" font-family="'Inconsolata-Regular'" font-size="10.4603">Firts:</tspan><tspan x="0" y="12.553" font-family="'Inconsolata-Regular'" font-size="10.4603">don’t stretch!</tspan></text>
	<text transform="matrix(1 0 0 1 25.093 -26.0125)" font-family="'Inconsolata-Regular'" font-size="10.4603">Margins, please.</text>
	<g>
		<g>
			<g enable-background="new    ">
				<g>
					<polygon fill="#757575" points="412.261,495.27 384.314,505.821 384.546,499.895 412.494,489.344 					"/>
				</g>
				<g>
					<polygon fill="#757575" points="410.632,536.751 382.684,547.302 383.615,523.594 411.563,513.044 					"/>
				</g>
				<g>
					<polygon fill="#696969" points="425.975,540.197 398.027,550.748 382.684,547.302 410.632,536.751 					"/>
				</g>
				<g>
					<polygon fill="#757575" points="410.166,548.6 382.219,559.151 382.451,553.226 410.399,542.676 					"/>
				</g>
				<g>
					<polygon fill="#696969" points="424.811,569.82 396.864,580.372 381.521,576.926 409.468,566.375 					"/>
				</g>
				<g>
					<polygon fill="#696969" points="411.563,513.044 383.615,523.594 347.809,515.552 375.757,505.001 					"/>
				</g>
				<g>
					<polygon fill="#757575" points="360.406,501.552 332.459,512.103 333.157,494.33 361.105,483.779 					"/>
				</g>
				<g>
					<polygon fill="#CECECE" points="427.837,492.791 425.975,540.197 410.632,536.751 411.563,513.044 375.757,505.001 
						375.524,510.934 360.174,507.487 360.406,501.552 361.105,483.779 376.455,487.227 412.261,495.27 412.494,489.344 					"/>
				</g>
				<g>
					<polygon fill="#757575" points="360.174,507.487 332.226,518.038 332.459,512.103 360.406,501.552 					"/>
				</g>
				<g>
					<polygon fill="#696969" points="375.524,510.934 347.576,521.485 332.226,518.038 360.174,507.487 					"/>
				</g>
				<g>
					<polygon fill="#696969" points="409.468,566.375 381.521,576.926 345.714,568.883 373.662,558.332 					"/>
				</g>
				<g>
					<polygon fill="#696969" points="373.429,564.256 345.482,574.806 330.131,571.359 358.079,560.808 					"/>
				</g>
				<g>
					<polygon fill="#757575" points="358.079,560.808 330.131,571.359 331.993,523.954 359.942,513.403 					"/>
				</g>
				<g>
					<polygon fill="#CECECE" points="375.291,516.85 374.361,540.557 410.166,548.6 410.399,542.676 425.742,546.122 
						425.509,552.047 424.811,569.82 409.468,566.375 373.662,558.332 373.429,564.256 358.079,560.808 359.942,513.403 					"/>
				</g>
			</g>
		</g>
	</g>
	<text transform="matrix(1 0 0 1 497.7434 538.2517)"><tspan x="0" y="0" fill="#383838" font-family="'Inconsolata-Regular'" font-size="8.9072">Codice Inutile </tspan><tspan x="66.804" y="0" fill="#383838" font-family="'FontAwesome'" font-size="4"></tspan></text>
	<g>
		<polygon fill="#383838" points="86.872,482.677 86.872,488.851 43.649,488.851 25.124,488.851 25.124,507.375 25.124,513.552 
			43.649,513.552 43.649,507.375 86.872,507.375 86.872,532.076 105.398,532.076 105.398,482.677 		"/>
		<polygon fill="#6D6D6D" points="43.649,569.125 43.649,562.949 86.872,562.949 105.398,562.949 105.398,544.426 105.398,538.25 
			86.872,538.25 86.872,544.426 43.649,544.426 43.649,519.726 25.124,519.726 25.124,569.125 		"/>
	</g>
	<polygon fill="#ED1A4D" points="243.628,482.677 243.628,488.851 200.404,488.851 181.88,488.851 181.88,507.375 181.88,513.552 
		200.404,513.552 200.404,507.375 243.628,507.375 243.628,532.076 262.153,532.076 262.153,482.677 	"/>
	<polygon points="200.404,569.125 200.404,562.949 243.628,562.949 262.153,562.949 262.153,544.426 262.153,538.25 243.628,538.25 
		243.628,544.426 200.404,544.426 200.404,519.726 181.88,519.726 181.88,569.125 	"/>
</g>
<g id="riquadri">
	<g>
		<defs>
			<rect id="SVGID_1_" x="313.937" y="0" width="130.096" height="135.846"/>
		</defs>
		<clipPath id="SVGID_2_">
			<use xlink:href="#SVGID_1_"  overflow="visible"/>
		</clipPath>
		<g transform="matrix(1 0 0 1 7.629395e-006 -3.814697e-006)" clip-path="url(#SVGID_2_)">
			
				<image overflow="visible" width="1366" height="728" xlink:href="52360602.jpg"  transform="matrix(0.2445 0 0 0.2445 126.1028 -33.9626)">
			</image>
		</g>
	</g>
	<rect x="0" y="0" fill="none" stroke="#CCCCCC" stroke-width="0.75" stroke-miterlimit="10" width="130.096" height="135.846"/>
	
		<rect x="156.969" y="0" fill="none" stroke="#CCCCCC" stroke-width="0.75" stroke-miterlimit="10" width="130.096" height="135.846"/>
	
		<rect x="313.937" y="0" fill="none" stroke="#CCCCCC" stroke-width="0.75" stroke-miterlimit="10" width="130.096" height="135.846"/>
	
		<rect x="470.905" y="0" fill="none" stroke="#CCCCCC" stroke-width="0.75" stroke-miterlimit="10" width="130.096" height="135.846"/>
	
		<image overflow="visible" width="540" height="540" xlink:href="52360601.jpg"  transform="matrix(0.2516 0 0 0.2516 311.0618 152.2659)">
	</image>
	
		<rect x="0" y="154.718" fill="none" stroke="#CCCCCC" stroke-width="0.75" stroke-miterlimit="10" width="130.096" height="135.846"/>
	
		<rect x="156.969" y="154.718" fill="none" stroke="#CCCCCC" stroke-width="0.75" stroke-miterlimit="10" width="130.096" height="135.846"/>
	
		<rect x="470.905" y="154.718" fill="none" stroke="#CCCCCC" stroke-width="0.75" stroke-miterlimit="10" width="130.096" height="135.846"/>
	
		<rect x="0" y="309.436" fill="none" stroke="#CCCCCC" stroke-width="0.75" stroke-miterlimit="10" width="130.096" height="135.846"/>
	
		<rect x="156.969" y="309.436" fill="none" stroke="#CCCCCC" stroke-width="0.75" stroke-miterlimit="10" width="130.096" height="135.846"/>
	
		<rect x="313.937" y="309.436" fill="none" stroke="#CCCCCC" stroke-width="0.75" stroke-miterlimit="10" width="130.096" height="135.846"/>
	
		<rect x="470.905" y="309.436" fill="none" stroke="#CCCCCC" stroke-width="0.75" stroke-miterlimit="10" width="130.096" height="135.846"/>
	<g>
		
			<rect x="0" y="464.154" fill="none" stroke="#CCCCCC" stroke-width="0.75" stroke-miterlimit="10" width="130.096" height="135.846"/>
		
			<rect x="156.969" y="464.154" fill="none" stroke="#CCCCCC" stroke-width="0.75" stroke-miterlimit="10" width="130.096" height="135.846"/>
		
			<rect x="313.937" y="464.154" fill="none" stroke="#CCCCCC" stroke-width="0.75" stroke-miterlimit="10" width="130.096" height="135.846"/>
		
			<rect x="470.905" y="464.154" fill="none" stroke="#CCCCCC" stroke-width="0.75" stroke-miterlimit="10" width="130.096" height="135.846"/>
	</g>
	
		<image overflow="visible" width="500" height="500" xlink:href="5236060B.jpg"  transform="matrix(0.2361 0 0 0.2361 319.969 315.2146)">
	</image>
</g>
<g id="segnali_1_">
	<path fill="#FF0000" d="M15.424,226.165c-8.271,0-15,6.729-15,15s6.729,15,15,15c8.271,0,15-6.729,15-15
		S23.695,226.165,15.424,226.165z M15.424,231.74c1.614,0,3.134,0.409,4.464,1.127L7.544,246.321
		c-0.973-1.483-1.545-3.253-1.545-5.156C5.999,235.969,10.227,231.74,15.424,231.74z M15.424,250.59
		c-1.267,0-2.474-0.255-3.578-0.71l11.95-13.024c0.669,1.293,1.054,2.756,1.054,4.31C24.849,246.362,20.62,250.59,15.424,250.59z"/>
	<path fill="#FF0000" d="M260.914,183.707c-8.271,0-15,6.729-15,15c0,8.271,6.729,15,15,15c8.271,0,15-6.729,15-15
		C275.914,190.436,269.185,183.707,260.914,183.707z M260.914,189.282c1.614,0,3.135,0.409,4.464,1.126l-12.344,13.454
		c-0.974-1.483-1.545-3.252-1.545-5.155C251.489,193.51,255.718,189.282,260.914,189.282z M260.914,208.131
		c-1.266,0-2.474-0.255-3.578-0.709l11.95-13.025c0.669,1.293,1.053,2.756,1.053,4.311
		C270.34,203.904,266.111,208.131,260.914,208.131z"/>
	<path fill="#FF0000" d="M179.883,396.28c-8.271,0-15,6.729-15,15s6.729,15,15,15c8.271,0,15-6.729,15-15
		S188.155,396.28,179.883,396.28z M179.883,401.855c1.614,0,3.135,0.409,4.464,1.127l-12.344,13.454
		c-0.974-1.483-1.545-3.254-1.545-5.156C170.458,406.084,174.687,401.855,179.883,401.855z M179.883,420.705
		c-1.266,0-2.474-0.255-3.578-0.71l11.95-13.025c0.669,1.294,1.053,2.757,1.053,4.311
		C189.309,416.477,185.08,420.705,179.883,420.705z"/>
	<path fill="#FF0000" d="M111.102,350.17c-8.271,0-15,6.729-15,15.001c0,8.271,6.729,14.999,15,14.999c8.271,0,15-6.729,15-14.999
		C126.103,356.899,119.374,350.17,111.102,350.17z M111.102,355.746c1.614,0,3.134,0.409,4.464,1.127l-12.344,13.453
		c-0.973-1.482-1.545-3.253-1.545-5.155C101.677,359.974,105.906,355.746,111.102,355.746z M111.102,374.594
		c-1.267,0-2.474-0.255-3.578-0.709l11.95-13.025c0.669,1.294,1.054,2.757,1.054,4.311
		C120.528,370.367,116.299,374.594,111.102,374.594z"/>
	<path fill="#FF0000" d="M505.983,391.365c-8.271,0-15,6.729-15,15.001c0,8.271,6.729,14.999,15,14.999c8.271,0,15-6.729,15-14.999
		C520.983,398.094,514.254,391.365,505.983,391.365z M505.983,396.941c1.614,0,3.135,0.409,4.464,1.127l-12.344,13.453
		c-0.974-1.482-1.545-3.253-1.545-5.155C496.558,401.17,500.786,396.941,505.983,396.941z M505.983,415.79
		c-1.267,0-2.475-0.255-3.578-0.709l11.95-13.025c0.669,1.294,1.054,2.757,1.054,4.311
		C515.408,411.562,511.18,415.79,505.983,415.79z"/>
	<path fill="#FF0000" d="M499.578,203.347c-8.271,0-15,6.729-15,15c0,8.271,6.729,15,15,15c8.271,0,15-6.729,15-15
		C514.578,210.077,507.85,203.347,499.578,203.347z M499.578,208.923c1.614,0,3.135,0.409,4.464,1.127l-12.344,13.454
		c-0.974-1.483-1.545-3.253-1.545-5.156C490.154,213.152,494.382,208.923,499.578,208.923z M499.578,227.772
		c-1.267,0-2.475-0.255-3.578-0.709l11.95-13.025c0.669,1.294,1.054,2.757,1.054,4.311
		C509.004,223.545,504.776,227.772,499.578,227.772z"/>
	<path fill="#00E215" d="M427.198,9.41c-8.271,0-15,6.729-15,15s6.729,15,15,15s15-6.729,15-15S435.47,9.41,427.198,9.41z
		 M426.356,33.172l-9.008-8.367l2.709-2.917l5.858,5.441l7.953-10l3.117,2.479L426.356,33.172z"/>
	<path fill="#00E215" d="M427.198,163.617c-8.271,0-15,6.729-15,15s6.729,15,15,15s15-6.729,15-15S435.47,163.617,427.198,163.617z
		 M426.356,187.379l-9.008-8.367l2.709-2.917l5.858,5.441l7.953-10l3.117,2.479L426.356,187.379z"/>
	<path fill="#00E215" d="M427.198,319.617c-8.271,0-15,6.729-15,15s6.729,15,15,15s15-6.729,15-15S435.47,319.617,427.198,319.617z
		 M426.356,343.379l-9.008-8.367l2.709-2.917l5.858,5.44l7.953-9.999l3.117,2.479L426.356,343.379z"/>
	<path fill="#00E215" d="M574.945,468.823c-8.271,0-15,6.729-15,15s6.729,15,15,15s15-6.729,15-15S583.216,468.823,574.945,468.823z
		 M574.102,492.585l-9.008-8.367l2.709-2.917l5.858,5.44l7.953-9.999l3.117,2.479L574.102,492.585z"/>
	<path fill="#00E215" d="M116.103,504.726c-8.271,0-15,6.729-15,15s6.729,15,15,15s15-6.729,15-15S124.374,504.726,116.103,504.726z
		 M115.26,528.488l-9.008-8.367l2.709-2.917l5.858,5.44l7.953-9.999l3.117,2.479L115.26,528.488z"/>
	<path fill="#00E215" d="M271.122,468.823c-8.271,0-15,6.729-15,15s6.729,15,15,15s15-6.729,15-15S279.394,468.823,271.122,468.823z
		 M270.28,492.585l-9.008-8.367l2.709-2.917l5.858,5.44l7.953-9.999l3.117,2.479L270.28,492.585z"/>
	<path fill="#00E215" d="M569.214,9.41c-8.271,0-15,6.729-15,15s6.729,15,15,15s15-6.729,15-15S577.486,9.41,569.214,9.41z
		 M568.371,33.172l-9.008-8.367l2.709-2.917l5.858,5.441l7.953-10l3.117,2.479L568.371,33.172z"/>
	<path fill="#00E215" d="M271.122,9.41c-8.271,0-15,6.729-15,15s6.729,15,15,15s15-6.729,15-15S279.394,9.41,271.122,9.41z
		 M270.28,33.172l-9.008-8.367l2.709-2.917l5.858,5.441l7.953-10l3.117,2.479L270.28,33.172z"/>
</g>
</svg>
