<?xml version="1.0" encoding="utf-8"?>
<!-- Generator: Adobe Illustrator 16.0.0, SVG Export Plug-In . SVG Version: 6.00 Build 0)  -->
<!DOCTYPE svg PUBLIC "-//W3C//DTD SVG 1.1//EN" "http://www.w3.org/Graphics/SVG/1.1/DTD/svg11.dtd">
<svg version="1.1" id="Layer_1" xmlns="http://www.w3.org/2000/svg" xmlns:xlink="http://www.w3.org/1999/xlink" x="0px" y="0px"
	 width="2100px" height="2200px" viewBox="0 0 2100 2200" enable-background="new 0 0 2100 2200" xml:space="preserve">
<g id="Layer_1_1_">
	<g>
		<rect x="592.099" y="1028.479" transform="matrix(1 0.0022 -0.0022 1 2.3171 -1.3282)" width="19.432" height="37.44"/>
		<rect x="689.273" y="1028.691" transform="matrix(-1 -0.0023 0.0023 -1 1395.553 2096.4346)" width="19.43" height="37.439"/>
		<path d="M400.06,939.993v205h1300.001v-205H400.06L400.06,939.993z M533.811,1027.565l-38.858-0.087l-0.091,38.995l38.862,0.088
			l-0.046,19.494l-58.29-0.133l0.179-77.99l58.29,0.133L533.811,1027.565z M630.83,1086.281l-58.289-0.134l0.179-77.992
			l58.293,0.135L630.83,1086.281z M728.023,1067.009l-19.426-0.045l-0.046,19.498l-38.862-0.091l0.179-77.993l38.862,0.089
			l-0.046,19.501l19.427,0.042L728.023,1067.009z M786.27,1086.636l-19.427-0.042l0.179-77.994l19.43,0.045L786.27,1086.636z
			 M883.558,1028.367l-38.858-0.091l-0.092,38.998l38.865,0.088l-0.048,19.498l-58.29-0.133l0.176-77.995l58.297,0.134
			L883.558,1028.367z M980.71,1028.588l-38.862-0.086l-0.043,19.494l19.428,0.045l-0.045,19.495l19.43,0.048l-0.045,19.498
			l-58.293-0.133l0.184-77.995l58.288,0.134L980.71,1028.588z M1097.156,1087.348l-19.428-0.048l0.18-77.993l19.429,0.049
			L1097.156,1087.348z M1194.309,1087.57l-19.43-0.046l0.133-58.493l-19.432-0.043l-0.133,58.495l-19.432-0.05l0.183-77.991
			l58.29,0.133L1194.309,1087.57z M1291.457,1087.793l-58.291-0.135l0.181-77.993l19.431,0.048l-0.133,58.496l19.427,0.045
			l0.133-58.495l19.433,0.043L1291.457,1087.793z M1388.742,1029.522l-19.431-0.047l-0.133,58.491l-19.428-0.046l0.134-58.493
			l-19.432-0.042l0.05-19.501l58.289,0.134L1388.742,1029.522z M1446.903,1088.15l-19.431-0.05l0.182-77.99l19.431,0.046
			L1446.903,1088.15z M1544.053,1088.375l-58.29-0.135l0.183-77.994l19.428,0.045l-0.134,58.497l38.861,0.089L1544.053,1088.375z
			 M1641.338,1030.1l-38.863-0.087l-0.042,19.496l19.431,0.046l-0.048,19.498l19.438,0.042l-0.045,19.495l-58.291-0.135l0.18-77.993
			l58.289,0.134L1641.338,1030.1z"/>
	</g>
</g>
<g id="Layer_2">
</g>
<g id="Layer_3" display="none">
	<g display="inline" enable-background="new    ">
		<path d="M693.646,1233.818c0-0.548-0.07-0.957-0.209-1.232c-0.933-1.506-2.144-2.703-3.633-3.594
			c-1.49-0.89-3.072-1.334-4.75-1.334c-1.583,0-3.072,0.407-4.47,1.223c-1.396,0.814-2.631,2.002-3.702,3.563
			c-1.072,1.561-1.91,3.457-2.515,5.69c-0.605,2.234-0.908,4.773-0.908,7.613c0,2.748,0.302,5.25,0.908,7.508
			c0.604,2.261,1.455,4.191,2.55,5.799c1.093,1.605,2.375,2.853,3.841,3.736s3.039,1.326,4.715,1.326
			c1.723,0,3.388-0.488,4.994-1.469c1.607-0.981,2.899-2.308,3.876-3.979l3.633,2.375c-0.699,1.164-1.537,2.189-2.516,3.072
			c-0.979,0.885-2.015,1.631-3.107,2.236c-1.096,0.604-2.189,1.059-3.283,1.36c-1.094,0.303-2.2,0.453-3.317,0.453
			c-2.515,0-4.739-0.43-6.67-1.291c-1.933-0.861-3.702-2.201-5.308-4.016c-1.606-1.816-2.854-4.121-3.737-6.916
			c-0.885-2.793-1.327-6.123-1.327-9.988c0-4.283,0.512-7.857,1.537-10.721c1.023-2.863,2.375-5.156,4.051-6.882
			c1.676-1.721,3.458-2.942,5.343-3.666c1.887-0.721,3.714-1.082,5.483-1.082c1.443,0,2.852,0.209,4.227,0.63
			c1.372,0.418,2.653,1.002,3.841,1.745c1.187,0.744,2.245,1.642,3.178,2.688c0.931,1.049,1.676,2.225,2.235,3.527l-4.681,2.305
			C693.739,1234.367,693.646,1234.138,693.646,1233.818z"/>
		<path d="M707.684,1235.551h5.17l-0.141,6.146c0.981-2.234,2.535-3.947,4.661-5.136c2.126-1.188,4.403-1.778,6.834-1.778
			c3.457,0,6.307,1.164,8.551,3.491l-2.305,4.818c-0.515-0.699-0.982-1.279-1.402-1.746c-0.421-0.465-0.876-0.86-1.368-1.188
			c-0.49-0.324-1.028-0.582-1.612-0.769c-0.585-0.186-1.298-0.278-2.14-0.278c-1.543,0-2.991,0.36-4.348,1.082
			c-1.354,0.723-2.537,1.676-3.541,2.862c-1.005,1.188-1.812,2.55-2.419,4.087c-0.606,1.537-0.911,3.143-0.911,4.819v15.576h-5.029
			V1235.551z"/>
		<path d="M753.783,1234.783c1.676,0,3.306,0.303,4.889,0.905c1.583,0.607,2.968,1.527,4.156,2.761
			c1.188,1.233,2.141,2.807,2.864,4.715c0.721,1.91,1.083,4.168,1.083,6.774c0,0.373-0.013,0.757-0.035,1.152
			c-0.024,0.396-0.06,0.779-0.104,1.152h-22.7c0.094,2.233,0.478,4.108,1.153,5.623c0.674,1.514,1.524,2.733,2.549,3.666
			c1.023,0.932,2.165,1.596,3.423,1.99c1.257,0.396,2.514,0.594,3.771,0.594c3.306,0,6.053-1.188,8.242-3.563l2.793,2.726
			c-2.701,3.26-6.426,4.889-11.175,4.889c-2.329,0-4.459-0.361-6.392-1.082s-3.573-1.781-4.924-3.178s-2.399-3.131-3.143-5.203
			c-0.746-2.072-1.118-4.437-1.118-7.09c0-2.699,0.384-5.101,1.152-7.193c0.769-2.096,1.815-3.854,3.143-5.272
			c1.327-1.421,2.875-2.505,4.645-3.248C749.825,1235.156,751.734,1234.783,753.783,1234.783z M744.145,1248.193h17.531
			c0-0.185,0.012-0.355,0.035-0.519c0.023-0.16,0.035-0.354,0.035-0.584c0-1.146-0.223-2.238-0.664-3.27
			c-0.443-1.033-1.037-1.928-1.781-2.687c-0.745-0.758-1.618-1.364-2.619-1.823c-1.002-0.459-2.084-0.689-3.248-0.689
			c-2.188,0-4.167,0.77-5.937,2.307C745.727,1242.467,744.61,1244.888,744.145,1248.193z"/>
		<path d="M776.972,1239.322c2.841-2.979,6.636-4.472,11.386-4.472c3.912,0,6.996,0.99,9.255,2.97
			c2.258,1.979,3.387,5.272,3.387,9.883v19.768h-4.75v-3.491c-3.399,2.84-7.218,4.26-11.455,4.26c-1.676,0-3.178-0.256-4.505-0.768
			c-1.327-0.513-2.457-1.188-3.388-2.025c-0.933-0.838-1.643-1.793-2.13-2.865c-0.489-1.07-0.733-2.141-0.733-3.213
			c0-3.213,1.385-5.75,4.156-7.613c2.77-1.86,6.763-2.885,11.979-3.072h6.006v-1.194c0-3.189-0.664-5.418-1.989-6.685
			c-1.327-1.266-3.389-1.899-6.183-1.899c-3.446,0-6.31,1.213-8.591,3.633L776.972,1239.322z M796.389,1252.522h-1.188
			c-0.653,0-1.271-0.012-1.852-0.034c-0.583-0.023-1.151-0.035-1.711-0.035c-2.561,0-4.656,0.174-6.285,0.522
			c-1.631,0.351-2.91,0.828-3.842,1.433c-0.932,0.606-1.572,1.293-1.921,2.061c-0.349,0.771-0.524,1.596-0.524,2.48
			c0,1.489,0.652,2.771,1.957,3.842c1.303,1.069,2.908,1.604,4.818,1.604c1.397,0,2.654-0.221,3.771-0.662
			c1.117-0.442,2.096-0.979,2.934-1.606c0.838-0.629,1.513-1.279,2.025-1.955c0.512-0.676,0.884-1.271,1.117-1.781
			c0.466-0.932,0.699-2.188,0.699-3.771V1252.522z"/>
		<path d="M818.67,1227.029l5.448-0.908c0,0.42-0.06,0.793-0.175,1.117c-0.117,0.326-0.198,0.584-0.244,0.77l-0.838,7.543h10.477
			v4.052h-10.477c-0.42,4.17-0.629,8.079-0.629,11.731c0,2.248,0.047,4.146,0.141,5.691c0.094,1.547,0.339,2.764,0.738,3.653
			c0.396,0.89,0.971,1.58,1.72,2.072s1.754,0.736,3.018,0.736c2.152,0,4.539-0.978,7.159-2.934l1.544,3.981
			c-3.213,2.375-6.52,3.563-9.918,3.563c-3.353,0-5.797-1.017-7.334-3.047c-1.537-2.029-2.235-5.332-2.096-9.906
			c0-1.683,0.046-3.828,0.14-6.441c0.094-2.615,0.279-5.647,0.56-9.104h-7.475v-4.052h7.684L818.67,1227.029z"/>
		<path d="M847.866,1235.551h12.782v27.869h7.474v4.051h-20.675v-4.051h8.172v-23.817h-7.753V1235.551z M855.689,1222.699
			c0.697-0.699,1.537-1.049,2.514-1.049c0.978,0,1.827,0.36,2.55,1.084c0.721,0.723,1.083,1.569,1.083,2.549
			c0,0.979-0.361,1.815-1.083,2.514c-0.723,0.699-1.572,1.049-2.55,1.049c-0.979,0-1.816-0.35-2.514-1.049
			c-0.699-0.697-1.049-1.535-1.049-2.514C854.641,1224.26,854.99,1223.396,855.689,1222.699z"/>
		<path d="M878.877,1237.297l-0.698-1.746h5.938c0,0.326-0.035,0.617-0.105,0.873c-0.069,0.257-0.104,0.479-0.104,0.664
			c0,0.094,0.022,0.162,0.07,0.209l9.289,23.328l5.168-11.873c1.118-2.562,2.025-4.937,2.725-7.125
			c0.698-2.188,1.232-4.213,1.605-6.076h4.54c-0.932,3.912-2.538,8.568-4.818,13.969l-7.753,18.16h-3.911L878.877,1237.297z"/>
		<path d="M928.398,1234.783c1.677,0,3.307,0.303,4.89,0.905c1.583,0.607,2.968,1.527,4.156,2.761
			c1.188,1.233,2.141,2.807,2.863,4.715c0.722,1.91,1.083,4.168,1.083,6.774c0,0.373-0.012,0.757-0.035,1.152
			c-0.023,0.396-0.059,0.779-0.104,1.152h-22.7c0.093,2.233,0.478,4.108,1.153,5.623c0.674,1.514,1.523,2.733,2.549,3.666
			c1.023,0.932,2.165,1.596,3.422,1.99c1.258,0.396,2.514,0.594,3.771,0.594c3.306,0,6.053-1.188,8.242-3.563l2.793,2.726
			c-2.701,3.26-6.427,4.889-11.176,4.889c-2.328,0-4.459-0.361-6.391-1.082c-1.933-0.721-3.574-1.781-4.924-3.178
			c-1.352-1.396-2.399-3.131-3.143-5.203c-0.746-2.072-1.118-4.437-1.118-7.09c0-2.699,0.384-5.101,1.151-7.193
			c0.77-2.096,1.816-3.854,3.144-5.272c1.327-1.421,2.875-2.505,4.645-3.248C924.439,1235.156,926.349,1234.783,928.398,1234.783z
			 M918.76,1248.193h17.532c0-0.185,0.011-0.355,0.035-0.519c0.022-0.16,0.035-0.354,0.035-0.584c0-1.146-0.223-2.238-0.664-3.27
			c-0.443-1.033-1.037-1.928-1.781-2.687c-0.745-0.758-1.618-1.364-2.619-1.823c-1.002-0.459-2.084-0.689-3.248-0.689
			c-2.188,0-4.167,0.77-5.937,2.307C920.342,1242.467,919.225,1244.888,918.76,1248.193z"/>
		<path d="M1007.953,1233.818c0-0.548-0.07-0.957-0.209-1.232c-0.932-1.506-2.143-2.703-3.632-3.594
			c-1.491-0.89-3.073-1.334-4.75-1.334c-1.583,0-3.073,0.407-4.47,1.223c-1.396,0.814-2.632,2.002-3.703,3.563
			c-1.071,1.561-1.909,3.457-2.515,5.69c-0.604,2.234-0.908,4.773-0.908,7.613c0,2.748,0.303,5.25,0.908,7.508
			c0.605,2.261,1.455,4.191,2.55,5.799c1.094,1.605,2.375,2.853,3.842,3.736c1.466,0.884,3.039,1.326,4.715,1.326
			c1.722,0,3.387-0.488,4.994-1.469c1.606-0.981,2.898-2.308,3.876-3.979l3.632,2.375c-0.699,1.164-1.537,2.189-2.516,3.072
			c-0.978,0.885-2.015,1.631-3.107,2.236c-1.095,0.604-2.189,1.059-3.283,1.36c-1.094,0.303-2.2,0.453-3.316,0.453
			c-2.516,0-4.739-0.43-6.671-1.291c-1.933-0.861-3.702-2.201-5.308-4.016c-1.605-1.816-2.854-4.121-3.737-6.916
			c-0.885-2.793-1.327-6.123-1.327-9.988c0-4.283,0.513-7.857,1.537-10.721c1.023-2.863,2.375-5.156,4.051-6.882
			c1.677-1.721,3.459-2.942,5.344-3.666c1.886-0.721,3.713-1.082,5.482-1.082c1.443,0,2.853,0.209,4.227,0.63
			c1.373,0.418,2.654,1.002,3.841,1.745c1.187,0.744,2.246,1.642,3.178,2.688c0.932,1.049,1.677,2.225,2.235,3.527l-4.68,2.305
			C1008.046,1234.367,1007.953,1234.138,1007.953,1233.818z"/>
		<path d="M1032.818,1234.851c1.956,0,3.807,0.386,5.553,1.152c1.747,0.77,3.271,1.875,4.575,3.318
			c1.303,1.442,2.34,3.201,3.107,5.272c0.77,2.072,1.153,4.39,1.153,6.949c0,2.608-0.374,4.938-1.118,6.983
			c-0.746,2.052-1.771,3.808-3.073,5.273c-1.304,1.467-2.841,2.584-4.609,3.354c-1.771,0.769-3.656,1.152-5.658,1.152
			c-2.049,0-3.97-0.42-5.762-1.258c-1.793-0.838-3.365-1.99-4.715-3.457c-1.351-1.467-2.422-3.225-3.213-5.273
			c-0.792-2.049-1.188-4.26-1.188-6.635s0.407-4.611,1.222-6.705c0.814-2.096,1.909-3.877,3.283-5.344
			c1.373-1.467,2.969-2.631,4.785-3.492C1028.977,1235.281,1030.863,1234.851,1032.818,1234.851z M1042.177,1251.685
			c0-2.002-0.268-3.782-0.803-5.344c-0.536-1.559-1.246-2.875-2.13-3.947c-0.885-1.069-1.898-1.885-3.039-2.442
			c-1.142-0.56-2.34-0.838-3.597-0.838c-1.258,0-2.457,0.278-3.598,0.838c-1.141,0.559-2.142,1.373-3.003,2.442
			c-0.862,1.072-1.549,2.365-2.061,3.877c-0.514,1.515-0.77,3.226-0.77,5.136c0,1.86,0.255,3.561,0.77,5.098
			c0.512,1.537,1.197,2.863,2.061,3.982c0.861,1.116,1.874,1.979,3.038,2.584c1.164,0.604,2.397,0.907,3.702,0.907
			c1.303,0,2.525-0.268,3.667-0.805c1.141-0.533,2.141-1.326,3.003-2.373c0.861-1.049,1.537-2.34,2.025-3.877
			C1041.933,1255.386,1042.177,1253.64,1042.177,1251.685z"/>
		<path d="M1075.844,1240.229v-19.207h5.447c0,0.279-0.117,0.595-0.35,0.941c-0.234,0.35-0.351,0.688-0.351,1.014l0.07,41.56
			c0,1.117,0.116,2.096,0.35,2.934h-5.094c-0.19-0.559-0.285-1.35-0.285-2.375v-2.725c-1.021,1.771-2.414,3.178-4.178,4.227
			c-1.765,1.048-3.552,1.57-5.361,1.57c-1.764,0-3.424-0.348-4.979-1.047c-1.556-0.699-2.925-1.746-4.107-3.144
			c-1.185-1.397-2.124-3.153-2.819-5.272c-0.696-2.119-1.046-4.621-1.046-7.51c0-2.935,0.396-5.437,1.185-7.509
			c0.789-2.069,1.822-3.771,3.1-5.1c1.276-1.326,2.704-2.305,4.282-2.932c1.578-0.629,3.179-0.943,4.804-0.943
			c2.229,0,4.143,0.5,5.745,1.502C1073.858,1237.217,1075.053,1238.554,1075.844,1240.229z M1061.139,1241.144
			c-1.979,1.822-2.967,4.904-2.967,9.246c0,4.017,0.759,7.25,2.277,9.701c1.518,2.451,3.749,3.676,6.692,3.676
			c0.689,0,1.428-0.127,2.209-0.385c0.781-0.256,1.519-0.641,2.208-1.156c0.689-0.512,1.312-1.118,1.862-1.819
			c0.553-0.699,0.967-1.494,1.242-2.381c0.507-1.683,0.76-3.922,0.76-6.726c0-1.774-0.069-3.256-0.207-4.446
			c-0.138-1.191-0.354-2.207-0.654-3.048c-0.3-0.84-0.68-1.528-1.141-2.065c-0.46-0.537-1.035-1.015-1.725-1.437
			c-0.828-0.514-1.601-0.897-2.313-1.155c-0.714-0.257-1.392-0.386-2.036-0.386c-1.334,0-2.473,0.188-3.416,0.562
			C1062.991,1239.697,1062.061,1240.304,1061.139,1241.144z"/>
		<path d="M1092.327,1235.551h12.782v27.869h7.473v4.051h-20.674v-4.051h8.172v-23.817h-7.753V1235.551z M1100.151,1222.699
			c0.696-0.699,1.536-1.049,2.514-1.049c0.979,0,1.827,0.36,2.55,1.084c0.723,0.723,1.083,1.569,1.083,2.549
			c0,0.979-0.36,1.815-1.083,2.514c-0.723,0.699-1.57,1.049-2.55,1.049c-0.978,0-1.816-0.35-2.514-1.049
			c-0.699-0.697-1.05-1.535-1.05-2.514C1099.102,1224.26,1099.451,1223.396,1100.151,1222.699z"/>
		<path d="M1124.596,1267.47v-31.92h5.029v5.658c1.218-1.957,2.777-3.516,4.676-4.68c1.899-1.164,3.833-1.746,5.803-1.746
			c1.406,0,2.72,0.244,3.938,0.731c1.219,0.488,2.275,1.271,3.165,2.34c0.891,1.072,1.583,2.445,2.075,4.121
			c0.491,1.677,0.737,3.728,0.737,6.146v19.348h-5.028v-19.209c0-3.352-0.572-5.703-1.72-7.053
			c-1.146-1.353-2.537-2.027-4.176-2.027c-1.074,0-2.174,0.234-3.297,0.699c-1.123,0.467-2.14,1.129-3.052,1.99
			c-0.913,0.862-1.661,1.897-2.246,3.108s-0.876,2.584-0.876,4.121v18.369h-5.029V1267.47z"/>
		<path d="M1178.448,1237.576c2.234-1.908,4.89-2.863,7.963-2.863h0.907l0.629,4.189c-0.326-0.046-0.642-0.08-0.942-0.104
			c-0.304-0.022-0.618-0.035-0.942-0.035c-2.051,0-3.89,0.488-5.519,1.467c1.07,1.632,1.606,3.423,1.606,5.377
			c0,1.492-0.305,2.9-0.908,4.228c-0.605,1.328-1.432,2.492-2.479,3.492c-1.048,1.002-2.271,1.793-3.667,2.375
			c-1.396,0.582-2.888,0.873-4.47,0.873c-1.305,0-2.654-0.256-4.052-0.769c-1.49,1.443-2.234,2.654-2.234,3.631
			c0,0.793,0.453,1.41,1.361,1.853c0.908,0.443,2.152,0.664,3.737,0.664c0.884,0,1.78-0.035,2.688-0.105
			c0.908-0.069,1.758-0.104,2.55-0.104c2.097,0,3.899,0.199,5.413,0.594c1.513,0.396,2.734,0.955,3.667,1.678
			c0.932,0.722,1.629,1.57,2.096,2.549c0.466,0.979,0.698,2.025,0.698,3.144c0,1.258-0.304,2.479-0.907,3.668
			c-0.605,1.188-1.515,2.233-2.725,3.143c-1.212,0.908-2.736,1.629-4.575,2.164c-1.84,0.535-3.993,0.806-6.461,0.806
			c-2.562,0-4.762-0.199-6.601-0.595c-1.84-0.396-3.317-0.942-4.437-1.643c-1.116-0.697-1.967-1.502-2.549-2.408
			c-0.583-0.908-0.873-1.875-0.873-2.899c0-2.515,1.746-4.865,5.238-7.054c-1.724-0.885-2.584-2.352-2.584-4.399
			c0-2.002,1.21-4.004,3.632-6.009c-1.491-0.977-2.654-2.233-3.492-3.771c-0.839-1.537-1.258-3.166-1.258-4.889
			c0-1.582,0.325-3.063,0.979-4.437c0.65-1.373,1.523-2.572,2.618-3.598c1.095-1.023,2.352-1.826,3.771-2.41
			c1.42-0.58,2.875-0.873,4.365-0.873C1173.814,1234.502,1176.398,1235.527,1178.448,1237.576z M1166.015,1265.793
			c-2.653,1.492-3.98,3.119-3.98,4.891c0,0.931,0.268,1.712,0.804,2.341c0.534,0.629,1.257,1.141,2.165,1.536
			s1.979,0.687,3.213,0.873s2.525,0.279,3.877,0.279c2.839,0,5.191-0.514,7.054-1.537c1.862-1.024,2.795-2.397,2.795-4.121
			c-0.095-1.258-0.617-2.233-1.571-2.934c-0.955-0.699-2.457-1.047-4.505-1.047c-0.233,0-0.467,0.012-0.698,0.033
			c-0.234,0.024-0.467,0.034-0.699,0.034c-1.77,0-3.353-0.034-4.749-0.104C1168.32,1265.969,1167.085,1265.888,1166.015,1265.793z
			 M1165.596,1240.638c-0.697,0.695-1.211,1.459-1.537,2.293c-0.325,0.834-0.487,1.715-0.487,2.644c0,0.926,0.186,1.817,0.559,2.676
			c0.372,0.856,0.873,1.598,1.502,2.223c0.628,0.627,1.373,1.123,2.234,1.494c0.86,0.371,1.758,0.558,2.688,0.558
			c0.979,0,1.886-0.187,2.725-0.558s1.582-0.879,2.234-1.526c0.651-0.648,1.163-1.392,1.537-2.226
			c0.372-0.834,0.559-1.715,0.559-2.641c0-0.929-0.187-1.818-0.559-2.677c-0.374-0.856-0.886-1.61-1.537-2.26
			c-0.652-0.646-1.409-1.156-2.27-1.526c-0.862-0.371-1.76-0.558-2.689-0.558C1168.645,1238.554,1166.992,1239.25,1165.596,1240.638
			z"/>
		<path d="M1227.479,1223.957h3.843l10.757,21.303l10.966-21.373h3.701v43.584h-4.609v-32.828l-9.43,17.531h-1.886l-8.802-17.322
			v32.619h-4.54V1223.957L1227.479,1223.957z"/>
		<path d="M1266.942,1235.551h12.781v27.869h7.475v4.051h-20.675v-4.051h8.172v-23.817h-7.754L1266.942,1235.551L1266.942,1235.551z
			 M1274.765,1222.699c0.698-0.699,1.536-1.049,2.516-1.049c0.978,0,1.826,0.36,2.549,1.084c0.722,0.723,1.083,1.569,1.083,2.549
			c0,0.979-0.361,1.815-1.083,2.514c-0.724,0.699-1.571,1.049-2.549,1.049c-0.979,0-1.816-0.35-2.516-1.049
			c-0.697-0.697-1.048-1.535-1.048-2.514C1273.717,1224.26,1274.067,1223.396,1274.765,1222.699z"/>
		<path d="M1300.398,1221.022h14.038v42.396h9.359v4.051h-23.817v-4.051h9.431v-38.346h-9.011V1221.022z"/>
		<path d="M1335.741,1239.322c2.839-2.979,6.635-4.472,11.385-4.472c3.911,0,6.995,0.99,9.254,2.97s3.388,5.272,3.388,9.883v19.768
			h-4.749v-3.491c-3.398,2.84-7.219,4.26-11.454,4.26c-1.677,0-3.179-0.256-4.506-0.768c-1.326-0.513-2.457-1.188-3.388-2.025
			c-0.932-0.838-1.642-1.793-2.13-2.865c-0.489-1.07-0.733-2.141-0.733-3.213c0-3.213,1.386-5.75,4.155-7.613
			c2.771-1.86,6.764-2.885,11.979-3.072h6.007v-1.194c0-3.189-0.663-5.418-1.99-6.685c-1.327-1.266-3.388-1.899-6.182-1.899
			c-3.446,0-6.312,1.213-8.592,3.633L1335.741,1239.322z M1355.158,1252.522h-1.188c-0.651,0-1.27-0.012-1.851-0.034
			c-0.583-0.023-1.153-0.035-1.712-0.035c-2.563,0-4.656,0.174-6.286,0.522c-1.63,0.35-2.91,0.828-3.842,1.433
			c-0.933,0.606-1.571,1.293-1.92,2.061c-0.351,0.771-0.524,1.596-0.524,2.48c0,1.489,0.651,2.771,1.956,3.842
			c1.303,1.069,2.909,1.604,4.818,1.604c1.396,0,2.654-0.221,3.771-0.662c1.117-0.442,2.096-0.979,2.934-1.606
			s1.514-1.279,2.025-1.955s0.884-1.271,1.118-1.781c0.465-0.932,0.698-2.188,0.698-3.771v-2.098H1355.158z"/>
		<path d="M1369.058,1267.47v-31.92h5.028v5.658c1.218-1.957,2.777-3.516,4.677-4.68c1.898-1.164,3.833-1.746,5.804-1.746
			c1.404,0,2.719,0.244,3.938,0.731c1.219,0.488,2.274,1.271,3.165,2.34c0.891,1.072,1.582,2.445,2.074,4.121
			c0.491,1.677,0.739,3.728,0.739,6.146v19.348h-5.029v-19.209c0-3.352-0.573-5.703-1.719-7.053
			c-1.146-1.353-2.538-2.027-4.177-2.027c-1.076,0-2.175,0.234-3.297,0.699c-1.123,0.467-2.14,1.129-3.053,1.99
			c-0.912,0.862-1.66,1.897-2.245,3.108s-0.877,2.584-0.877,4.121v18.369h-5.028V1267.47z"/>
		<path d="M1416.972,1234.851c1.955,0,3.808,0.386,5.554,1.152c1.746,0.77,3.271,1.875,4.573,3.318
			c1.304,1.442,2.341,3.201,3.108,5.272c0.768,2.072,1.152,4.39,1.152,6.949c0,2.608-0.373,4.938-1.117,6.983
			c-0.745,2.052-1.771,3.808-3.073,5.273c-1.304,1.467-2.841,2.584-4.61,3.354c-1.77,0.769-3.654,1.152-5.656,1.152
			c-2.051,0-3.971-0.42-5.762-1.258c-1.795-0.838-3.365-1.99-4.716-3.457c-1.352-1.467-2.422-3.225-3.213-5.273
			c-0.793-2.049-1.188-4.26-1.188-6.635s0.407-4.611,1.223-6.705c0.813-2.096,1.908-3.877,3.282-5.344
			c1.373-1.467,2.969-2.631,4.784-3.492C1413.13,1235.283,1415.016,1234.851,1416.972,1234.851z M1426.331,1251.685
			c0-2.002-0.269-3.782-0.804-5.344c-0.536-1.559-1.246-2.875-2.13-3.947c-0.887-1.069-1.898-1.885-3.038-2.442
			c-1.143-0.56-2.34-0.838-3.599-0.838c-1.257,0-2.456,0.278-3.597,0.838c-1.142,0.559-2.143,1.373-3.004,2.442
			c-0.862,1.072-1.549,2.365-2.062,3.877c-0.513,1.515-0.768,3.226-0.768,5.136c0,1.86,0.255,3.561,0.768,5.098
			s1.198,2.863,2.062,3.982c0.861,1.116,1.874,1.979,3.038,2.584c1.164,0.604,2.397,0.907,3.702,0.907
			c1.304,0,2.524-0.268,3.667-0.805c1.141-0.533,2.142-1.326,3.004-2.373c0.859-1.049,1.536-2.34,2.024-3.877
			C1426.086,1255.386,1426.331,1253.64,1426.331,1251.685z"/>
	</g>
</g>
<g id="Layer_3_copy" display="none">
	<g display="inline" enable-background="new    ">
		<path d="M693.646,1233.818c0-0.548-0.07-0.957-0.209-1.232c-0.933-1.506-2.144-2.703-3.633-3.594
			c-1.49-0.89-3.072-1.334-4.75-1.334c-1.583,0-3.072,0.407-4.47,1.223c-1.396,0.814-2.631,2.002-3.702,3.563
			c-1.072,1.561-1.91,3.457-2.515,5.69c-0.605,2.234-0.908,4.773-0.908,7.613c0,2.748,0.302,5.25,0.908,7.508
			c0.604,2.261,1.455,4.191,2.55,5.799c1.093,1.605,2.375,2.853,3.841,3.736s3.039,1.326,4.715,1.326
			c1.723,0,3.388-0.488,4.994-1.469c1.607-0.981,2.899-2.308,3.876-3.979l3.633,2.375c-0.699,1.164-1.537,2.189-2.516,3.072
			c-0.979,0.885-2.015,1.631-3.107,2.236c-1.096,0.604-2.189,1.059-3.283,1.36c-1.094,0.303-2.2,0.453-3.317,0.453
			c-2.515,0-4.739-0.43-6.67-1.291c-1.933-0.861-3.702-2.201-5.308-4.016c-1.606-1.816-2.854-4.121-3.737-6.916
			c-0.885-2.793-1.327-6.123-1.327-9.988c0-4.283,0.512-7.857,1.537-10.721c1.023-2.863,2.375-5.156,4.051-6.882
			c1.676-1.721,3.458-2.942,5.343-3.666c1.887-0.721,3.714-1.082,5.483-1.082c1.443,0,2.852,0.209,4.227,0.63
			c1.372,0.418,2.653,1.002,3.841,1.745c1.187,0.744,2.245,1.642,3.178,2.688c0.931,1.049,1.676,2.225,2.235,3.527l-4.681,2.305
			C693.739,1234.367,693.646,1234.138,693.646,1233.818z"/>
		<path d="M707.684,1235.551h5.17l-0.141,6.146c0.981-2.234,2.535-3.947,4.661-5.136c2.126-1.188,4.403-1.778,6.834-1.778
			c3.457,0,6.307,1.164,8.551,3.491l-2.305,4.818c-0.515-0.699-0.982-1.279-1.402-1.746c-0.421-0.465-0.876-0.86-1.368-1.188
			c-0.49-0.324-1.028-0.582-1.612-0.769c-0.585-0.186-1.298-0.278-2.14-0.278c-1.543,0-2.991,0.36-4.348,1.082
			c-1.354,0.723-2.537,1.676-3.541,2.862c-1.005,1.188-1.812,2.55-2.419,4.087c-0.606,1.537-0.911,3.143-0.911,4.819v15.576h-5.029
			V1235.551z"/>
		<path d="M753.783,1234.783c1.676,0,3.306,0.303,4.889,0.905c1.583,0.607,2.968,1.527,4.156,2.761
			c1.188,1.233,2.141,2.807,2.864,4.715c0.721,1.91,1.083,4.168,1.083,6.774c0,0.373-0.013,0.757-0.035,1.152
			c-0.024,0.396-0.06,0.779-0.104,1.152h-22.7c0.094,2.233,0.478,4.108,1.153,5.623c0.674,1.514,1.524,2.733,2.549,3.666
			c1.023,0.932,2.165,1.596,3.423,1.99c1.257,0.396,2.514,0.594,3.771,0.594c3.306,0,6.053-1.188,8.242-3.563l2.793,2.726
			c-2.701,3.26-6.426,4.889-11.175,4.889c-2.329,0-4.459-0.361-6.392-1.082s-3.573-1.781-4.924-3.178s-2.399-3.131-3.143-5.203
			c-0.746-2.072-1.118-4.437-1.118-7.09c0-2.699,0.384-5.101,1.152-7.193c0.769-2.096,1.815-3.854,3.143-5.272
			c1.327-1.421,2.875-2.505,4.645-3.248C749.825,1235.156,751.734,1234.783,753.783,1234.783z M744.145,1248.193h17.531
			c0-0.185,0.012-0.355,0.035-0.519c0.023-0.16,0.035-0.354,0.035-0.584c0-1.146-0.223-2.238-0.664-3.27
			c-0.443-1.033-1.037-1.928-1.781-2.687c-0.745-0.758-1.618-1.364-2.619-1.823c-1.002-0.459-2.084-0.689-3.248-0.689
			c-2.188,0-4.167,0.77-5.937,2.307C745.727,1242.467,744.61,1244.888,744.145,1248.193z"/>
		<path d="M776.972,1239.322c2.841-2.979,6.636-4.472,11.386-4.472c3.912,0,6.996,0.99,9.255,2.97
			c2.258,1.979,3.387,5.272,3.387,9.883v19.768h-4.75v-3.491c-3.399,2.84-7.218,4.26-11.455,4.26c-1.676,0-3.178-0.256-4.505-0.768
			c-1.327-0.513-2.457-1.188-3.388-2.025c-0.933-0.838-1.643-1.793-2.13-2.865c-0.489-1.07-0.733-2.141-0.733-3.213
			c0-3.213,1.385-5.75,4.156-7.613c2.77-1.86,6.763-2.885,11.979-3.072h6.006v-1.194c0-3.189-0.664-5.418-1.989-6.685
			c-1.327-1.266-3.389-1.899-6.183-1.899c-3.446,0-6.31,1.213-8.591,3.633L776.972,1239.322z M796.389,1252.522h-1.188
			c-0.653,0-1.271-0.012-1.852-0.034c-0.583-0.023-1.151-0.035-1.711-0.035c-2.561,0-4.656,0.174-6.285,0.522
			c-1.631,0.351-2.91,0.828-3.842,1.433c-0.932,0.606-1.572,1.293-1.921,2.061c-0.349,0.771-0.524,1.596-0.524,2.48
			c0,1.489,0.652,2.771,1.957,3.842c1.303,1.069,2.908,1.604,4.818,1.604c1.397,0,2.654-0.221,3.771-0.662
			c1.117-0.442,2.096-0.979,2.934-1.606c0.838-0.629,1.513-1.279,2.025-1.955c0.512-0.676,0.884-1.271,1.117-1.781
			c0.466-0.932,0.699-2.188,0.699-3.771V1252.522z"/>
		<path d="M818.67,1227.029l5.448-0.908c0,0.42-0.06,0.793-0.175,1.117c-0.117,0.326-0.198,0.584-0.244,0.77l-0.838,7.543h10.477
			v4.052h-10.477c-0.42,4.17-0.629,8.079-0.629,11.731c0,2.248,0.047,4.146,0.141,5.691c0.094,1.547,0.339,2.764,0.738,3.653
			c0.396,0.89,0.971,1.58,1.72,2.072s1.754,0.736,3.018,0.736c2.152,0,4.539-0.978,7.159-2.934l1.544,3.981
			c-3.213,2.375-6.52,3.563-9.918,3.563c-3.353,0-5.797-1.017-7.334-3.047c-1.537-2.029-2.235-5.332-2.096-9.906
			c0-1.683,0.046-3.828,0.14-6.441c0.094-2.615,0.279-5.647,0.56-9.104h-7.475v-4.052h7.684L818.67,1227.029z"/>
		<path d="M847.866,1235.551h12.782v27.869h7.474v4.051h-20.675v-4.051h8.172v-23.817h-7.753V1235.551z M855.689,1222.699
			c0.697-0.699,1.537-1.049,2.514-1.049c0.978,0,1.827,0.36,2.55,1.084c0.721,0.723,1.083,1.569,1.083,2.549
			c0,0.979-0.361,1.815-1.083,2.514c-0.723,0.699-1.572,1.049-2.55,1.049c-0.979,0-1.816-0.35-2.514-1.049
			c-0.699-0.697-1.049-1.535-1.049-2.514C854.641,1224.26,854.99,1223.396,855.689,1222.699z"/>
		<path d="M878.877,1237.297l-0.698-1.746h5.938c0,0.326-0.035,0.617-0.105,0.873c-0.069,0.257-0.104,0.479-0.104,0.664
			c0,0.094,0.022,0.162,0.07,0.209l9.289,23.328l5.168-11.873c1.118-2.562,2.025-4.937,2.725-7.125
			c0.698-2.188,1.232-4.213,1.605-6.076h4.54c-0.932,3.912-2.538,8.568-4.818,13.969l-7.753,18.16h-3.911L878.877,1237.297z"/>
		<path d="M928.398,1234.783c1.677,0,3.307,0.303,4.89,0.905c1.583,0.607,2.968,1.527,4.156,2.761
			c1.188,1.233,2.141,2.807,2.863,4.715c0.722,1.91,1.083,4.168,1.083,6.774c0,0.373-0.012,0.757-0.035,1.152
			c-0.023,0.396-0.059,0.779-0.104,1.152h-22.7c0.093,2.233,0.478,4.108,1.153,5.623c0.674,1.514,1.523,2.733,2.549,3.666
			c1.023,0.932,2.165,1.596,3.422,1.99c1.258,0.396,2.514,0.594,3.771,0.594c3.306,0,6.053-1.188,8.242-3.563l2.793,2.726
			c-2.701,3.26-6.427,4.889-11.176,4.889c-2.328,0-4.459-0.361-6.391-1.082c-1.933-0.721-3.574-1.781-4.924-3.178
			c-1.352-1.396-2.399-3.131-3.143-5.203c-0.746-2.072-1.118-4.437-1.118-7.09c0-2.699,0.384-5.101,1.151-7.193
			c0.77-2.096,1.816-3.854,3.144-5.272c1.327-1.421,2.875-2.505,4.645-3.248C924.439,1235.156,926.349,1234.783,928.398,1234.783z
			 M918.76,1248.193h17.532c0-0.185,0.011-0.355,0.035-0.519c0.022-0.16,0.035-0.354,0.035-0.584c0-1.146-0.223-2.238-0.664-3.27
			c-0.443-1.033-1.037-1.928-1.781-2.687c-0.745-0.758-1.618-1.364-2.619-1.823c-1.002-0.459-2.084-0.689-3.248-0.689
			c-2.188,0-4.167,0.77-5.937,2.307C920.342,1242.467,919.225,1244.888,918.76,1248.193z"/>
		<path d="M1007.953,1233.818c0-0.548-0.07-0.957-0.209-1.232c-0.932-1.506-2.143-2.703-3.632-3.594
			c-1.491-0.89-3.073-1.334-4.75-1.334c-1.583,0-3.073,0.407-4.47,1.223c-1.396,0.814-2.632,2.002-3.703,3.563
			c-1.071,1.561-1.909,3.457-2.515,5.69c-0.604,2.234-0.908,4.773-0.908,7.613c0,2.748,0.303,5.25,0.908,7.508
			c0.605,2.261,1.455,4.191,2.55,5.799c1.094,1.605,2.375,2.853,3.842,3.736c1.466,0.884,3.039,1.326,4.715,1.326
			c1.722,0,3.387-0.488,4.994-1.469c1.606-0.981,2.898-2.308,3.876-3.979l3.632,2.375c-0.699,1.164-1.537,2.189-2.516,3.072
			c-0.978,0.885-2.015,1.631-3.107,2.236c-1.095,0.604-2.189,1.059-3.283,1.36c-1.094,0.303-2.2,0.453-3.316,0.453
			c-2.516,0-4.739-0.43-6.671-1.291c-1.933-0.861-3.702-2.201-5.308-4.016c-1.605-1.816-2.854-4.121-3.737-6.916
			c-0.885-2.793-1.327-6.123-1.327-9.988c0-4.283,0.513-7.857,1.537-10.721c1.023-2.863,2.375-5.156,4.051-6.882
			c1.677-1.721,3.459-2.942,5.344-3.666c1.886-0.721,3.713-1.082,5.482-1.082c1.443,0,2.853,0.209,4.227,0.63
			c1.373,0.418,2.654,1.002,3.841,1.745c1.187,0.744,2.246,1.642,3.178,2.688c0.932,1.049,1.677,2.225,2.235,3.527l-4.68,2.305
			C1008.046,1234.367,1007.953,1234.138,1007.953,1233.818z"/>
		<path d="M1032.818,1234.851c1.956,0,3.807,0.386,5.553,1.152c1.747,0.77,3.271,1.875,4.575,3.318
			c1.303,1.442,2.34,3.201,3.107,5.272c0.77,2.072,1.153,4.39,1.153,6.949c0,2.608-0.374,4.938-1.118,6.983
			c-0.746,2.052-1.771,3.808-3.073,5.273c-1.304,1.467-2.841,2.584-4.609,3.354c-1.771,0.769-3.656,1.152-5.658,1.152
			c-2.049,0-3.97-0.42-5.762-1.258c-1.793-0.838-3.365-1.99-4.715-3.457c-1.351-1.467-2.422-3.225-3.213-5.273
			c-0.792-2.049-1.188-4.26-1.188-6.635s0.407-4.611,1.222-6.705c0.814-2.096,1.909-3.877,3.283-5.344
			c1.373-1.467,2.969-2.631,4.785-3.492C1028.977,1235.281,1030.863,1234.851,1032.818,1234.851z M1042.177,1251.685
			c0-2.002-0.268-3.782-0.803-5.344c-0.536-1.559-1.246-2.875-2.13-3.947c-0.885-1.069-1.898-1.885-3.039-2.442
			c-1.142-0.56-2.34-0.838-3.597-0.838c-1.258,0-2.457,0.278-3.598,0.838c-1.141,0.559-2.142,1.373-3.003,2.442
			c-0.862,1.072-1.549,2.365-2.061,3.877c-0.514,1.515-0.77,3.226-0.77,5.136c0,1.86,0.255,3.561,0.77,5.098
			c0.512,1.537,1.197,2.863,2.061,3.982c0.861,1.116,1.874,1.979,3.038,2.584c1.164,0.604,2.397,0.907,3.702,0.907
			c1.303,0,2.525-0.268,3.667-0.805c1.141-0.533,2.141-1.326,3.003-2.373c0.861-1.049,1.537-2.34,2.025-3.877
			C1041.933,1255.386,1042.177,1253.64,1042.177,1251.685z"/>
		<path d="M1075.844,1240.229v-19.207h5.447c0,0.279-0.117,0.595-0.35,0.941c-0.234,0.35-0.351,0.688-0.351,1.014l0.07,41.56
			c0,1.117,0.116,2.096,0.35,2.934h-5.094c-0.19-0.559-0.285-1.35-0.285-2.375v-2.725c-1.021,1.771-2.414,3.178-4.178,4.227
			c-1.765,1.048-3.552,1.57-5.361,1.57c-1.764,0-3.424-0.348-4.979-1.047c-1.556-0.699-2.925-1.746-4.107-3.144
			c-1.185-1.397-2.124-3.153-2.819-5.272c-0.696-2.119-1.046-4.621-1.046-7.51c0-2.935,0.396-5.437,1.185-7.509
			c0.789-2.069,1.822-3.771,3.1-5.1c1.276-1.326,2.704-2.305,4.282-2.932c1.578-0.629,3.179-0.943,4.804-0.943
			c2.229,0,4.143,0.5,5.745,1.502C1073.858,1237.217,1075.053,1238.554,1075.844,1240.229z M1061.139,1241.144
			c-1.979,1.822-2.967,4.904-2.967,9.246c0,4.017,0.759,7.25,2.277,9.701c1.518,2.451,3.749,3.676,6.692,3.676
			c0.689,0,1.428-0.127,2.209-0.385c0.781-0.256,1.519-0.641,2.208-1.156c0.689-0.512,1.312-1.118,1.862-1.819
			c0.553-0.699,0.967-1.494,1.242-2.381c0.507-1.683,0.76-3.922,0.76-6.726c0-1.774-0.069-3.256-0.207-4.446
			c-0.138-1.191-0.354-2.207-0.654-3.048c-0.3-0.84-0.68-1.528-1.141-2.065c-0.46-0.537-1.035-1.015-1.725-1.437
			c-0.828-0.514-1.601-0.897-2.313-1.155c-0.714-0.257-1.392-0.386-2.036-0.386c-1.334,0-2.473,0.188-3.416,0.562
			C1062.991,1239.697,1062.061,1240.304,1061.139,1241.144z"/>
		<path d="M1092.327,1235.551h12.782v27.869h7.473v4.051h-20.674v-4.051h8.172v-23.817h-7.753V1235.551z M1100.151,1222.699
			c0.696-0.699,1.536-1.049,2.514-1.049c0.979,0,1.827,0.36,2.55,1.084c0.723,0.723,1.083,1.569,1.083,2.549
			c0,0.979-0.36,1.815-1.083,2.514c-0.723,0.699-1.57,1.049-2.55,1.049c-0.978,0-1.816-0.35-2.514-1.049
			c-0.699-0.697-1.05-1.535-1.05-2.514C1099.102,1224.26,1099.451,1223.396,1100.151,1222.699z"/>
		<path d="M1124.596,1267.47v-31.92h5.029v5.658c1.218-1.957,2.777-3.516,4.676-4.68c1.899-1.164,3.833-1.746,5.803-1.746
			c1.406,0,2.72,0.244,3.938,0.731c1.219,0.488,2.275,1.271,3.165,2.34c0.891,1.072,1.583,2.445,2.075,4.121
			c0.491,1.677,0.737,3.728,0.737,6.146v19.348h-5.028v-19.209c0-3.352-0.572-5.703-1.72-7.053
			c-1.146-1.353-2.537-2.027-4.176-2.027c-1.074,0-2.174,0.234-3.297,0.699c-1.123,0.467-2.14,1.129-3.052,1.99
			c-0.913,0.862-1.661,1.897-2.246,3.108s-0.876,2.584-0.876,4.121v18.369h-5.029V1267.47z"/>
		<path d="M1178.448,1237.576c2.234-1.908,4.89-2.863,7.963-2.863h0.907l0.629,4.189c-0.326-0.046-0.642-0.08-0.942-0.104
			c-0.304-0.022-0.618-0.035-0.942-0.035c-2.051,0-3.89,0.488-5.519,1.467c1.07,1.632,1.606,3.423,1.606,5.377
			c0,1.492-0.305,2.9-0.908,4.228c-0.605,1.328-1.432,2.492-2.479,3.492c-1.048,1.002-2.271,1.793-3.667,2.375
			c-1.396,0.582-2.888,0.873-4.47,0.873c-1.305,0-2.654-0.256-4.052-0.769c-1.49,1.443-2.234,2.654-2.234,3.631
			c0,0.793,0.453,1.41,1.361,1.853c0.908,0.443,2.152,0.664,3.737,0.664c0.884,0,1.78-0.035,2.688-0.105
			c0.908-0.069,1.758-0.104,2.55-0.104c2.097,0,3.899,0.199,5.413,0.594c1.513,0.396,2.734,0.955,3.667,1.678
			c0.932,0.722,1.629,1.57,2.096,2.549c0.466,0.979,0.698,2.025,0.698,3.144c0,1.258-0.304,2.479-0.907,3.668
			c-0.605,1.188-1.515,2.233-2.725,3.143c-1.212,0.908-2.736,1.629-4.575,2.164c-1.84,0.535-3.993,0.806-6.461,0.806
			c-2.562,0-4.762-0.199-6.601-0.595c-1.84-0.396-3.317-0.942-4.437-1.643c-1.116-0.697-1.967-1.502-2.549-2.408
			c-0.583-0.908-0.873-1.875-0.873-2.899c0-2.515,1.746-4.865,5.238-7.054c-1.724-0.885-2.584-2.352-2.584-4.399
			c0-2.002,1.21-4.004,3.632-6.009c-1.491-0.977-2.654-2.233-3.492-3.771c-0.839-1.537-1.258-3.166-1.258-4.889
			c0-1.582,0.325-3.063,0.979-4.437c0.65-1.373,1.523-2.572,2.618-3.598c1.095-1.023,2.352-1.826,3.771-2.41
			c1.42-0.58,2.875-0.873,4.365-0.873C1173.814,1234.502,1176.398,1235.527,1178.448,1237.576z M1166.015,1265.793
			c-2.653,1.492-3.98,3.119-3.98,4.891c0,0.931,0.268,1.712,0.804,2.341c0.534,0.629,1.257,1.141,2.165,1.536
			s1.979,0.687,3.213,0.873s2.525,0.279,3.877,0.279c2.839,0,5.191-0.514,7.054-1.537c1.862-1.024,2.795-2.397,2.795-4.121
			c-0.095-1.258-0.617-2.233-1.571-2.934c-0.955-0.699-2.457-1.047-4.505-1.047c-0.233,0-0.467,0.012-0.698,0.033
			c-0.234,0.024-0.467,0.034-0.699,0.034c-1.77,0-3.353-0.034-4.749-0.104C1168.32,1265.969,1167.085,1265.888,1166.015,1265.793z
			 M1165.596,1240.638c-0.697,0.695-1.211,1.459-1.537,2.293c-0.325,0.834-0.487,1.715-0.487,2.644c0,0.926,0.186,1.817,0.559,2.676
			c0.372,0.856,0.873,1.598,1.502,2.223c0.628,0.627,1.373,1.123,2.234,1.494c0.86,0.371,1.758,0.558,2.688,0.558
			c0.979,0,1.886-0.187,2.725-0.558s1.582-0.879,2.234-1.526c0.651-0.648,1.163-1.392,1.537-2.226
			c0.372-0.834,0.559-1.715,0.559-2.641c0-0.929-0.187-1.818-0.559-2.677c-0.374-0.856-0.886-1.61-1.537-2.26
			c-0.652-0.646-1.409-1.156-2.27-1.526c-0.862-0.371-1.76-0.558-2.689-0.558C1168.645,1238.554,1166.992,1239.25,1165.596,1240.638
			z"/>
		<path d="M1226.396,1223.886h5.028l11.246,33.455l10.546-33.385h4.819l-14.599,43.793h-2.233L1226.396,1223.886z"/>
		<path d="M1277.628,1234.783c1.677,0,3.306,0.303,4.89,0.905c1.582,0.607,2.97,1.527,4.155,2.761
			c1.188,1.233,2.143,2.807,2.864,4.715c0.722,1.91,1.082,4.168,1.082,6.774c0,0.373-0.012,0.757-0.034,1.152
			c-0.024,0.396-0.06,0.779-0.104,1.152h-22.699c0.093,2.233,0.477,4.108,1.152,5.623c0.674,1.514,1.523,2.733,2.549,3.666
			c1.024,0.932,2.166,1.596,3.423,1.99c1.257,0.396,2.515,0.594,3.771,0.594c3.307,0,6.053-1.188,8.242-3.563l2.794,2.726
			c-2.701,3.26-6.426,4.889-11.176,4.889c-2.329,0-4.459-0.361-6.392-1.082s-3.573-1.781-4.925-3.178
			c-1.351-1.397-2.397-3.131-3.143-5.203s-1.117-4.437-1.117-7.09c0-2.699,0.384-5.101,1.152-7.193
			c0.768-2.096,1.814-3.854,3.143-5.272s2.875-2.505,4.646-3.248C1273.67,1235.156,1275.579,1234.783,1277.628,1234.783z
			 M1267.99,1248.193h17.531c0-0.185,0.012-0.355,0.034-0.519c0.023-0.16,0.035-0.354,0.035-0.584c0-1.146-0.222-2.238-0.664-3.27
			c-0.441-1.033-1.036-1.928-1.779-2.687c-0.746-0.758-1.619-1.364-2.62-1.823s-2.084-0.689-3.247-0.689
			c-2.189,0-4.168,0.77-5.938,2.307C1269.572,1242.466,1268.454,1244.888,1267.99,1248.193z"/>
		<path d="M1301.376,1235.551h5.168l-0.14,6.146c0.98-2.234,2.535-3.947,4.66-5.136c2.127-1.188,4.404-1.778,6.834-1.778
			c3.459,0,6.309,1.164,8.552,3.491l-2.306,4.818c-0.515-0.699-0.981-1.279-1.401-1.746c-0.421-0.465-0.876-0.86-1.367-1.188
			c-0.491-0.324-1.029-0.582-1.613-0.769c-0.585-0.186-1.298-0.278-2.139-0.278c-1.544,0-2.993,0.36-4.349,1.082
			c-1.355,0.723-2.536,1.676-3.541,2.862c-1.005,1.188-1.812,2.55-2.42,4.087c-0.606,1.536-0.91,3.143-0.91,4.819v15.576h-5.028
			V1235.551L1301.376,1235.551z"/>
		<path d="M1347.126,1234.851c1.955,0,3.807,0.386,5.553,1.152c1.746,0.77,3.271,1.875,4.574,3.318
			c1.303,1.442,2.34,3.201,3.108,5.272c0.768,2.072,1.151,4.39,1.151,6.949c0,2.608-0.373,4.938-1.116,6.983
			c-0.745,2.052-1.771,3.808-3.073,5.273c-1.304,1.467-2.841,2.584-4.61,3.354c-1.77,0.769-3.655,1.152-5.657,1.152
			c-2.05,0-3.97-0.42-5.762-1.258c-1.794-0.838-3.365-1.99-4.715-3.457c-1.353-1.467-2.422-3.225-3.213-5.273
			c-0.793-2.049-1.188-4.26-1.188-6.635s0.407-4.611,1.224-6.705c0.813-2.096,1.907-3.877,3.282-5.344
			c1.373-1.467,2.969-2.631,4.783-3.492C1343.284,1235.283,1345.17,1234.851,1347.126,1234.851z M1356.486,1251.685
			c0-2.002-0.27-3.782-0.805-5.344c-0.535-1.559-1.246-2.875-2.13-3.947c-0.886-1.069-1.897-1.885-3.038-2.442
			c-1.142-0.56-2.34-0.838-3.598-0.838c-1.257,0-2.456,0.278-3.597,0.838c-1.143,0.559-2.144,1.373-3.005,2.442
			c-0.861,1.072-1.549,2.365-2.061,3.877c-0.513,1.515-0.768,3.226-0.768,5.136c0,1.86,0.255,3.561,0.768,5.098
			c0.512,1.537,1.198,2.863,2.061,3.982c0.861,1.116,1.875,1.979,3.038,2.584c1.164,0.604,2.398,0.907,3.702,0.907
			c1.305,0,2.525-0.268,3.667-0.805c1.142-0.533,2.143-1.326,3.004-2.373c0.86-1.049,1.536-2.34,2.025-3.877
			S1356.486,1253.64,1356.486,1251.685z"/>
		<path d="M1369.058,1267.47v-31.92h5.028v5.658c1.218-1.957,2.777-3.516,4.677-4.68c1.898-1.164,3.833-1.746,5.804-1.746
			c1.404,0,2.719,0.244,3.938,0.731c1.219,0.488,2.274,1.271,3.165,2.34c0.891,1.072,1.582,2.445,2.074,4.121
			c0.491,1.677,0.739,3.728,0.739,6.146v19.348h-5.029v-19.209c0-3.352-0.573-5.703-1.719-7.053
			c-1.146-1.353-2.538-2.027-4.177-2.027c-1.076,0-2.175,0.234-3.297,0.699c-1.123,0.467-2.14,1.129-3.053,1.99
			c-0.912,0.862-1.66,1.897-2.245,3.108s-0.877,2.584-0.877,4.121v18.369h-5.028V1267.47z"/>
		<path d="M1405.587,1239.322c2.839-2.979,6.635-4.472,11.385-4.472c3.911,0,6.995,0.99,9.255,2.97
			c2.259,1.979,3.388,5.272,3.388,9.883v19.768h-4.749v-3.491c-3.399,2.84-7.219,4.26-11.455,4.26c-1.676,0-3.178-0.256-4.505-0.768
			c-1.327-0.513-2.457-1.188-3.388-2.025c-0.933-0.838-1.643-1.793-2.131-2.865c-0.488-1.07-0.732-2.141-0.732-3.213
			c0-3.213,1.385-5.75,4.154-7.613c2.771-1.86,6.765-2.885,11.979-3.072h6.007v-1.194c0-3.189-0.663-5.418-1.99-6.685
			c-1.326-1.266-3.388-1.899-6.182-1.899c-3.446,0-6.311,1.213-8.591,3.633L1405.587,1239.322z M1425.004,1252.522h-1.188
			c-0.652,0-1.271-0.012-1.852-0.034c-0.583-0.023-1.152-0.035-1.712-0.035c-2.562,0-4.656,0.174-6.286,0.522
			c-1.63,0.35-2.91,0.828-3.842,1.433c-0.932,0.606-1.571,1.293-1.92,2.061c-0.35,0.771-0.524,1.596-0.524,2.48
			c0,1.489,0.651,2.771,1.956,3.842c1.303,1.069,2.909,1.604,4.819,1.604c1.396,0,2.654-0.221,3.771-0.662
			c1.117-0.442,2.097-0.979,2.935-1.606s1.513-1.279,2.024-1.955c0.513-0.676,0.885-1.271,1.118-1.781
			c0.465-0.932,0.698-2.188,0.698-3.771v-2.098H1425.004z"/>
	</g>
</g>
<text transform="matrix(1 0 0 1 603.3574 1243.6719)" font-family="'Inconsolata'" font-size="77.677">Italian Creative Coding</text>
</svg>
