<?xml version="1.0" encoding="utf-8"?>
<!-- Generator: Adobe Illustrator 16.0.0, SVG Export Plug-In . SVG Version: 6.00 Build 0)  -->
<!DOCTYPE svg PUBLIC "-//W3C//DTD SVG 1.1//EN" "http://www.w3.org/Graphics/SVG/1.1/DTD/svg11.dtd">
<svg version="1.1" id="Layer_1" xmlns="http://www.w3.org/2000/svg" xmlns:xlink="http://www.w3.org/1999/xlink" x="0px" y="0px"
	 width="2100px" height="2200px" viewBox="0 0 2100 2200" enable-background="new 0 0 2100 2200" xml:space="preserve">
<g id="Layer_2" display="none">
	<g display="inline" enable-background="new    ">
		<path d="M659.591,1233.957h21.723v4.051h-8.592v35.551h9.011v3.982h-22.631v-4.053h8.592v-35.48h-8.103V1233.957z"/>
		<path d="M701.498,1237.029l5.448-0.908c0,0.42-0.06,0.793-0.176,1.117c-0.116,0.326-0.197,0.584-0.243,0.77l-0.839,7.543h10.478
			v4.051h-10.478c-0.419,4.171-0.628,8.08-0.628,11.732c0,2.248,0.047,4.146,0.141,5.691c0.094,1.547,0.339,2.764,0.737,3.654
			c0.397,0.889,0.972,1.579,1.721,2.071s1.754,0.736,3.018,0.736c2.152,0,4.539-0.978,7.159-2.935l1.544,3.982
			c-3.213,2.375-6.52,3.563-9.918,3.563c-3.354,0-5.797-1.017-7.334-3.048c-1.537-2.028-2.235-5.332-2.096-9.905
			c0-1.683,0.046-3.828,0.14-6.441c0.093-2.615,0.279-5.647,0.56-9.104h-7.475v-4.052h7.684L701.498,1237.029z"/>
		<path d="M729.646,1249.322c2.841-2.979,6.636-4.471,11.386-4.471c3.912,0,6.996,0.989,9.255,2.969
			c2.258,1.979,3.387,5.272,3.387,9.883v19.768h-4.749v-3.491c-3.398,2.84-7.218,4.26-11.455,4.26c-1.676,0-3.178-0.256-4.505-0.769
			c-1.327-0.512-2.457-1.188-3.388-2.024c-0.933-0.838-1.643-1.793-2.13-2.865c-0.489-1.069-0.733-2.141-0.733-3.213
			c0-3.213,1.385-5.75,4.156-7.613c2.77-1.86,6.763-2.885,11.979-3.071h6.007v-1.195c0-3.189-0.664-5.418-1.99-6.684
			c-1.327-1.267-3.389-1.9-6.183-1.9c-3.445,0-6.31,1.213-8.591,3.633L729.646,1249.322z M749.064,1262.523h-1.188
			c-0.653,0-1.27-0.013-1.851-0.035c-0.583-0.023-1.152-0.035-1.711-0.035c-2.562,0-4.657,0.174-6.286,0.522
			c-1.63,0.351-2.91,0.828-3.842,1.433c-0.932,0.606-1.571,1.293-1.921,2.061c-0.349,0.771-0.523,1.596-0.523,2.48
			c0,1.489,0.651,2.771,1.956,3.842c1.303,1.07,2.909,1.604,4.818,1.604c1.397,0,2.654-0.221,3.771-0.661
			c1.118-0.443,2.096-0.979,2.934-1.607c0.838-0.629,1.514-1.279,2.025-1.955s0.884-1.27,1.118-1.781
			c0.465-0.932,0.698-2.188,0.698-3.771L749.064,1262.523L749.064,1262.523z"/>
		<path d="M764.15,1231.023h14.039v42.396h9.358v4.051h-23.816v-4.051h9.43v-38.346h-9.011V1231.023z"/>
		<path d="M800.54,1245.551h12.782v27.869h7.474v4.051h-20.675v-4.051h8.172v-23.818h-7.753V1245.551z M808.363,1232.699
			c0.697-0.699,1.536-1.049,2.515-1.049s1.826,0.36,2.549,1.084c0.723,0.723,1.083,1.569,1.083,2.549
			c0,0.979-0.36,1.815-1.083,2.514c-0.723,0.699-1.57,1.049-2.549,1.049s-1.816-0.35-2.515-1.049
			c-0.698-0.697-1.048-1.535-1.048-2.514C807.315,1234.26,807.665,1233.396,808.363,1232.699z"/>
		<path d="M834.416,1249.322c2.839-2.979,6.635-4.471,11.385-4.471c3.911,0,6.995,0.989,9.254,2.969
			c2.26,1.979,3.389,5.272,3.389,9.883v19.768h-4.749v-3.491c-3.399,2.84-7.22,4.26-11.455,4.26c-1.676,0-3.178-0.256-4.505-0.769
			c-1.327-0.512-2.457-1.188-3.389-2.024c-0.932-0.838-1.642-1.793-2.13-2.865c-0.489-1.069-0.732-2.141-0.732-3.213
			c0-3.213,1.385-5.75,4.154-7.613c2.771-1.86,6.765-2.885,11.979-3.071h6.007v-1.195c0-3.189-0.663-5.418-1.99-6.684
			c-1.326-1.267-3.388-1.9-6.182-1.9c-3.446,0-6.311,1.213-8.591,3.633L834.416,1249.322z M853.833,1262.523h-1.188
			c-0.652,0-1.271-0.013-1.852-0.035c-0.583-0.023-1.153-0.035-1.712-0.035c-2.562,0-4.656,0.174-6.286,0.522
			c-1.63,0.35-2.91,0.828-3.842,1.433c-0.932,0.606-1.571,1.293-1.92,2.061c-0.35,0.771-0.524,1.596-0.524,2.48
			c0,1.489,0.651,2.771,1.956,3.842c1.303,1.07,2.909,1.604,4.819,1.604c1.396,0,2.654-0.221,3.771-0.661
			c1.117-0.443,2.097-0.979,2.935-1.607s1.513-1.279,2.024-1.955c0.513-0.676,0.885-1.27,1.118-1.781
			c0.465-0.932,0.698-2.188,0.698-3.771v-2.097H853.833z"/>
		<path d="M867.732,1277.47v-31.92h5.027v5.658c1.218-1.957,2.777-3.517,4.677-4.681c1.898-1.163,3.834-1.745,5.804-1.745
			c1.405,0,2.719,0.243,3.938,0.731c1.22,0.488,2.274,1.271,3.165,2.34c0.892,1.072,1.582,2.445,2.074,4.121
			s0.739,3.728,0.739,6.146v19.348h-5.029v-19.209c0-3.352-0.573-5.703-1.719-7.053c-1.146-1.353-2.538-2.027-4.177-2.027
			c-1.075,0-2.175,0.234-3.297,0.699c-1.123,0.467-2.14,1.129-3.053,1.99c-0.912,0.863-1.66,1.897-2.245,3.108
			c-0.585,1.212-0.877,2.584-0.877,4.121v18.369h-5.027V1277.47z"/>
		<path d="M960.628,1243.818c0-0.547-0.07-0.957-0.21-1.232c-0.932-1.506-2.142-2.703-3.632-3.594
			c-1.49-0.89-3.073-1.334-4.749-1.334c-1.584,0-3.073,0.408-4.472,1.223c-1.396,0.814-2.631,2.002-3.7,3.563
			c-1.072,1.561-1.91,3.457-2.516,5.69c-0.604,2.234-0.907,4.773-0.907,7.613c0,2.748,0.303,5.25,0.907,7.508
			c0.604,2.26,1.454,4.191,2.55,5.799c1.094,1.605,2.375,2.853,3.842,3.736s3.038,1.326,4.715,1.326
			c1.722,0,3.388-0.488,4.994-1.469c1.605-0.981,2.897-2.308,3.876-3.979l3.632,2.375c-0.698,1.164-1.536,2.189-2.514,3.072
			c-0.979,0.885-2.016,1.631-3.108,2.235c-1.095,0.605-2.188,1.06-3.283,1.361c-1.095,0.303-2.2,0.453-3.316,0.453
			c-2.516,0-4.738-0.43-6.671-1.291c-1.934-0.861-3.701-2.201-5.309-4.016c-1.605-1.816-2.853-4.121-3.737-6.916
			c-0.885-2.793-1.326-6.123-1.326-9.988c0-4.283,0.513-7.857,1.536-10.721s2.375-5.156,4.052-6.881
			c1.677-1.722,3.458-2.943,5.344-3.666c1.886-0.722,3.713-1.082,5.481-1.082c1.443,0,2.853,0.209,4.227,0.629
			c1.373,0.418,2.654,1.002,3.842,1.746c1.188,0.743,2.246,1.641,3.178,2.688c0.933,1.049,1.678,2.225,2.235,3.527l-4.68,2.305
			C960.72,1244.367,960.628,1244.138,960.628,1243.818z"/>
		<path d="M974.667,1245.551h5.168l-0.14,6.146c0.98-2.234,2.534-3.947,4.661-5.135c2.126-1.188,4.403-1.779,6.834-1.779
			c3.458,0,6.308,1.164,8.551,3.492l-2.305,4.817c-0.516-0.699-0.982-1.279-1.402-1.746c-0.421-0.465-0.876-0.86-1.367-1.188
			c-0.491-0.324-1.029-0.582-1.613-0.769c-0.585-0.186-1.298-0.278-2.139-0.278c-1.544,0-2.993,0.36-4.349,1.082
			c-1.355,0.723-2.536,1.676-3.54,2.862c-1.005,1.188-1.813,2.549-2.42,4.086s-0.911,3.144-0.911,4.82v15.576h-5.028V1245.551
			L974.667,1245.551z"/>
		<path d="M1020.764,1244.783c1.678,0,3.307,0.303,4.891,0.906c1.582,0.606,2.969,1.526,4.154,2.76
			c1.188,1.233,2.143,2.807,2.864,4.715c0.723,1.91,1.082,4.168,1.082,6.775c0,0.373-0.012,0.756-0.034,1.151
			c-0.023,0.396-0.06,0.779-0.104,1.152h-22.699c0.093,2.233,0.477,4.108,1.152,5.623c0.674,1.514,1.523,2.733,2.549,3.666
			c1.024,0.932,2.166,1.596,3.423,1.989c1.257,0.396,2.515,0.595,3.771,0.595c3.307,0,6.054-1.188,8.242-3.563l2.794,2.726
			c-2.701,3.26-6.426,4.889-11.176,4.889c-2.329,0-4.459-0.361-6.391-1.082c-1.934-0.721-3.574-1.781-4.926-3.178
			c-1.351-1.397-2.397-3.131-3.143-5.203s-1.117-4.437-1.117-7.09c0-2.699,0.384-5.101,1.152-7.193
			c0.768-2.096,1.814-3.854,3.143-5.272s2.875-2.504,4.646-3.248C1016.806,1245.156,1018.716,1244.783,1020.764,1244.783z
			 M1011.126,1258.193h17.531c0-0.185,0.012-0.355,0.035-0.519c0.022-0.16,0.035-0.354,0.035-0.584c0-1.146-0.223-2.237-0.664-3.27
			c-0.442-1.033-1.036-1.929-1.78-2.687c-0.746-0.758-1.619-1.365-2.62-1.824s-2.084-0.688-3.247-0.688
			c-2.188,0-4.168,0.771-5.938,2.307C1012.708,1252.466,1011.591,1254.888,1011.126,1258.193z"/>
		<path d="M1043.954,1249.322c2.839-2.979,6.634-4.471,11.384-4.471c3.912,0,6.996,0.989,9.254,2.969
			c2.261,1.979,3.39,5.272,3.39,9.883v19.768h-4.75v-3.491c-3.398,2.84-7.22,4.26-11.455,4.26c-1.676,0-3.178-0.256-4.504-0.769
			c-1.327-0.512-2.457-1.188-3.389-2.024c-0.932-0.838-1.642-1.793-2.13-2.865c-0.489-1.069-0.732-2.141-0.732-3.213
			c0-3.213,1.385-5.75,4.154-7.613c2.771-1.86,6.765-2.885,11.979-3.071h6.006v-1.195c0-3.189-0.662-5.418-1.99-6.684
			c-1.326-1.267-3.387-1.9-6.182-1.9c-3.445,0-6.311,1.213-8.59,3.633L1043.954,1249.322z M1063.371,1262.523h-1.188
			c-0.651,0-1.27-0.013-1.852-0.035c-0.582-0.023-1.152-0.035-1.711-0.035c-2.563,0-4.656,0.174-6.287,0.522
			c-1.629,0.351-2.91,0.828-3.841,1.433c-0.933,0.606-1.571,1.293-1.92,2.061c-0.351,0.771-0.524,1.596-0.524,2.48
			c0,1.489,0.651,2.771,1.956,3.842c1.303,1.07,2.91,1.604,4.82,1.604c1.396,0,2.653-0.221,3.771-0.661
			c1.117-0.443,2.096-0.979,2.934-1.607c0.839-0.628,1.513-1.279,2.025-1.955c0.512-0.676,0.883-1.27,1.117-1.781
			c0.465-0.932,0.699-2.188,0.699-3.771L1063.371,1262.523L1063.371,1262.523z"/>
		<path d="M1085.651,1237.029l5.448-0.908c0,0.42-0.059,0.793-0.176,1.117c-0.115,0.326-0.197,0.584-0.244,0.77l-0.838,7.543h10.478
			v4.051h-10.478c-0.42,4.171-0.629,8.08-0.629,11.732c0,2.248,0.047,4.146,0.141,5.691c0.095,1.547,0.339,2.764,0.736,3.654
			c0.397,0.889,0.973,1.579,1.721,2.071s1.754,0.736,3.019,0.736c2.151,0,4.539-0.978,7.16-2.935l1.543,3.982
			c-3.214,2.375-6.521,3.563-9.918,3.563c-3.353,0-5.798-1.017-7.334-3.048c-1.537-2.028-2.234-5.332-2.097-9.905
			c0-1.683,0.047-3.828,0.142-6.441c0.092-2.615,0.278-5.647,0.559-9.104h-7.473v-4.052h7.682L1085.651,1237.029z"/>
		<path d="M1114.848,1245.551h12.781v27.869h7.476v4.051h-20.677v-4.051h8.172v-23.818h-7.752V1245.551z M1122.67,1232.699
			c0.699-0.699,1.537-1.049,2.517-1.049c0.977,0,1.825,0.36,2.549,1.084c0.721,0.723,1.082,1.569,1.082,2.549
			c0,0.979-0.361,1.815-1.082,2.514c-0.724,0.699-1.572,1.049-2.549,1.049c-0.979,0-1.816-0.35-2.517-1.049
			c-0.697-0.697-1.047-1.535-1.047-2.514C1121.623,1234.26,1121.973,1233.396,1122.67,1232.699z"/>
		<path d="M1145.86,1247.297l-0.699-1.746h5.938c0,0.326-0.035,0.617-0.104,0.873c-0.07,0.256-0.104,0.479-0.104,0.664
			c0,0.094,0.021,0.162,0.068,0.209l9.291,23.328l5.168-11.873c1.117-2.561,2.025-4.936,2.725-7.125
			c0.697-2.188,1.232-4.213,1.605-6.076h4.541c-0.934,3.912-2.539,8.568-4.82,13.969l-7.752,18.16h-3.912L1145.86,1247.297z"/>
		<path d="M1195.379,1244.783c1.678,0,3.308,0.303,4.892,0.906c1.582,0.606,2.969,1.526,4.153,2.76
			c1.188,1.233,2.144,2.807,2.865,4.715c0.721,1.91,1.082,4.168,1.082,6.775c0,0.373-0.012,0.756-0.035,1.151
			c-0.022,0.396-0.059,0.779-0.104,1.152h-22.699c0.094,2.233,0.477,4.108,1.152,5.623c0.674,1.514,1.524,2.733,2.549,3.666
			c1.024,0.932,2.166,1.596,3.424,1.989c1.256,0.396,2.514,0.595,3.771,0.595c3.306,0,6.054-1.188,8.242-3.563l2.793,2.726
			c-2.701,3.26-6.426,4.889-11.176,4.889c-2.328,0-4.459-0.361-6.392-1.082c-1.932-0.721-3.573-1.781-4.924-3.178
			c-1.352-1.396-2.397-3.131-3.143-5.203c-0.746-2.072-1.117-4.437-1.117-7.09c0-2.699,0.383-5.101,1.152-7.193
			c0.768-2.096,1.813-3.854,3.143-5.272c1.326-1.42,2.875-2.504,4.646-3.248C1191.422,1245.156,1193.33,1244.783,1195.379,1244.783z
			 M1185.74,1258.193h17.53c0-0.185,0.013-0.355,0.035-0.519c0.023-0.16,0.035-0.354,0.035-0.584c0-1.146-0.221-2.237-0.664-3.27
			c-0.44-1.033-1.035-1.929-1.778-2.687c-0.746-0.758-1.619-1.365-2.621-1.824c-1-0.459-2.084-0.688-3.246-0.688
			c-2.189,0-4.168,0.771-5.938,2.307C1187.323,1252.466,1186.205,1254.888,1185.74,1258.193z"/>
		<path d="M1274.934,1243.818c0-0.547-0.069-0.957-0.209-1.232c-0.932-1.506-2.143-2.703-3.633-3.594
			c-1.49-0.89-3.072-1.334-4.748-1.334c-1.584,0-3.074,0.408-4.471,1.223c-1.397,0.815-2.631,2.002-3.701,3.563
			c-1.072,1.561-1.91,3.457-2.516,5.69c-0.606,2.234-0.908,4.773-0.908,7.613c0,2.748,0.303,5.25,0.908,7.508
			c0.604,2.26,1.454,4.191,2.549,5.799c1.094,1.605,2.375,2.853,3.842,3.736s3.039,1.326,4.715,1.326
			c1.724,0,3.39-0.488,4.994-1.469c1.607-0.98,2.897-2.308,3.877-3.979l3.631,2.375c-0.697,1.164-1.535,2.189-2.514,3.072
			c-0.979,0.885-2.015,1.631-3.107,2.235c-1.096,0.605-2.188,1.06-3.283,1.361c-1.096,0.303-2.2,0.453-3.317,0.453
			c-2.515,0-4.738-0.43-6.67-1.291c-1.935-0.861-3.701-2.201-5.31-4.016c-1.604-1.816-2.852-4.121-3.735-6.916
			c-0.886-2.793-1.328-6.123-1.328-9.988c0-4.283,0.514-7.857,1.537-10.721c1.022-2.864,2.375-5.156,4.051-6.881
			c1.678-1.722,3.459-2.943,5.344-3.666c1.887-0.722,3.713-1.082,5.482-1.082c1.442,0,2.852,0.209,4.227,0.629
			c1.373,0.418,2.654,1.002,3.842,1.746c1.188,0.743,2.246,1.641,3.179,2.688c0.932,1.049,1.676,2.225,2.233,3.527l-4.68,2.305
			C1275.028,1244.367,1274.934,1244.138,1274.934,1243.818z"/>
		<path d="M1299.801,1244.851c1.955,0,3.808,0.386,5.554,1.152c1.745,0.771,3.27,1.875,4.573,3.318
			c1.304,1.442,2.34,3.2,3.107,5.272c0.77,2.072,1.151,4.389,1.151,6.949c0,2.609-0.373,4.938-1.116,6.984
			c-0.744,2.051-1.771,3.807-3.072,5.272c-1.305,1.467-2.842,2.584-4.611,3.354c-1.77,0.768-3.653,1.151-5.655,1.151
			c-2.052,0-3.972-0.42-5.763-1.258c-1.795-0.838-3.364-1.99-4.715-3.457c-1.352-1.467-2.422-3.226-3.213-5.273
			c-0.793-2.049-1.188-4.26-1.188-6.635s0.405-4.61,1.223-6.705c0.813-2.096,1.908-3.877,3.281-5.344s2.969-2.631,4.785-3.492
			C1295.958,1245.281,1297.844,1244.851,1299.801,1244.851z M1309.16,1261.686c0-2.002-0.271-3.783-0.806-5.345
			c-0.534-1.559-1.245-2.875-2.129-3.946c-0.887-1.07-1.897-1.886-3.039-2.443c-1.141-0.559-2.34-0.838-3.598-0.838
			c-1.256,0-2.455,0.279-3.596,0.838c-1.143,0.559-2.143,1.373-3.004,2.443c-0.863,1.071-1.549,2.364-2.062,3.877
			c-0.514,1.514-0.768,3.225-0.768,5.135c0,1.86,0.254,3.561,0.768,5.098c0.513,1.537,1.197,2.863,2.062,3.982
			c0.86,1.117,1.873,1.979,3.037,2.584c1.164,0.604,2.397,0.908,3.703,0.908c1.303,0,2.524-0.269,3.666-0.806
			c1.141-0.533,2.143-1.326,3.004-2.373c0.86-1.049,1.537-2.34,2.024-3.877C1308.912,1265.386,1309.16,1263.64,1309.16,1261.686z"/>
		<path d="M1342.824,1250.23v-19.207h5.448c0,0.278-0.116,0.594-0.352,0.94c-0.232,0.351-0.348,0.688-0.348,1.015l0.069,41.559
			c0,1.117,0.115,2.096,0.351,2.934h-5.097c-0.188-0.559-0.282-1.35-0.282-2.375v-2.725c-1.021,1.771-2.414,3.178-4.179,4.227
			c-1.764,1.047-3.553,1.57-5.36,1.57c-1.765,0-3.424-0.348-4.979-1.047c-1.555-0.699-2.926-1.746-4.106-3.143
			c-1.187-1.398-2.125-3.154-2.82-5.273c-0.697-2.119-1.045-4.621-1.045-7.51c0-2.935,0.395-5.437,1.184-7.508
			c0.789-2.07,1.822-3.771,3.101-5.101c1.274-1.326,2.702-2.305,4.28-2.932c1.578-0.629,3.181-0.943,4.806-0.943
			c2.229,0,4.143,0.5,5.744,1.502C1340.839,1247.216,1342.035,1248.554,1342.824,1250.23z M1328.121,1251.145
			c-1.979,1.821-2.967,4.903-2.967,9.245c0,4.017,0.758,7.25,2.274,9.701c1.521,2.451,3.75,3.677,6.695,3.677
			c0.688,0,1.426-0.127,2.209-0.386c0.781-0.256,1.518-0.641,2.207-1.155c0.688-0.513,1.311-1.119,1.863-1.82
			c0.553-0.699,0.967-1.494,1.241-2.381c0.507-1.683,0.761-3.922,0.761-6.726c0-1.774-0.07-3.256-0.207-4.446
			c-0.14-1.191-0.355-2.207-0.656-3.047c-0.299-0.841-0.678-1.529-1.139-2.066c-0.462-0.537-1.035-1.014-1.726-1.437
			c-0.828-0.514-1.6-0.897-2.313-1.155c-0.714-0.256-1.392-0.386-2.035-0.386c-1.334,0-2.474,0.188-3.416,0.562
			C1329.971,1249.697,1329.041,1250.304,1328.121,1251.145z"/>
		<path d="M1359.309,1245.551h12.781v27.869h7.476v4.051h-20.677v-4.051h8.172v-23.818h-7.752V1245.551z M1367.131,1232.699
			c0.699-0.699,1.537-1.049,2.517-1.049c0.977,0,1.825,0.36,2.549,1.084c0.721,0.723,1.082,1.569,1.082,2.549
			c0,0.979-0.361,1.815-1.082,2.514c-0.724,0.699-1.572,1.049-2.549,1.049c-0.979,0-1.816-0.35-2.517-1.049
			c-0.697-0.697-1.047-1.535-1.047-2.514C1366.084,1234.26,1366.434,1233.396,1367.131,1232.699z"/>
		<path d="M1391.578,1277.47v-31.92h5.026v5.658c1.22-1.957,2.777-3.517,4.679-4.681c1.897-1.163,3.832-1.745,5.803-1.745
			c1.404,0,2.719,0.243,3.938,0.731c1.219,0.488,2.272,1.271,3.163,2.34c0.892,1.072,1.582,2.445,2.074,4.121s0.74,3.728,0.74,6.146
			v19.348h-5.029v-19.209c0-3.352-0.574-5.703-1.719-7.053c-1.146-1.353-2.539-2.027-4.176-2.027c-1.076,0-2.177,0.234-3.298,0.699
			c-1.123,0.467-2.141,1.129-3.053,1.99c-0.912,0.863-1.66,1.897-2.246,3.108c-0.584,1.212-0.877,2.584-0.877,4.121v18.369h-5.026
			V1277.47z"/>
		<path d="M1445.428,1247.576c2.236-1.908,4.892-2.863,7.963-2.863h0.908l0.629,4.189c-0.326-0.045-0.641-0.08-0.942-0.104
			c-0.303-0.024-0.617-0.035-0.943-0.035c-2.049,0-3.889,0.488-5.518,1.468c1.069,1.631,1.606,3.422,1.606,5.377
			c0,1.491-0.305,2.899-0.907,4.227c-0.605,1.328-1.433,2.492-2.48,3.492c-1.047,1.002-2.27,1.793-3.666,2.375
			s-2.889,0.873-4.471,0.873c-1.306,0-2.654-0.256-4.051-0.769c-1.49,1.443-2.234,2.654-2.234,3.632
			c0,0.793,0.453,1.409,1.361,1.852c0.907,0.443,2.151,0.664,3.735,0.664c0.885,0,1.781-0.035,2.689-0.105
			c0.907-0.069,1.758-0.104,2.549-0.104c2.096,0,3.899,0.199,5.414,0.594c1.512,0.396,2.733,0.955,3.666,1.678
			c0.932,0.722,1.629,1.57,2.096,2.55c0.465,0.979,0.699,2.024,0.699,3.143c0,1.258-0.306,2.479-0.908,3.668
			c-0.605,1.188-1.515,2.234-2.726,3.143c-1.211,0.909-2.735,1.629-4.573,2.164c-1.84,0.535-3.994,0.805-6.461,0.805
			c-2.563,0-4.763-0.198-6.603-0.594s-3.316-0.942-4.436-1.643c-1.117-0.697-1.968-1.502-2.549-2.408
			c-0.582-0.908-0.873-1.875-0.873-2.9c0-2.514,1.745-4.864,5.237-7.053c-1.723-0.885-2.584-2.352-2.584-4.399
			c0-2.002,1.211-4.005,3.634-6.009c-1.492-0.977-2.654-2.233-3.492-3.771c-0.84-1.537-1.258-3.166-1.258-4.89
			c0-1.582,0.323-3.063,0.979-4.436c0.65-1.373,1.523-2.572,2.619-3.598c1.094-1.023,2.35-1.826,3.771-2.41
			c1.421-0.58,2.875-0.873,4.365-0.873C1440.795,1244.502,1443.379,1245.527,1445.428,1247.576z M1432.996,1275.793
			c-2.654,1.492-3.982,3.119-3.982,4.891c0,0.931,0.269,1.711,0.806,2.34c0.532,0.63,1.256,1.142,2.164,1.537
			c0.907,0.396,1.979,0.687,3.213,0.873c1.233,0.187,2.524,0.279,3.877,0.279c2.84,0,5.19-0.514,7.055-1.537
			c1.861-1.024,2.793-2.397,2.793-4.121c-0.094-1.258-0.617-2.233-1.57-2.934c-0.955-0.699-2.457-1.047-4.506-1.047
			c-0.231,0-0.465,0.012-0.697,0.033c-0.233,0.024-0.467,0.035-0.698,0.035c-1.771,0-3.354-0.035-4.75-0.104
			C1435.301,1275.969,1434.067,1275.888,1432.996,1275.793z M1432.576,1250.638c-0.697,0.695-1.211,1.459-1.537,2.293
			s-0.488,1.715-0.488,2.644c0,0.926,0.187,1.817,0.56,2.676c0.373,0.857,0.873,1.598,1.502,2.223
			c0.629,0.627,1.373,1.123,2.233,1.494c0.861,0.371,1.759,0.557,2.689,0.557c0.979,0,1.887-0.186,2.725-0.557
			s1.582-0.879,2.234-1.527c0.651-0.647,1.164-1.391,1.537-2.225s0.559-1.715,0.559-2.641c0-0.928-0.187-1.818-0.559-2.676
			c-0.373-0.858-0.886-1.611-1.537-2.261c-0.652-0.646-1.408-1.155-2.271-1.526c-0.861-0.371-1.758-0.558-2.688-0.558
			C1435.625,1248.554,1433.973,1249.25,1432.576,1250.638z"/>
	</g>
</g>
<g id="Layer_3_copy" display="none">
	<g display="inline" enable-background="new    ">
		<path d="M693.646,1243.818c0-0.547-0.069-0.957-0.209-1.232c-0.932-1.506-2.143-2.703-3.632-3.594
			c-1.491-0.89-3.072-1.334-4.75-1.334c-1.583,0-3.072,0.408-4.47,1.223c-1.396,0.814-2.631,2.002-3.702,3.563
			c-1.072,1.561-1.91,3.457-2.515,5.69c-0.605,2.234-0.908,4.773-0.908,7.613c0,2.748,0.302,5.25,0.908,7.508
			c0.604,2.26,1.455,4.191,2.55,5.799c1.093,1.605,2.375,2.853,3.841,3.736s3.039,1.326,4.715,1.326
			c1.723,0,3.388-0.488,4.994-1.469c1.607-0.981,2.899-2.308,3.876-3.979l3.632,2.375c-0.698,1.164-1.536,2.189-2.515,3.072
			c-0.978,0.885-2.015,1.631-3.108,2.235c-1.095,0.605-2.188,1.06-3.282,1.361c-1.095,0.303-2.2,0.453-3.317,0.453
			c-2.515,0-4.739-0.43-6.67-1.291c-1.933-0.861-3.702-2.201-5.308-4.016c-1.606-1.816-2.854-4.121-3.737-6.916
			c-0.885-2.793-1.327-6.123-1.327-9.988c0-4.283,0.512-7.857,1.537-10.721c1.022-2.863,2.375-5.156,4.051-6.881
			c1.676-1.722,3.458-2.943,5.343-3.666c1.887-0.722,3.714-1.082,5.483-1.082c1.443,0,2.852,0.209,4.226,0.629
			c1.373,0.418,2.654,1.002,3.842,1.746c1.187,0.743,2.246,1.641,3.178,2.688c0.931,1.049,1.676,2.225,2.234,3.527l-4.68,2.305
			C693.739,1244.367,693.646,1244.138,693.646,1243.818z"/>
		<path d="M707.684,1245.551h5.169l-0.14,6.146c0.981-2.234,2.535-3.947,4.661-5.135c2.126-1.188,4.403-1.779,6.834-1.779
			c3.457,0,6.307,1.164,8.551,3.492l-2.305,4.817c-0.515-0.699-0.982-1.279-1.402-1.746c-0.421-0.465-0.876-0.86-1.367-1.188
			c-0.491-0.324-1.029-0.582-1.613-0.769c-0.585-0.186-1.298-0.278-2.139-0.278c-1.544,0-2.992,0.36-4.349,1.082
			c-1.354,0.723-2.537,1.676-3.541,2.862c-1.005,1.188-1.812,2.549-2.419,4.086s-0.911,3.144-0.911,4.82v15.576h-5.028
			L707.684,1245.551L707.684,1245.551z"/>
		<path d="M753.783,1244.783c1.676,0,3.306,0.303,4.889,0.906c1.583,0.606,2.968,1.526,4.156,2.76
			c1.188,1.233,2.141,2.807,2.864,4.715c0.721,1.91,1.083,4.168,1.083,6.775c0,0.373-0.013,0.756-0.035,1.151
			c-0.024,0.396-0.06,0.779-0.104,1.152h-22.699c0.093,2.233,0.477,4.108,1.152,5.623c0.674,1.514,1.524,2.733,2.549,3.666
			c1.023,0.932,2.165,1.596,3.422,1.989c1.258,0.396,2.515,0.595,3.771,0.595c3.306,0,6.053-1.188,8.242-3.563l2.793,2.726
			c-2.701,3.26-6.426,4.889-11.175,4.889c-2.329,0-4.459-0.361-6.392-1.082s-3.573-1.781-4.924-3.178s-2.398-3.131-3.143-5.203
			c-0.746-2.072-1.118-4.437-1.118-7.09c0-2.699,0.384-5.101,1.151-7.193c0.77-2.096,1.816-3.854,3.144-5.272
			c1.327-1.42,2.875-2.504,4.645-3.248C749.825,1245.156,751.734,1244.783,753.783,1244.783z M744.144,1258.193h17.532
			c0-0.185,0.011-0.355,0.035-0.519c0.023-0.16,0.035-0.354,0.035-0.584c0-1.146-0.222-2.237-0.664-3.27
			c-0.443-1.033-1.037-1.929-1.781-2.687c-0.745-0.758-1.618-1.365-2.619-1.824c-1.002-0.459-2.084-0.688-3.248-0.688
			c-2.188,0-4.167,0.771-5.937,2.307C745.727,1252.467,744.61,1254.888,744.144,1258.193z"/>
		<path d="M776.972,1249.322c2.84-2.979,6.636-4.471,11.386-4.471c3.911,0,6.995,0.989,9.255,2.969
			c2.258,1.979,3.387,5.272,3.387,9.883v19.768h-4.75v-3.491c-3.399,2.84-7.218,4.26-11.455,4.26c-1.676,0-3.178-0.256-4.505-0.769
			c-1.327-0.512-2.457-1.188-3.388-2.024c-0.933-0.838-1.643-1.793-2.131-2.865c-0.488-1.069-0.732-2.141-0.732-3.213
			c0-3.213,1.385-5.75,4.156-7.613c2.77-1.86,6.763-2.885,11.979-3.071h6.006v-1.195c0-3.189-0.664-5.418-1.989-6.684
			c-1.327-1.267-3.389-1.9-6.183-1.9c-3.445,0-6.31,1.213-8.591,3.633L776.972,1249.322z M796.389,1262.523h-1.188
			c-0.653,0-1.271-0.013-1.852-0.035c-0.583-0.023-1.151-0.035-1.711-0.035c-2.561,0-4.656,0.174-6.286,0.522
			c-1.63,0.351-2.909,0.828-3.841,1.433c-0.932,0.606-1.571,1.293-1.921,2.061c-0.349,0.771-0.523,1.596-0.523,2.48
			c0,1.489,0.651,2.771,1.955,3.842c1.304,1.07,2.909,1.604,4.819,1.604c1.397,0,2.654-0.221,3.771-0.661
			c1.117-0.443,2.096-0.979,2.934-1.607c0.838-0.629,1.513-1.279,2.025-1.955c0.512-0.676,0.884-1.27,1.118-1.781
			c0.465-0.932,0.698-2.188,0.698-3.771V1262.523L796.389,1262.523z"/>
		<path d="M818.67,1237.029l5.448-0.908c0,0.42-0.06,0.793-0.175,1.117c-0.117,0.326-0.198,0.584-0.244,0.77l-0.838,7.543h10.477
			v4.051h-10.477c-0.419,4.171-0.628,8.08-0.628,11.732c0,2.248,0.046,4.146,0.14,5.691c0.094,1.547,0.339,2.764,0.738,3.654
			c0.396,0.889,0.971,1.579,1.72,2.071s1.754,0.736,3.018,0.736c2.152,0,4.539-0.978,7.159-2.935l1.544,3.982
			c-3.213,2.375-6.52,3.563-9.918,3.563c-3.353,0-5.797-1.017-7.334-3.048c-1.537-2.028-2.234-5.332-2.096-9.905
			c0-1.683,0.046-3.828,0.14-6.441c0.093-2.615,0.279-5.647,0.56-9.104h-7.475v-4.052h7.684L818.67,1237.029z"/>
		<path d="M847.866,1245.551h12.782v27.869h7.474v4.051h-20.675v-4.051h8.172v-23.818h-7.753V1245.551z M855.689,1232.699
			c0.697-0.699,1.536-1.049,2.514-1.049s1.827,0.36,2.55,1.084c0.721,0.723,1.083,1.569,1.083,2.549
			c0,0.979-0.361,1.815-1.083,2.514c-0.723,0.699-1.572,1.049-2.55,1.049c-0.979,0-1.816-0.35-2.514-1.049
			c-0.699-0.697-1.049-1.535-1.049-2.514C854.641,1234.26,854.99,1233.396,855.689,1232.699z"/>
		<path d="M878.877,1247.297l-0.698-1.746h5.938c0,0.326-0.035,0.617-0.105,0.873c-0.069,0.256-0.104,0.479-0.104,0.664
			c0,0.094,0.022,0.162,0.069,0.209l9.289,23.328l5.17-11.873c1.117-2.561,2.024-4.936,2.724-7.125
			c0.698-2.188,1.232-4.213,1.605-6.076h4.54c-0.932,3.912-2.538,8.568-4.818,13.969l-7.753,18.16h-3.911L878.877,1247.297z"/>
		<path d="M928.399,1244.783c1.676,0,3.306,0.303,4.889,0.906c1.583,0.606,2.968,1.526,4.156,2.76
			c1.188,1.233,2.141,2.807,2.863,4.715c0.722,1.91,1.083,4.168,1.083,6.775c0,0.373-0.012,0.756-0.034,1.151
			c-0.024,0.396-0.06,0.779-0.104,1.152h-22.7c0.094,2.233,0.478,4.108,1.153,5.623c0.674,1.514,1.524,2.733,2.549,3.666
			c1.023,0.932,2.165,1.596,3.422,1.989c1.257,0.396,2.515,0.595,3.771,0.595c3.306,0,6.053-1.188,8.242-3.563l2.793,2.726
			c-2.701,3.26-6.427,4.889-11.176,4.889c-2.328,0-4.459-0.361-6.391-1.082c-1.933-0.721-3.574-1.781-4.924-3.178
			c-1.352-1.396-2.399-3.131-3.144-5.203c-0.745-2.072-1.117-4.437-1.117-7.09c0-2.699,0.384-5.101,1.151-7.193
			c0.77-2.096,1.816-3.854,3.144-5.272c1.327-1.42,2.875-2.504,4.645-3.248S926.349,1244.783,928.399,1244.783z M918.76,1258.193
			h17.532c0-0.185,0.011-0.355,0.035-0.519c0.022-0.16,0.035-0.354,0.035-0.584c0-1.146-0.223-2.237-0.664-3.27
			c-0.443-1.033-1.037-1.929-1.781-2.687c-0.745-0.758-1.618-1.365-2.619-1.824c-1.002-0.459-2.084-0.688-3.248-0.688
			c-2.188,0-4.167,0.771-5.937,2.307C920.342,1252.467,919.225,1254.888,918.76,1258.193z"/>
		<path d="M1007.953,1243.818c0-0.547-0.07-0.957-0.209-1.232c-0.933-1.506-2.144-2.703-3.632-3.594
			c-1.491-0.89-3.073-1.334-4.75-1.334c-1.583,0-3.073,0.408-4.471,1.223c-1.396,0.814-2.631,2.002-3.701,3.563
			c-1.072,1.561-1.91,3.457-2.516,5.69c-0.604,2.234-0.908,4.773-0.908,7.613c0,2.748,0.303,5.25,0.908,7.508
			c0.605,2.26,1.455,4.191,2.55,5.799c1.094,1.605,2.375,2.853,3.842,3.736c1.466,0.884,3.038,1.326,4.715,1.326
			c1.722,0,3.387-0.488,4.994-1.469c1.606-0.981,2.898-2.308,3.876-3.979l3.632,2.375c-0.699,1.164-1.537,2.189-2.516,3.072
			c-0.978,0.885-2.015,1.631-3.107,2.235c-1.095,0.605-2.189,1.06-3.283,1.361c-1.094,0.303-2.2,0.453-3.317,0.453
			c-2.515,0-4.738-0.43-6.67-1.291c-1.933-0.861-3.701-2.201-5.308-4.016c-1.606-1.816-2.853-4.121-3.737-6.916
			c-0.885-2.793-1.327-6.123-1.327-9.988c0-4.283,0.513-7.857,1.537-10.721c1.023-2.863,2.375-5.156,4.052-6.881
			c1.676-1.722,3.458-2.943,5.343-3.666c1.886-0.722,3.713-1.082,5.482-1.082c1.443,0,2.853,0.209,4.227,0.629
			c1.373,0.418,2.653,1.002,3.841,1.746c1.188,0.743,2.246,1.641,3.178,2.688c0.932,1.049,1.676,2.225,2.235,3.527l-4.68,2.305
			C1008.046,1244.367,1007.953,1244.138,1007.953,1243.818z"/>
		<path d="M1032.818,1244.851c1.956,0,3.807,0.386,5.553,1.152c1.747,0.771,3.271,1.875,4.575,3.318
			c1.303,1.442,2.34,3.2,3.107,5.272c0.77,2.072,1.153,4.389,1.153,6.949c0,2.609-0.374,4.938-1.118,6.984
			c-0.746,2.051-1.77,3.807-3.073,5.272c-1.304,1.467-2.841,2.584-4.609,3.354c-1.771,0.768-3.656,1.151-5.658,1.151
			c-2.049,0-3.97-0.42-5.762-1.258c-1.793-0.838-3.365-1.99-4.714-3.457c-1.352-1.467-2.423-3.226-3.214-5.273
			c-0.792-2.049-1.188-4.26-1.188-6.635s0.407-4.61,1.222-6.705c0.814-2.096,1.909-3.877,3.283-5.344
			c1.373-1.467,2.969-2.631,4.785-3.492C1028.978,1245.281,1030.863,1244.851,1032.818,1244.851z M1042.177,1261.686
			c0-2.002-0.268-3.783-0.803-5.345c-0.536-1.559-1.246-2.875-2.13-3.946c-0.885-1.07-1.898-1.886-3.039-2.443
			c-1.142-0.559-2.34-0.838-3.597-0.838c-1.258,0-2.457,0.279-3.598,0.838s-2.142,1.373-3.003,2.443
			c-0.862,1.071-1.549,2.364-2.061,3.877c-0.514,1.514-0.77,3.225-0.77,5.135c0,1.86,0.255,3.561,0.77,5.098
			c0.512,1.537,1.198,2.863,2.061,3.982c0.861,1.117,1.874,1.979,3.038,2.584c1.164,0.604,2.396,0.908,3.702,0.908
			c1.303,0,2.524-0.269,3.667-0.806c1.141-0.533,2.141-1.326,3.003-2.373c0.861-1.049,1.537-2.34,2.025-3.877
			C1041.933,1265.386,1042.177,1263.64,1042.177,1261.686z"/>
		<path d="M1075.844,1250.23v-19.207h5.447c0,0.278-0.117,0.594-0.35,0.94c-0.234,0.351-0.351,0.688-0.351,1.015l0.07,41.559
			c0,1.117,0.116,2.096,0.35,2.934h-5.094c-0.189-0.559-0.285-1.35-0.285-2.375v-2.725c-1.021,1.771-2.414,3.178-4.178,4.227
			c-1.764,1.047-3.552,1.57-5.361,1.57c-1.764,0-3.424-0.348-4.979-1.047c-1.556-0.699-2.926-1.746-4.107-3.143
			c-1.185-1.398-2.124-3.154-2.82-5.273c-0.695-2.119-1.045-4.621-1.045-7.51c0-2.935,0.396-5.437,1.185-7.508
			c0.789-2.07,1.821-3.771,3.1-5.101c1.276-1.326,2.704-2.305,4.282-2.932c1.578-0.629,3.179-0.943,4.804-0.943
			c2.229,0,4.144,0.5,5.745,1.502C1073.858,1247.217,1075.053,1248.554,1075.844,1250.23z M1061.139,1251.145
			c-1.979,1.821-2.967,4.903-2.967,9.245c0,4.017,0.759,7.25,2.277,9.701c1.518,2.451,3.749,3.677,6.692,3.677
			c0.689,0,1.428-0.127,2.209-0.386c0.781-0.256,1.519-0.641,2.208-1.155c0.689-0.513,1.312-1.119,1.862-1.82
			c0.553-0.699,0.967-1.494,1.242-2.381c0.507-1.683,0.76-3.922,0.76-6.726c0-1.774-0.07-3.256-0.207-4.446
			c-0.138-1.191-0.354-2.207-0.654-3.047c-0.3-0.841-0.68-1.529-1.141-2.066c-0.46-0.537-1.035-1.014-1.725-1.437
			c-0.828-0.514-1.601-0.897-2.313-1.155c-0.714-0.256-1.392-0.386-2.036-0.386c-1.334,0-2.473,0.188-3.416,0.562
			C1062.991,1249.697,1062.06,1250.304,1061.139,1251.145z"/>
		<path d="M1092.327,1245.551h12.782v27.869h7.473v4.051h-20.674v-4.051h8.172v-23.818h-7.753V1245.551z M1100.151,1232.699
			c0.696-0.699,1.535-1.049,2.514-1.049s1.827,0.36,2.55,1.084c0.723,0.723,1.083,1.569,1.083,2.549c0,0.979-0.36,1.815-1.083,2.514
			c-0.723,0.699-1.571,1.049-2.55,1.049s-1.816-0.35-2.514-1.049c-0.699-0.697-1.049-1.535-1.049-2.514
			C1099.103,1234.26,1099.451,1233.396,1100.151,1232.699z"/>
		<path d="M1124.596,1277.47v-31.92h5.029v5.658c1.218-1.957,2.777-3.517,4.676-4.681c1.899-1.163,3.833-1.745,5.804-1.745
			c1.405,0,2.719,0.243,3.938,0.731s2.275,1.271,3.165,2.34c0.891,1.072,1.583,2.445,2.075,4.121s0.738,3.728,0.738,6.146v19.348
			h-5.029v-19.209c0-3.352-0.572-5.703-1.719-7.053c-1.146-1.353-2.538-2.027-4.177-2.027c-1.075,0-2.174,0.234-3.297,0.699
			c-1.123,0.467-2.14,1.129-3.052,1.99c-0.913,0.863-1.661,1.897-2.246,3.108c-0.585,1.212-0.876,2.584-0.876,4.121v18.369h-5.029
			V1277.47z"/>
		<path d="M1178.448,1247.576c2.234-1.908,4.89-2.863,7.963-2.863h0.907l0.629,4.189c-0.326-0.045-0.642-0.08-0.942-0.104
			c-0.304-0.022-0.618-0.035-0.943-0.035c-2.05,0-3.889,0.488-5.518,1.468c1.07,1.631,1.606,3.422,1.606,5.377
			c0,1.491-0.305,2.899-0.908,4.227c-0.605,1.328-1.433,2.492-2.479,3.492c-1.048,1.002-2.271,1.793-3.667,2.375
			c-1.396,0.582-2.888,0.873-4.47,0.873c-1.305,0-2.654-0.256-4.052-0.769c-1.49,1.443-2.234,2.654-2.234,3.632
			c0,0.793,0.453,1.409,1.361,1.852c0.908,0.443,2.153,0.664,3.737,0.664c0.884,0,1.78-0.035,2.688-0.105
			c0.908-0.069,1.758-0.104,2.55-0.104c2.097,0,3.899,0.199,5.413,0.594c1.514,0.396,2.734,0.955,3.667,1.678
			c0.932,0.722,1.629,1.57,2.095,2.55c0.467,0.979,0.699,2.024,0.699,3.143c0,1.258-0.304,2.479-0.908,3.668
			c-0.604,1.188-1.514,2.234-2.724,3.143c-1.212,0.908-2.735,1.629-4.575,2.164s-3.992,0.805-6.461,0.805
			c-2.562,0-4.762-0.198-6.601-0.594c-1.84-0.396-3.317-0.942-4.437-1.643c-1.116-0.697-1.967-1.502-2.549-2.408
			c-0.583-0.908-0.873-1.875-0.873-2.9c0-2.514,1.746-4.864,5.238-7.053c-1.724-0.885-2.584-2.352-2.584-4.399
			c0-2.002,1.21-4.005,3.632-6.009c-1.491-0.977-2.654-2.233-3.492-3.771c-0.839-1.537-1.258-3.166-1.258-4.89
			c0-1.582,0.325-3.063,0.979-4.436c0.65-1.373,1.523-2.572,2.619-3.598c1.094-1.023,2.351-1.826,3.771-2.41
			c1.42-0.58,2.875-0.873,4.365-0.873C1173.813,1244.502,1176.397,1245.527,1178.448,1247.576z M1166.015,1275.793
			c-2.653,1.492-3.98,3.119-3.98,4.891c0,0.931,0.268,1.711,0.804,2.34c0.534,0.63,1.257,1.142,2.165,1.537s1.979,0.687,3.213,0.873
			s2.525,0.279,3.877,0.279c2.839,0,5.191-0.514,7.055-1.537c1.861-1.024,2.793-2.397,2.793-4.121
			c-0.094-1.258-0.616-2.233-1.57-2.934c-0.955-0.699-2.457-1.047-4.505-1.047c-0.233,0-0.466,0.012-0.698,0.033
			c-0.234,0.024-0.467,0.035-0.699,0.035c-1.77,0-3.353-0.035-4.749-0.104C1168.32,1275.969,1167.085,1275.888,1166.015,1275.793z
			 M1165.596,1250.638c-0.698,0.695-1.211,1.459-1.537,2.293c-0.325,0.834-0.487,1.715-0.487,2.644c0,0.926,0.186,1.817,0.559,2.676
			c0.372,0.857,0.873,1.598,1.502,2.223c0.628,0.627,1.373,1.123,2.234,1.494c0.86,0.371,1.758,0.557,2.688,0.557
			c0.979,0,1.886-0.186,2.724-0.557c0.84-0.371,1.584-0.879,2.235-1.527c0.651-0.647,1.163-1.391,1.537-2.225
			c0.372-0.834,0.559-1.715,0.559-2.641c0-0.928-0.187-1.818-0.559-2.676c-0.374-0.857-0.886-1.611-1.537-2.261
			c-0.651-0.646-1.409-1.155-2.27-1.526c-0.862-0.371-1.76-0.558-2.689-0.558C1168.646,1248.554,1166.992,1249.25,1165.596,1250.638
			z"/>
		<path d="M1226.397,1233.886h5.027l11.246,33.455l10.546-33.385h4.819l-14.599,43.793h-2.233L1226.397,1233.886z"/>
		<path d="M1277.628,1244.783c1.677,0,3.307,0.303,4.891,0.906c1.582,0.606,2.969,1.526,4.154,2.76
			c1.188,1.233,2.143,2.807,2.864,4.715c0.722,1.91,1.082,4.168,1.082,6.775c0,0.373-0.012,0.756-0.034,1.151
			c-0.023,0.396-0.06,0.779-0.104,1.152h-22.699c0.093,2.233,0.477,4.108,1.151,5.623c0.675,1.514,1.524,2.733,2.55,3.666
			c1.024,0.932,2.166,1.596,3.423,1.989c1.257,0.396,2.515,0.595,3.771,0.595c3.307,0,6.054-1.188,8.242-3.563l2.794,2.726
			c-2.701,3.26-6.426,4.889-11.176,4.889c-2.329,0-4.459-0.361-6.392-1.082s-3.573-1.781-4.925-3.178
			c-1.351-1.397-2.397-3.131-3.143-5.203s-1.117-4.437-1.117-7.09c0-2.699,0.384-5.101,1.152-7.193
			c0.768-2.096,1.814-3.854,3.143-5.272s2.875-2.504,4.645-3.248C1273.67,1245.156,1275.579,1244.783,1277.628,1244.783z
			 M1267.99,1258.193h17.53c0-0.185,0.013-0.355,0.035-0.519c0.023-0.16,0.035-0.354,0.035-0.584c0-1.146-0.222-2.237-0.664-3.27
			c-0.441-1.033-1.035-1.929-1.779-2.687c-0.746-0.758-1.619-1.365-2.62-1.824s-2.084-0.688-3.247-0.688
			c-2.189,0-4.168,0.771-5.938,2.307C1269.572,1252.466,1268.454,1254.888,1267.99,1258.193z"/>
		<path d="M1301.376,1245.551h5.168l-0.14,6.146c0.98-2.234,2.534-3.947,4.661-5.135c2.125-1.188,4.403-1.779,6.834-1.779
			c3.457,0,6.308,1.164,8.551,3.492l-2.306,4.817c-0.515-0.699-0.981-1.279-1.401-1.746c-0.421-0.465-0.876-0.86-1.367-1.188
			c-0.491-0.324-1.029-0.582-1.613-0.769c-0.585-0.186-1.298-0.278-2.139-0.278c-1.544,0-2.993,0.36-4.35,1.082
			c-1.354,0.723-2.535,1.676-3.539,2.862c-1.006,1.188-1.813,2.549-2.421,4.086c-0.606,1.537-0.911,3.144-0.911,4.82v15.576h-5.027
			V1245.551L1301.376,1245.551z"/>
		<path d="M1347.126,1244.851c1.955,0,3.807,0.386,5.553,1.152c1.746,0.771,3.271,1.875,4.574,3.318
			c1.303,1.442,2.34,3.2,3.108,5.272c0.768,2.072,1.151,4.389,1.151,6.949c0,2.609-0.373,4.938-1.117,6.984
			c-0.744,2.051-1.771,3.807-3.072,5.272c-1.305,1.467-2.841,2.584-4.61,3.354c-1.77,0.768-3.655,1.151-5.657,1.151
			c-2.05,0-3.97-0.42-5.762-1.258c-1.794-0.838-3.365-1.99-4.715-3.457c-1.352-1.467-2.422-3.226-3.213-5.273
			c-0.793-2.049-1.188-4.26-1.188-6.635s0.407-4.61,1.224-6.705c0.813-2.096,1.908-3.877,3.281-5.344s2.97-2.631,4.784-3.492
			C1343.284,1245.283,1345.17,1244.851,1347.126,1244.851z M1356.486,1261.686c0-2.002-0.27-3.783-0.805-5.345
			c-0.536-1.559-1.245-2.875-2.13-3.946c-0.886-1.07-1.897-1.886-3.038-2.443c-1.142-0.559-2.34-0.838-3.598-0.838
			c-1.257,0-2.456,0.279-3.597,0.838c-1.143,0.559-2.144,1.373-3.004,2.443c-0.862,1.071-1.55,2.364-2.062,3.877
			c-0.513,1.514-0.768,3.225-0.768,5.135c0,1.86,0.255,3.561,0.768,5.098c0.512,1.537,1.198,2.863,2.062,3.982
			c0.86,1.117,1.873,1.979,3.037,2.584c1.164,0.604,2.398,0.908,3.702,0.908c1.305,0,2.525-0.269,3.667-0.806
			c1.142-0.533,2.143-1.326,3.004-2.373c0.86-1.049,1.536-2.34,2.025-3.877S1356.486,1263.64,1356.486,1261.686z"/>
		<path d="M1369.058,1277.47v-31.92h5.028v5.658c1.218-1.957,2.777-3.517,4.677-4.681c1.898-1.163,3.833-1.745,5.803-1.745
			c1.405,0,2.72,0.243,3.938,0.731s2.274,1.271,3.165,2.34c0.891,1.072,1.582,2.445,2.074,4.121s0.738,3.728,0.738,6.146v19.348
			h-5.028v-19.209c0-3.352-0.573-5.703-1.72-7.053c-1.146-1.353-2.537-2.027-4.176-2.027c-1.076,0-2.175,0.234-3.297,0.699
			c-1.123,0.467-2.14,1.129-3.053,1.99c-0.912,0.863-1.66,1.897-2.245,3.108c-0.585,1.212-0.877,2.584-0.877,4.121v18.369h-5.028
			V1277.47z"/>
		<path d="M1405.587,1249.322c2.839-2.979,6.635-4.471,11.385-4.471c3.911,0,6.995,0.989,9.254,2.969
			c2.26,1.979,3.389,5.272,3.389,9.883v19.768h-4.749v-3.491c-3.399,2.84-7.22,4.26-11.455,4.26c-1.676,0-3.178-0.256-4.505-0.769
			c-1.327-0.512-2.457-1.188-3.389-2.024c-0.932-0.838-1.642-1.793-2.13-2.865c-0.488-1.069-0.732-2.141-0.732-3.213
			c0-3.213,1.385-5.75,4.155-7.613c2.77-1.86,6.764-2.885,11.979-3.071h6.007v-1.195c0-3.189-0.663-5.418-1.99-6.684
			c-1.327-1.267-3.388-1.9-6.182-1.9c-3.446,0-6.312,1.213-8.591,3.633L1405.587,1249.322z M1425.004,1262.523h-1.188
			c-0.652,0-1.271-0.013-1.852-0.035c-0.583-0.023-1.152-0.035-1.712-0.035c-2.562,0-4.656,0.174-6.286,0.522
			c-1.63,0.35-2.91,0.828-3.842,1.433c-0.932,0.606-1.571,1.293-1.92,2.061c-0.351,0.771-0.524,1.596-0.524,2.48
			c0,1.489,0.651,2.771,1.956,3.842c1.304,1.07,2.909,1.604,4.819,1.604c1.396,0,2.654-0.221,3.771-0.661
			c1.117-0.443,2.097-0.979,2.935-1.607s1.513-1.279,2.024-1.955c0.513-0.676,0.885-1.27,1.118-1.781
			c0.465-0.932,0.698-2.188,0.698-3.771v-2.097H1425.004z"/>
	</g>
</g>
<g id="Layer_1_1_">
	<g>
		<rect x="592.099" y="1028.479" transform="matrix(1 0.0022 -0.0022 1 2.3171 -1.3282)" width="19.432" height="37.44"/>
		<rect x="689.273" y="1028.691" transform="matrix(-1 -0.0023 0.0023 -1 1395.553 2096.4346)" width="19.43" height="37.439"/>
		<path d="M400.06,939.993v205h1300.001v-205H400.06L400.06,939.993z M533.811,1027.565l-38.858-0.087l-0.091,38.995l38.862,0.088
			l-0.046,19.494l-58.29-0.133l0.179-77.99l58.29,0.133L533.811,1027.565z M630.83,1086.281l-58.289-0.134l0.179-77.992
			l58.293,0.135L630.83,1086.281z M728.023,1067.009l-19.426-0.045l-0.046,19.498l-38.862-0.091l0.179-77.993l38.862,0.089
			l-0.046,19.501l19.427,0.042L728.023,1067.009z M786.27,1086.636l-19.427-0.042l0.179-77.994l19.43,0.045L786.27,1086.636z
			 M883.558,1028.367l-38.858-0.091l-0.092,38.998l38.865,0.088l-0.048,19.498l-58.29-0.133l0.176-77.995l58.297,0.134
			L883.558,1028.367z M980.71,1028.588l-38.862-0.086l-0.043,19.494l19.428,0.045l-0.045,19.495l19.43,0.048l-0.045,19.498
			l-58.293-0.133l0.184-77.995l58.288,0.134L980.71,1028.588z M1097.156,1087.348l-19.428-0.048l0.18-77.993l19.429,0.049
			L1097.156,1087.348z M1194.309,1087.57l-19.43-0.046l0.133-58.493l-19.432-0.043l-0.133,58.495l-19.432-0.05l0.183-77.991
			l58.29,0.133L1194.309,1087.57z M1291.457,1087.793l-58.291-0.135l0.181-77.993l19.431,0.048l-0.133,58.496l19.427,0.045
			l0.133-58.495l19.433,0.043L1291.457,1087.793z M1388.742,1029.522l-19.431-0.047l-0.133,58.491l-19.428-0.046l0.134-58.493
			l-19.432-0.042l0.05-19.501l58.289,0.134L1388.742,1029.522z M1446.903,1088.15l-19.431-0.05l0.182-77.99l19.431,0.046
			L1446.903,1088.15z M1544.053,1088.375l-58.29-0.135l0.183-77.994l19.428,0.045l-0.134,58.497l38.861,0.089L1544.053,1088.375z
			 M1641.338,1030.1l-38.863-0.087l-0.042,19.496l19.431,0.046l-0.048,19.498l19.438,0.042l-0.045,19.495l-58.291-0.135l0.18-77.993
			l58.289,0.134L1641.338,1030.1z"/>
	</g>
</g>
<text transform="matrix(1 0 0 1 622.7764 1243.6719)" font-family="'Inconsolata'" font-size="77.677">Creative Coding Milano</text>
</svg>
