<?xml version="1.0" encoding="utf-8"?>
<!-- Generator: Adobe Illustrator 16.0.0, SVG Export Plug-In . SVG Version: 6.00 Build 0)  -->
<!DOCTYPE svg PUBLIC "-//W3C//DTD SVG 1.1//EN" "http://www.w3.org/Graphics/SVG/1.1/DTD/svg11.dtd">
<svg version="1.1" xmlns="http://www.w3.org/2000/svg" xmlns:xlink="http://www.w3.org/1999/xlink" x="0px" y="0px" viewBox="0 0 2100 2200" enable-background="new 0 0 2100 2200" xml:space="preserve">
<g id="logotipo" class="scuro">
	<rect x="592.099" y="1028.478" transform="matrix(1 0.0022 -0.0022 1 2.3171 -1.3282)" width="19.432" height="37.441"/>
	<rect x="689.273" y="1028.691" transform="matrix(-1 -0.0023 0.0023 -1 1395.553 2096.4346)" width="19.43" height="37.439"/>
	<path d="M400.06,939.993v205h1300.001v-205H400.06L400.06,939.993z M533.811,1027.564l-38.856-0.088l-0.091,38.995l38.86,0.088
		l-0.046,19.494l-58.29-0.133l0.181-77.99l58.288,0.133L533.811,1027.564z M630.83,1086.281l-58.289-0.135l0.179-77.991
		l58.293,0.135L630.83,1086.281z M728.023,1067.009l-19.428-0.045l-0.046,19.498l-38.861-0.091l0.18-77.993l38.861,0.089
		l-0.047,19.501l19.429,0.042L728.023,1067.009z M786.271,1086.636l-19.428-0.042l0.181-77.994l19.43,0.045L786.271,1086.636z
		 M883.558,1028.367l-38.856-0.091l-0.092,38.998l38.863,0.088l-0.048,19.498l-58.29-0.134l0.178-77.994l58.297,0.134
		L883.558,1028.367z M980.71,1028.588l-38.862-0.086l-0.043,19.494l19.43,0.045l-0.045,19.495l19.43,0.048l-0.045,19.498
		l-58.293-0.133l0.184-77.995l58.288,0.134L980.71,1028.588z M1097.156,1087.348l-19.429-0.048l0.181-77.993l19.429,0.051
		L1097.156,1087.348z M1194.309,1087.57l-19.43-0.047l0.133-58.492l-19.432-0.043l-0.133,58.494l-19.434-0.051l0.185-77.99
		l58.29,0.134L1194.309,1087.57z M1291.457,1087.793l-58.291-0.135l0.181-77.993l19.433,0.048l-0.134,58.496l19.428,0.045
		l0.133-58.495l19.433,0.043L1291.457,1087.793z M1388.742,1029.521l-19.433-0.048l-0.133,58.491l-19.428-0.046l0.134-58.493
		l-19.432-0.042l0.05-19.501l58.289,0.134L1388.742,1029.521z M1446.903,1088.15l-19.433-0.052l0.184-77.988l19.431,0.046
		L1446.903,1088.15z M1544.053,1088.375l-58.29-0.135l0.185-77.994l19.428,0.045l-0.134,58.497l38.859,0.089L1544.053,1088.375z
		 M1641.338,1030.1l-38.863-0.087l-0.042,19.496l19.433,0.046l-0.048,19.498l19.438,0.042l-0.045,19.495l-58.291-0.135l0.18-77.993
		l58.289,0.134L1641.338,1030.1z"/>
</g>
<g id="payoff" class="scuro">
	<polygon points="624.609,1199.829 634.196,1199.829 634.196,1195.27 634.196,1195.268 610.196,1195.268 610.196,1199.828 
		619.179,1199.828 619.179,1239.18 609.659,1239.18 609.659,1243.74 634.665,1243.74 634.665,1239.248 624.609,1239.248 	"/>
	<path d="M667.029,1239.203c-2.649,0-5.403-1.466-5.972-5.729c-0.042-0.312-0.228-1.677-0.228-6.821
		c0-4.64,0.224-9.273,0.673-13.887h11.665v-4.626H661.57c0,0,0.536-6.392,0.9-8.358c0.154-0.832,0.713-1.313,0.44-2.1l-6.1,1.007
		l-0.67,9.52h-8.447l-0.067,4.559h8.313c-0.495,6.077-0.737,12.118-0.737,18.145c0,3.183,0.029,6.75,2.094,9.66
		c1.684,2.372,4.456,3.779,8.081,3.779c4.226,0,8.343-1.767,11.344-3.964l-1.742-4.425
		C671.967,1238.202,669.215,1239.203,667.029,1239.203z"/>
	<path d="M700.739,1207.399c-4.788,0-9.351,1.54-12.665,4.965l2.749,3.553c2.905-3.043,6.901-3.957,10.181-3.957
		c4.216,0,6.299,1.77,7.301,3.416c1.184,1.94,1.155,4.224,1.155,6.104v1.274h-1.14c-5.228,0-10.823-0.056-15.338,1.604
		c-5.599,2.057-8.139,6.205-8.139,10.139c0,5.207,4.525,10.045,11.94,10.045c4.358,0,8.87-1.587,12.743-4.761v3.889h5.296v-21.989
		c0-2.908-0.105-5.656-1.743-8.387C710.751,1209.415,706.247,1207.399,700.739,1207.399z M709.661,1229.393
		c0,1.838-0.017,4.141-2.41,6.686c-1.29,1.37-4.684,4.188-9.332,4.188c-4.705,0-7.455-2.972-7.455-6.144
		c0-2.578,1.811-5.476,6.26-6.539c3.224-0.769,7.975-0.537,11.662-0.537h1.275V1229.393z"/>
	<polygon points="742.13,1192.051 726.442,1192.051 726.442,1196.543 736.498,1196.543 736.498,1239.18 725.973,1239.18 
		725.973,1243.672 752.588,1243.672 752.588,1239.18 742.13,1239.18 	"/>
	<path d="M778.488,1200.7c2.225,0,4.023-1.793,4.023-3.989c0-2.198-1.8-3.989-4.022-3.989c-2.225,0-4.024,1.792-4.024,3.989
		S776.264,1200.7,778.488,1200.7z"/>
	<polygon points="781.17,1208.141 766.957,1208.141 766.957,1212.7 775.538,1212.7 775.538,1239.18 766.488,1239.18 
		766.488,1243.672 789.483,1243.672 789.483,1239.18 781.17,1239.18 	"/>
	<path d="M817.254,1207.399c-4.787,0-9.349,1.54-12.665,4.965l2.749,3.553c2.906-3.043,6.902-3.957,10.181-3.957
		c4.217,0,6.3,1.77,7.302,3.416c1.183,1.94,1.154,4.224,1.154,6.104v1.274h-1.14c-5.227,0-10.823-0.056-15.338,1.604
		c-5.598,2.057-8.138,6.205-8.138,10.139c0,5.207,4.524,10.045,11.939,10.045c4.359,0,8.87-1.587,12.743-4.761v3.889h5.296v-21.989
		c0-2.908-0.104-5.656-1.743-8.387C827.266,1209.415,822.762,1207.399,817.254,1207.399z M826.177,1229.393
		c0,1.838-0.016,4.141-2.41,6.686c-1.29,1.37-4.684,4.188-9.332,4.188c-4.705,0-7.455-2.972-7.455-6.144
		c0-2.578,1.811-5.476,6.261-6.539c3.223-0.769,7.974-0.537,11.662-0.537h1.274V1229.393z"/>
	<path d="M859.18,1207.336c-4.815,0-9.189,3.151-11.796,7.106v-6.234h-5.699h-0.001v35.464h5.699v-20.447
		c0-2.39,0.287-4.125,1.765-6.094c1.353-1.802,4.763-4.938,8.516-4.938c1.782,0,3.538,0.724,4.812,2.247
		c1.921,2.295,1.938,5.341,1.938,7.848v21.386h5.497v-21.52c0-2.772-0.019-5.699-1.28-8.554
		C866.862,1209.607,863.224,1207.336,859.18,1207.336z"/>
	<path d="M945.306,1207.001l5.162-2.548c-2.603-5.835-8.41-9.586-14.842-9.585c-7.528,0-18.413,5.508-18.413,24.885
		c0,18.702,10.406,24.725,18.379,24.725c5.772,0,11.167-3.016,14.205-7.978l-4.021-2.615c-2.232,3.695-6.08,5.9-9.878,5.9
		c-7.122,0-13.387-7.432-13.387-20.514c0-12.859,6.089-20.059,12.933-20.059c3.789,0,7.319,2.244,9.273,5.618
		c0.155,0.266,0.269,0.467,0.269,0.828c0,0.192-0.033,0.386-0.033,0.579C944.952,1206.329,944.949,1206.751,945.306,1207.001z"/>
	<path d="M966.245,1215.046l0.201-6.837h-5.832v35.531h5.631v-17.297c0-2.143,0.083-4.498,2.496-8.313
		c3.224-5.098,7.461-5.98,9.97-5.98c2.986,0,4.863,1.385,5.86,2.657c0.466,0.596,0.72,1.21,1.316,1.78l2.614-5.363
		c-2.233-2.287-5.5-3.875-9.486-3.875C973.832,1207.35,968.57,1209.972,966.245,1215.046z"/>
	<polygon points="966.446,1208.208 966.446,1208.209 966.446,1208.209 	"/>
	<path d="M1011.833,1207.318c-8.477,0-16.317,6.063-16.317,19.018c0,11.824,7.401,18.15,17.041,18.15
		c5.065,0,9.666-1.854,12.704-5.507l-3.083-3.018c-2.313,2.591-5.659,3.993-9.188,3.993c-4.747,0-11.621-2.617-12.043-13.244h25.187
		c0.215-2.438,0.104-4.717-0.246-6.778C1024.275,1210.405,1017.652,1207.318,1011.833,1207.318z M1020.637,1222.42h-19.508
		c1.105-8.37,6.507-10.805,10.316-10.805C1017.197,1211.615,1021.303,1216.666,1020.637,1222.42z"/>
	<path d="M1050.286,1207.399c-4.788,0-9.35,1.54-12.665,4.965l2.749,3.553c2.906-3.043,6.902-3.957,10.181-3.957
		c4.216,0,6.3,1.77,7.302,3.416c1.182,1.94,1.154,4.224,1.154,6.104v1.274h-1.14c-5.229,0-10.823-0.056-15.339,1.604
		c-5.598,2.057-8.138,6.205-8.138,10.139c0,5.207,4.524,10.045,11.939,10.045c4.358,0,8.871-1.587,12.743-4.761v3.889h5.296v-21.989
		c0-2.908-0.104-5.656-1.742-8.387C1060.298,1209.415,1055.794,1207.399,1050.286,1207.399z M1059.207,1229.393
		c0,1.838-0.015,4.141-2.409,6.686c-1.29,1.37-4.684,4.188-9.332,4.188c-4.705,0-7.454-2.972-7.454-6.144
		c0-2.578,1.811-5.476,6.259-6.539c3.225-0.769,7.976-0.537,11.663-0.537h1.273V1229.393z"/>
	<path d="M1094.255,1239.203c-2.648,0-5.404-1.466-5.971-5.729c-0.042-0.312-0.229-1.677-0.229-6.821
		c0-4.64,0.227-9.273,0.675-13.887h11.664v-4.626h-11.598c0,0,0.535-6.392,0.9-8.358c0.153-0.832,0.712-1.313,0.439-2.1
		l-6.102,1.007l-0.67,9.52h-8.447l-0.066,4.559h8.313c-0.495,6.077-0.737,12.118-0.737,18.145c0,3.183,0.029,6.75,2.094,9.66
		c1.685,2.372,4.457,3.779,8.082,3.779c4.227,0,8.344-1.767,11.345-3.964l-1.743-4.425
		C1099.193,1238.202,1096.441,1239.203,1094.255,1239.203z"/>
	<polygon points="1130.716,1208.141 1116.504,1208.141 1116.504,1212.7 1125.085,1212.7 1125.085,1239.18 1116.034,1239.18 
		1116.034,1243.672 1139.029,1243.672 1139.029,1239.18 1130.716,1239.18 	"/>
	<path d="M1128.035,1200.7c2.224,0,4.023-1.793,4.023-3.989c0-2.198-1.8-3.989-4.022-3.989c-2.225,0-4.024,1.792-4.024,3.989
		S1125.811,1200.7,1128.035,1200.7z"/>
	<path d="M1172.706,1222.89l-5.698,13.207l-10.258-25.943c-0.063-0.165-0.114-0.304-0.114-0.491c0-0.473,0.383-0.886,0.249-1.521
		h-6.704l14.078,35.8h4.357l8.647-20.245c2.123-4.971,4.115-10.146,5.296-15.555h-5.026
		C1176.594,1213.312,1174.715,1218.234,1172.706,1222.89z"/>
	<path d="M1206.024,1207.318c-8.476,0-16.316,6.063-16.316,19.018c0,11.824,7.4,18.15,17.041,18.15
		c5.064,0,9.666-1.854,12.704-5.507l-3.083-3.018c-2.313,2.591-5.659,3.993-9.188,3.993c-4.747,0-11.621-2.617-12.044-13.244h25.188
		c0.215-2.438,0.103-4.717-0.246-6.778C1218.468,1210.405,1211.845,1207.318,1206.024,1207.318z M1214.829,1222.42h-19.508
		c1.104-8.37,6.507-10.805,10.315-10.805C1211.389,1211.615,1215.495,1216.666,1214.829,1222.42z"/>
	<path d="M1294.853,1207.001l5.162-2.548c-2.603-5.835-8.41-9.586-14.842-9.585c-7.527,0-18.413,5.508-18.413,24.885
		c0,18.702,10.405,24.725,18.38,24.725c5.771,0,11.168-3.016,14.204-7.978l-4.021-2.615c-2.232,3.695-6.079,5.9-9.878,5.9
		c-7.122,0-13.387-7.432-13.387-20.514c0-12.859,6.09-20.059,12.933-20.059c3.789,0,7.319,2.244,9.272,5.618
		c0.155,0.266,0.269,0.467,0.269,0.828c0,0.192-0.032,0.386-0.032,0.579C1294.499,1206.329,1294.497,1206.751,1294.853,1207.001z"/>
	<path d="M1322.391,1207.403c-9.044,0-16.799,7.834-16.799,18.8c0,10.796,7.689,18.407,16.633,18.407
		c8.404,0,15.966-6.757,15.966-18.523C1338.19,1213.833,1330.456,1207.403,1322.391,1207.403z M1322.269,1239.784
		c-5.656,0-10.769-5.312-10.769-14.066c0-8.698,5.082-13.562,10.51-13.562c5.12,0,10.554,4.418,10.554,14.163
		C1332.563,1235.252,1327.449,1239.784,1322.269,1239.784z"/>
	<path d="M1376.083,1191.984h-5.967v21.385c-1.706-3.648-5.504-6.106-10.407-6.106c-6.765,0-14.934,4.806-14.934,18.368
		c0,13.102,7.252,18.827,14.11,18.827c4.539,0,8.732-2.502,10.961-6.485v3.084c0,0.844,0.052,1.754,0.336,2.614h5.564
		c-0.28-1.087-0.334-2.211-0.336-3.285l-0.066-46.189c-0.001-0.405,0.035-0.622,0.312-1.05
		C1375.816,1192.898,1376.111,1192.512,1376.083,1191.984z M1368.926,1232.798c-1.366,4.256-5.04,6.731-8.741,6.731
		c-4.017,0-9.987-3.122-9.987-14.812c0-10.104,5.688-12.893,9.77-12.892c3.113,0,7.698,1.652,9.102,6.922
		c0.44,1.651,0.597,3.632,0.597,7.593C1369.665,1229.018,1369.501,1231.006,1368.926,1232.798z"/>
	<polygon points="1402.585,1208.141 1388.373,1208.141 1388.373,1212.7 1396.954,1212.7 1396.954,1239.18 1387.903,1239.18 
		1387.903,1243.672 1410.897,1243.672 1410.897,1239.18 1402.585,1239.18 	"/>
	<path d="M1399.904,1200.7c2.224,0,4.023-1.793,4.023-3.989c0-2.198-1.8-3.989-4.022-3.989c-2.225,0-4.024,1.792-4.024,3.989
		S1397.68,1200.7,1399.904,1200.7z"/>
	<path d="M1441.757,1207.336c-4.816,0-9.191,3.151-11.797,7.106v-6.234h-5.698h-0.002v35.464h5.698v-20.447
		c0-2.39,0.288-4.125,1.764-6.094c1.354-1.802,4.765-4.938,8.518-4.938c1.781,0,3.538,0.724,4.812,2.247
		c1.921,2.295,1.938,5.341,1.938,7.848v21.386h5.497v-21.52c0-2.772-0.018-5.699-1.28-8.554
		C1449.438,1209.607,1445.801,1207.336,1441.757,1207.336z"/>
	<path d="M1487.642,1238.483c-3.705-1.505-7.993-1.005-12.015-1.005c-2.649,0-4.311-0.239-5.067-0.447
		c-1.359-0.373-2.15-1.21-2.15-2.329c0-1.878,2.186-3.681,2.535-3.968c1.443,0.535,2.97,0.808,4.509,0.808
		c7.028,0,12.788-5.604,12.788-12.156c0-2.151-0.633-4.243-1.812-6.015c1.869-1.122,4.012-1.718,6.198-1.718
		c0.688,0,1.371,0.059,2.048,0.176l-0.671-4.56c-3.568-0.281-7.107,0.849-9.854,3.15c-2.188-2.181-5.17-3.389-8.406-3.387
		c-7.066,0-13.265,5.614-13.265,12.549c0,3.882,1.994,7.495,5.246,9.611c-2.562,2.171-4.02,4.569-4.02,6.85
		c0,1.478,0.605,3.55,2.847,4.729c-3.808,2.431-5.771,5.041-5.771,7.86c0,3.869,3.609,8.407,16.047,8.407
		c12.019,0,16.33-6.092,16.33-10.853C1493.16,1243.115,1491.411,1240.014,1487.642,1238.483z M1467.589,1219.252
		c0-4.301,3.501-7.798,7.815-7.798c4.313,0,7.812,3.497,7.812,7.795c0,4.3-3.501,7.797-7.813,7.797
		C1471.088,1227.046,1467.59,1223.55,1467.589,1219.252z M1484.713,1251.249c-2.601,1.404-5.602,1.554-7.978,1.554
		c-1.62,0-4.641-0.093-7.323-1.16c-2.869-1.141-3.497-3.093-3.497-4.332c0-2.552,2.382-4.416,4.421-5.536
		c1.344,0.175,3.228,0.327,5.944,0.428c2.619,0.097,5.482-0.101,7.519,0.207c3.291,0.496,4.234,2.565,4.234,4.129
		C1488.033,1248.076,1487.15,1249.935,1484.713,1251.249z"/>
</g>
</svg>
