<?xml version="1.0" encoding="utf-8"?>
<!-- Generator: Adobe Illustrator 16.0.0, SVG Export Plug-In . SVG Version: 6.00 Build 0)  -->
<!DOCTYPE svg PUBLIC "-//W3C//DTD SVG 1.1//EN" "http://www.w3.org/Graphics/SVG/1.1/DTD/svg11.dtd">
<svg version="1.1" id="Layer_1" xmlns="http://www.w3.org/2000/svg" xmlns:xlink="http://www.w3.org/1999/xlink" x="0px" y="0px" viewBox="0 0 2100 2200" enable-background="new 0 0 2100 2200" xml:space="preserve">
<g id="payoff" class="scuro">
	<path d="M654.017,1207.001l5.162-2.548c-2.603-5.835-8.41-9.586-14.842-9.585c-7.528,0-18.413,5.508-18.413,24.885
		c0,18.702,10.406,24.725,18.379,24.725c5.772,0,11.167-3.016,14.205-7.978l-4.021-2.615c-2.232,3.695-6.08,5.9-9.878,5.9
		c-7.122,0-13.387-7.432-13.387-20.514c0-12.859,6.09-20.059,12.933-20.059c3.789,0,7.319,2.244,9.273,5.618
		c0.155,0.266,0.269,0.467,0.269,0.828c0,0.192-0.033,0.386-0.033,0.579C653.663,1206.329,653.66,1206.751,654.017,1207.001z"/>
	<path d="M674.956,1215.046l0.201-6.837h-5.832v35.531h5.631v-17.297c0-2.143,0.083-4.498,2.496-8.313
		c3.224-5.098,7.461-5.98,9.97-5.98c2.986,0,4.863,1.385,5.86,2.657c0.466,0.596,0.72,1.21,1.316,1.78l2.614-5.363
		c-2.233-2.287-5.5-3.875-9.486-3.875C682.543,1207.35,677.281,1209.972,674.956,1215.046z"/>
	<path d="M720.545,1207.318c-8.476,0-16.317,6.063-16.317,19.018c0,11.824,7.402,18.15,17.041,18.15
		c5.065,0,9.666-1.854,12.705-5.507l-3.084-3.018c-2.313,2.591-5.658,3.993-9.188,3.993c-4.748,0-11.622-2.617-12.044-13.244h25.187
		c0.215-2.438,0.104-4.717-0.246-6.778C732.987,1210.405,726.363,1207.318,720.545,1207.318z M729.347,1222.42h-19.508
		c1.105-8.37,6.507-10.805,10.316-10.805C725.907,1211.615,730.014,1216.666,729.347,1222.42z"/>
	<path d="M758.997,1207.399c-4.788,0-9.35,1.54-12.665,4.965l2.749,3.553c2.906-3.043,6.902-3.957,10.181-3.957
		c4.216,0,6.299,1.77,7.302,3.416c1.183,1.94,1.154,4.224,1.154,6.104v1.274h-1.14c-5.228,0-10.823-0.056-15.338,1.604
		c-5.599,2.057-8.139,6.205-8.139,10.139c0,5.207,4.525,10.045,11.94,10.045c4.359,0,8.87-1.587,12.743-4.761v3.889h5.296v-21.989
		c0-2.908-0.105-5.656-1.743-8.387C769.009,1209.415,764.505,1207.399,758.997,1207.399z M767.919,1229.393
		c0,1.838-0.016,4.141-2.41,6.686c-1.29,1.37-4.684,4.188-9.332,4.188c-4.705,0-7.455-2.972-7.455-6.144
		c0-2.578,1.811-5.476,6.261-6.539c3.223-0.769,7.974-0.537,11.661-0.537h1.275V1229.393z"/>
	<path d="M802.964,1239.203c-2.648,0-5.402-1.466-5.971-5.729c-0.042-0.312-0.229-1.677-0.229-6.821
		c0-4.64,0.225-9.273,0.674-13.887h11.664v-4.626h-11.598c0,0,0.536-6.392,0.901-8.358c0.153-0.832,0.713-1.313,0.439-2.1
		l-6.1,1.007l-0.67,9.52h-8.447l-0.066,4.559h8.313c-0.495,6.077-0.737,12.118-0.737,18.145c0,3.183,0.029,6.75,2.095,9.66
		c1.683,2.372,4.456,3.779,8.081,3.779c4.225,0,8.343-1.767,11.344-3.964l-1.743-4.425
		C807.902,1238.202,805.15,1239.203,802.964,1239.203z"/>
	<polygon points="839.427,1208.141 825.214,1208.141 825.214,1212.7 833.795,1212.7 833.795,1239.18 824.745,1239.18 
		824.745,1243.672 847.74,1243.672 847.74,1239.18 839.427,1239.18 	"/>
	<path d="M836.745,1200.7c2.225,0,4.023-1.793,4.023-3.989c0-2.198-1.8-3.989-4.022-3.989c-2.224,0-4.024,1.792-4.024,3.989
		S834.521,1200.7,836.745,1200.7z"/>
	<path d="M881.417,1222.89l-5.699,13.207l-10.257-25.943c-0.065-0.165-0.114-0.304-0.114-0.491c0-0.473,0.383-0.886,0.249-1.521
		h-6.704l14.078,35.8h4.358l8.647-20.245c2.122-4.971,4.115-10.146,5.297-15.555h-5.028
		C885.305,1213.312,883.426,1218.234,881.417,1222.89z"/>
	<path d="M914.738,1207.318c-8.477,0-16.317,6.063-16.317,19.018c0,11.824,7.402,18.15,17.041,18.15
		c5.065,0,9.666-1.854,12.705-5.507l-3.084-3.018c-2.313,2.591-5.659,3.993-9.188,3.993c-4.747,0-11.622-2.617-12.044-13.244h25.188
		c0.215-2.438,0.103-4.717-0.246-6.778C927.18,1210.405,920.556,1207.318,914.738,1207.318z M923.54,1222.42h-19.508
		c1.105-8.37,6.507-10.805,10.315-10.805C920.1,1211.615,924.207,1216.666,923.54,1222.42z"/>
	<path d="M1003.564,1207.001l5.161-2.548c-2.603-5.835-8.41-9.586-14.842-9.585c-7.527,0-18.413,5.508-18.413,24.885
		c0,18.702,10.406,24.725,18.379,24.725c5.772,0,11.167-3.016,14.205-7.978l-4.021-2.615c-2.232,3.695-6.08,5.9-9.878,5.9
		c-7.122,0-13.387-7.432-13.387-20.514c0-12.859,6.09-20.059,12.933-20.059c3.789,0,7.32,2.244,9.273,5.618
		c0.155,0.266,0.269,0.467,0.269,0.828c0,0.192-0.033,0.386-0.033,0.579C1003.21,1206.329,1003.207,1206.751,1003.564,1207.001z"/>
	<path d="M1031.103,1207.403c-9.045,0-16.799,7.834-16.799,18.8c0,10.796,7.688,18.407,16.633,18.407
		c8.403,0,15.965-6.757,15.966-18.523C1046.902,1213.833,1039.167,1207.403,1031.103,1207.403z M1030.979,1239.784
		c-5.656,0-10.77-5.312-10.77-14.066c0-8.698,5.083-13.562,10.51-13.562c5.12,0,10.553,4.418,10.553,14.163
		C1041.272,1235.252,1036.159,1239.784,1030.979,1239.784z"/>
	<path d="M1084.794,1191.984h-5.967v21.385c-1.706-3.648-5.504-6.106-10.407-6.106c-6.765,0-14.934,4.806-14.934,18.368
		c0,13.102,7.252,18.827,14.11,18.827c4.539,0,8.732-2.502,10.961-6.485v3.084c0,0.844,0.052,1.754,0.337,2.614h5.563
		c-0.28-1.087-0.334-2.211-0.336-3.285l-0.066-46.189c-0.001-0.405,0.035-0.622,0.312-1.05
		C1084.527,1192.898,1084.822,1192.512,1084.794,1191.984z M1077.637,1232.798c-1.366,4.256-5.04,6.731-8.741,6.731
		c-4.017,0-9.987-3.122-9.987-14.812c0-10.104,5.688-12.893,9.77-12.892c3.113,0,7.697,1.652,9.102,6.922
		c0.44,1.651,0.597,3.632,0.597,7.593C1078.376,1229.018,1078.212,1231.006,1077.637,1232.798z"/>
	<path d="M1108.616,1200.7c2.224,0,4.023-1.793,4.023-3.989c0-2.198-1.8-3.989-4.022-3.989c-2.224,0-4.024,1.792-4.024,3.989
		S1106.392,1200.7,1108.616,1200.7z"/>
	<polygon points="1111.297,1208.141 1097.085,1208.141 1097.085,1212.7 1105.666,1212.7 1105.666,1239.18 1096.615,1239.18 
		1096.615,1243.672 1119.61,1243.672 1119.61,1239.18 1111.297,1239.18 	"/>
	<path d="M1150.468,1207.336c-4.816,0-9.19,3.151-11.797,7.106v-6.234h-5.698h-0.002v35.464h5.698v-20.447
		c0-2.39,0.288-4.125,1.764-6.094c1.354-1.802,4.765-4.938,8.518-4.938c1.782,0,3.538,0.724,4.812,2.247
		c1.921,2.295,1.938,5.341,1.938,7.848v21.386h5.497v-21.52c0-2.772-0.018-5.699-1.28-8.554
		C1158.15,1209.607,1154.512,1207.336,1150.468,1207.336z"/>
	<path d="M1203.387,1211.829l-0.671-4.56c-3.568-0.281-7.107,0.849-9.854,3.15c-2.188-2.181-5.17-3.389-8.406-3.387
		c-7.065,0-13.265,5.614-13.265,12.549c0,3.882,1.994,7.495,5.246,9.611c-2.562,2.171-4.02,4.569-4.02,6.85
		c0,1.478,0.605,3.55,2.848,4.729c-3.809,2.431-5.771,5.041-5.771,7.86c0,3.869,3.609,8.407,16.047,8.407
		c12.02,0,16.33-6.092,16.33-10.853c0-3.072-1.749-6.174-5.519-7.704c-3.705-1.505-7.993-1.005-12.015-1.005
		c-2.648,0-4.311-0.239-5.067-0.447c-1.359-0.373-2.15-1.21-2.15-2.329c0-1.878,2.186-3.681,2.535-3.968
		c1.444,0.535,2.97,0.808,4.509,0.808c7.028,0,12.788-5.604,12.788-12.156c0-2.151-0.633-4.243-1.811-6.015
		c1.868-1.122,4.011-1.718,6.197-1.718C1202.026,1211.653,1202.711,1211.712,1203.387,1211.829z M1179.047,1241.774
		c1.344,0.175,3.228,0.327,5.944,0.428c2.619,0.097,5.482-0.101,7.519,0.207c3.291,0.496,4.234,2.565,4.234,4.129
		c0,1.538-0.883,3.396-3.32,4.711c-2.601,1.404-5.602,1.554-7.978,1.554c-1.62,0-4.641-0.093-7.323-1.16
		c-2.869-1.141-3.497-3.093-3.497-4.332C1174.626,1244.759,1177.008,1242.895,1179.047,1241.774z M1184.113,1227.046
		c-4.314,0-7.813-3.496-7.813-7.794c0-4.301,3.501-7.798,7.815-7.798c4.313,0,7.812,3.497,7.812,7.795
		C1191.927,1223.549,1188.426,1227.046,1184.113,1227.046z"/>
	<polygon points="1264.237,1232.409 1251.835,1195.202 1251.835,1195.201 1246.136,1195.201 1262.627,1244.006 1265.107,1244.006 
		1281.331,1195.268 1275.969,1195.268 	"/>
	<path d="M1303.122,1207.318c-8.477,0-16.317,6.063-16.317,19.018c0,11.824,7.401,18.15,17.041,18.15
		c5.065,0,9.666-1.854,12.704-5.507l-3.083-3.018c-2.313,2.591-5.659,3.993-9.188,3.993c-4.747,0-11.621-2.617-12.044-13.244h25.188
		c0.215-2.438,0.104-4.717-0.246-6.778C1315.563,1210.405,1308.941,1207.318,1303.122,1207.318z M1311.926,1222.42h-19.508
		c1.104-8.37,6.507-10.805,10.316-10.805C1308.486,1211.615,1312.592,1216.666,1311.926,1222.42z"/>
	<path d="M1335.21,1215.046l0.201-6.837h-5.832v35.531h5.631v-17.297c0-2.143,0.083-4.498,2.495-8.313
		c3.226-5.098,7.461-5.98,9.971-5.98c2.986,0,4.863,1.385,5.859,2.657c0.466,0.596,0.721,1.21,1.316,1.78l2.615-5.363
		c-2.232-2.287-5.5-3.875-9.485-3.875C1342.797,1207.35,1337.534,1209.972,1335.21,1215.046z"/>
	<path d="M1380.647,1207.403c-9.043,0-16.799,7.834-16.799,18.8c0,10.796,7.689,18.407,16.634,18.407
		c8.404,0,15.966-6.757,15.966-18.523C1396.448,1213.833,1388.713,1207.403,1380.647,1207.403z M1380.527,1239.784
		c-5.657,0-10.77-5.312-10.77-14.066c0-8.698,5.082-13.562,10.511-13.562c5.119,0,10.553,4.418,10.553,14.163
		C1390.821,1235.252,1385.707,1239.784,1380.527,1239.784z"/>
	<path d="M1422.337,1207.336c-4.816,0-9.191,3.151-11.797,7.106v-6.234h-5.698h-0.002v35.464h5.698v-20.447
		c0-2.39,0.288-4.125,1.764-6.094c1.354-1.802,4.765-4.938,8.518-4.938c1.781,0,3.538,0.724,4.812,2.247
		c1.921,2.295,1.938,5.341,1.938,7.848v21.386h5.497v-21.52c0-2.772-0.018-5.699-1.28-8.554
		C1430.019,1209.607,1426.381,1207.336,1422.337,1207.336z"/>
	<path d="M1470.431,1213.295c-2.329-3.88-6.833-5.896-12.341-5.896c-4.788,0-9.351,1.54-12.665,4.965l2.749,3.553
		c2.907-3.043,6.903-3.957,10.181-3.957c4.216,0,6.301,1.77,7.303,3.416c1.181,1.94,1.153,4.224,1.153,6.104v1.274h-1.14
		c-5.229,0-10.823-0.056-15.338,1.604c-5.598,2.057-8.139,6.205-8.139,10.139c0,5.207,4.524,10.045,11.939,10.045
		c4.359,0,8.871-1.587,12.743-4.761v3.889h5.296v-21.989C1472.173,1218.773,1472.069,1216.025,1470.431,1213.295z M1467.01,1229.393
		c0,1.838-0.015,4.141-2.409,6.686c-1.289,1.37-4.684,4.188-9.332,4.188c-4.704,0-7.453-2.972-7.453-6.144
		c0-2.578,1.81-5.476,6.259-6.539c3.224-0.769,7.975-0.537,11.663-0.537h1.272V1229.393z"/>
</g>
<g id="logotipo" class="scuro">
	<rect x="592.099" y="1028.478" transform="matrix(1 0.0022 -0.0022 1 2.317 -1.3281)" width="19.433" height="37.441"/>
	<rect x="689.273" y="1028.692" transform="matrix(-1 -0.0023 0.0023 -1 1395.6057 2096.4004)" width="19.43" height="37.439"/>
	<path d="M400.06,939.993v205h1300.001v-205H400.06z M533.811,1027.564l-38.856-0.088l-0.091,38.995l38.86,0.088l-0.046,19.494
		l-58.29-0.133l0.181-77.99l58.288,0.133L533.811,1027.564z M630.83,1086.281l-58.289-0.135l0.179-77.991l58.293,0.135
		L630.83,1086.281z M728.023,1067.009l-19.428-0.045l-0.046,19.498l-38.861-0.091l0.18-77.993l38.861,0.089l-0.047,19.501
		l19.429,0.042L728.023,1067.009z M786.271,1086.636l-19.428-0.042l0.181-77.994l19.43,0.045L786.271,1086.636z M883.558,1028.367
		l-38.856-0.091l-0.092,38.998l38.863,0.088l-0.048,19.498l-58.29-0.134l0.178-77.994l58.297,0.134L883.558,1028.367z
		 M980.71,1028.588l-38.862-0.086l-0.043,19.494l19.43,0.045l-0.045,19.495l19.43,0.048l-0.045,19.498l-58.293-0.133l0.184-77.995
		l58.288,0.134L980.71,1028.588z M1097.156,1087.348l-19.429-0.048l0.181-77.993l19.429,0.051L1097.156,1087.348z M1194.309,1087.57
		l-19.43-0.047l0.133-58.492l-19.432-0.043l-0.133,58.494l-19.434-0.051l0.185-77.99l58.29,0.134L1194.309,1087.57z
		 M1291.457,1087.793l-58.291-0.135l0.181-77.993l19.433,0.048l-0.134,58.496l19.428,0.045l0.133-58.495l19.433,0.043
		L1291.457,1087.793z M1388.742,1029.521l-19.433-0.048l-0.133,58.491l-19.428-0.046l0.134-58.493l-19.432-0.042l0.05-19.501
		l58.289,0.134L1388.742,1029.521z M1446.903,1088.15l-19.433-0.052l0.184-77.988l19.431,0.046L1446.903,1088.15z
		 M1544.053,1088.375l-58.29-0.135l0.185-77.994l19.428,0.045l-0.134,58.497l38.859,0.089L1544.053,1088.375z M1641.338,1030.1
		l-38.863-0.087l-0.042,19.496l19.433,0.046l-0.048,19.498l19.438,0.042l-0.045,19.495l-58.291-0.135l0.18-77.993l58.289,0.134
		L1641.338,1030.1z"/>
</g>
</svg>
