<?xml version="1.0" encoding="utf-8"?>
<!-- Generator: Adobe Illustrator 16.0.0, SVG Export Plug-In . SVG Version: 6.00 Build 0)  -->
<!DOCTYPE svg PUBLIC "-//W3C//DTD SVG 1.1//EN" "http://www.w3.org/Graphics/SVG/1.1/DTD/svg11.dtd">
<svg version="1.1" id="Layer_1" xmlns="http://www.w3.org/2000/svg" xmlns:xlink="http://www.w3.org/1999/xlink" x="0px" y="0px"
	 viewBox="0 0 2100 2200" enable-background="new 0 0 2100 2200" xml:space="preserve">
	<polygon class="scuro" points="1700,1400.156 1700,1700 700,1700 700,1800 400,1800 400,1000 700,1000 700,1400 1400,1400 1400,1300 1800,1300 
	1800,300 1318,300 1318,400 618,400 618,300 300,300 300,800.105 400,800.105 400,800 400,500 1400,500 1400,400 1700,400 
	1700,1200 1400,1200 1400,800 700,800 700,900 300,900 300,1900 800,1900 800,1800 1800,1800 1800,1400.156 "/>
</svg>
