<?xml version="1.0" encoding="utf-8"?>
<!-- Generator: Adobe Illustrator 16.0.0, SVG Export Plug-In . SVG Version: 6.00 Build 0)  -->
<!DOCTYPE svg PUBLIC "-//W3C//DTD SVG 1.1//EN" "http://www.w3.org/Graphics/SVG/1.1/DTD/svg11.dtd">
<svg version="1.1" xmlns="http://www.w3.org/2000/svg" xmlns:xlink="http://www.w3.org/1999/xlink" x="0px" y="0px" width="2100px"
	 height="2200px" viewBox="0 0 2100 2200" enable-background="new 0 0 2100 2200" xml:space="preserve">
<g id="Layer_2">
	<g>
		<polygon points="1400,400 1400,500 700,500 400,500 400,800 400,900 700,900 700,800 1400,800 1400,1200 1700,1200 1700,400 		"/>
		<polygon points="700,1800 700,1700 1400,1700 1700,1700 1700,1400 1700,1300 1400,1300 1400,1400 700,1400 700,1000 400,1000 
			400,1800 		"/>
	</g>
</g>
<g id="Layer_1">
	<rect x="399.5" y="499.5" fill="#CCCCCC" width="300" height="400"/>
	<rect x="1399.5" fill="#CCCCCC" width="300" height="400"/>
	<rect x="399.5" y="1800" fill="#CCCCCC" width="300" height="400"/>
	<rect x="1700" y="399" fill="#CCCCCC" width="400" height="300"/>
	<rect y="1499" fill="#CCCCCC" width="400" height="300"/>
	<g>
		<path fill="#CCCCCC" d="M2083.652,0h-8.174v4h8.174V0L2083.652,0z M2067.304,0h-8.174v4h8.174V0L2067.304,0z M2050.956,0h-8.174v4
			h8.174V0L2050.956,0z M2034.608,0h-8.175v4h8.175V0L2034.608,0z M2018.26,0h-8.174v4h8.174V0L2018.26,0z M2001.912,0h-8.174v4
			h8.174V0L2001.912,0z M1985.563,0h-8.174v4h8.174V0L1985.563,0z M1969.216,0h-8.174v4h8.174V0L1969.216,0z M1952.868,0h-8.175v4
			h8.175V0L1952.868,0z M1936.52,0h-8.174v4h8.174V0L1936.52,0z M1920.172,0h-8.174v4h8.174V0L1920.172,0z M1903.824,0h-8.174v4
			h8.174V0L1903.824,0z M1887.477,0h-8.175v4h8.175V0L1887.477,0z M1871.128,0h-8.174v4h8.174V0L1871.128,0z M1854.78,0h-8.174v4
			h8.174V0L1854.78,0z M1838.432,0h-8.174v4h8.174V0L1838.432,0z M1822.084,0h-8.174v4h8.174V0L1822.084,0z M1805.736,0h-8.175v4
			h8.175V0L1805.736,0z M1789.388,0h-8.174v4h8.174V0L1789.388,0z M1773.04,0h-8.174v4h8.174V0L1773.04,0z M1756.691,0h-8.174v4
			h8.174V0L1756.691,0z M1740.344,0h-8.174v4h8.174V0L1740.344,0z M1723.996,0h-8.174v4h8.174V0L1723.996,0z M1707.648,0h-8.175v4
			h8.175V0L1707.648,0z M1691.3,0h-8.174v4h8.174V0L1691.3,0z M1674.952,0h-8.174v4h8.174V0L1674.952,0z M1658.604,0h-8.174v4h8.174
			V0L1658.604,0z M1642.256,0h-8.174v4h8.174V0L1642.256,0z M1625.908,0h-8.174v4h8.174V0L1625.908,0z M1609.561,0h-8.175v4h8.175V0
			L1609.561,0z M1593.212,0h-8.174v4h8.174V0L1593.212,0z M1576.864,0h-8.175v4h8.175V0L1576.864,0z M1560.516,0h-8.174v4h8.174V0
			L1560.516,0z M1544.168,0h-8.174v4h8.174V0L1544.168,0z M1527.82,0h-8.174v4h8.174V0L1527.82,0z M1511.472,0h-8.174v4h8.174V0
			L1511.472,0z M1495.124,0h-8.174v4h8.174V0L1495.124,0z M1478.776,0h-8.175v4h8.175V0L1478.776,0z M1462.428,0h-8.174v4h8.174V0
			L1462.428,0z M1446.08,0h-8.174v4h8.174V0L1446.08,0z M1429.732,0h-8.175v4h8.175V0L1429.732,0z M1413.384,0h-8.174v4h8.174V0
			L1413.384,0z M1397.036,0h-8.174v4h8.174V0L1397.036,0z M1380.688,0h-8.175v4h8.175V0L1380.688,0z M1364.34,0h-8.174v4h8.174V0
			L1364.34,0z M1347.992,0h-8.174v4h8.174V0L1347.992,0z M1331.645,0h-8.175v4h8.175V0L1331.645,0z M1315.296,0h-8.174v4h8.174V0
			L1315.296,0z M1298.948,0h-8.174v4h8.174V0L1298.948,0z M1282.6,0h-8.174v4h8.174V0L1282.6,0z M1266.252,0h-8.174v4h8.174V0
			L1266.252,0z M1249.904,0h-8.174v4h8.174V0L1249.904,0z M1233.556,0h-8.174v4h8.174V0L1233.556,0z M1217.208,0h-8.174v4h8.174V0
			L1217.208,0z M1200.86,0h-8.174v4h8.174V0L1200.86,0z M1184.512,0h-8.174v4h8.174V0L1184.512,0z M1168.164,0h-8.174v4h8.174V0
			L1168.164,0z M1151.816,0h-8.175v4h8.175V0L1151.816,0z M1135.468,0h-8.174v4h8.174V0L1135.468,0z M1119.12,0h-8.174v4h8.174V0
			L1119.12,0z M1102.771,0h-8.174v4h8.174V0L1102.771,0z M1086.424,0h-8.174v4h8.174V0L1086.424,0z M1070.076,0h-8.174v4h8.174V0
			L1070.076,0z M1053.729,0h-8.174v4h8.174V0L1053.729,0z M1037.38,0h-8.174v4h8.174V0L1037.38,0z M1021.032,0h-8.174v4h8.174V0
			L1021.032,0z M1004.684,0h-8.174v4h8.174V0L1004.684,0z M988.336,0h-8.174v4h8.174V0L988.336,0z M971.988,0h-8.174v4h8.174V0
			L971.988,0z M955.64,0h-8.174v4h8.174V0L955.64,0z M939.292,0h-8.174v4h8.174V0L939.292,0z M922.944,0h-8.174v4h8.174V0L922.944,0
			z M906.596,0h-8.174v4h8.174V0L906.596,0z M890.248,0h-8.174v4h8.174V0L890.248,0z M873.9,0h-8.174v4h8.174V0L873.9,0z M857.552,0
			h-8.174v4h8.174V0L857.552,0z M841.204,0h-8.174v4h8.174V0L841.204,0z M824.856,0h-8.174v4h8.174V0L824.856,0z M808.508,0h-8.174
			v4h8.174V0L808.508,0z M792.16,0h-8.174v4h8.174V0L792.16,0z M775.812,0h-8.174v4h8.174V0L775.812,0z M759.464,0h-8.174v4h8.174V0
			L759.464,0z M743.116,0h-8.174v4h8.174V0L743.116,0z M726.768,0h-8.174v4h8.174V0L726.768,0z M710.42,0h-8.174v4h8.174V0L710.42,0
			z M694.072,0h-8.174v4h8.174V0L694.072,0z M677.724,0h-8.174v4h8.174V0L677.724,0z M661.376,0h-8.174v4h8.174V0L661.376,0z
			 M645.028,0h-8.174v4h8.174V0L645.028,0z M628.68,0h-8.174v4h8.174V0L628.68,0z M612.332,0h-8.174v4h8.174V0L612.332,0z
			 M595.984,0h-8.174v4h8.174V0L595.984,0z M579.636,0h-8.174v4h8.174V0L579.636,0z M563.288,0h-8.174v4h8.174V0L563.288,0z
			 M546.94,0h-8.174v4h8.174V0L546.94,0z M530.592,0h-8.174v4h8.174V0L530.592,0z M514.244,0h-8.174v4h8.174V0L514.244,0z
			 M497.896,0h-8.174v4h8.174V0L497.896,0z M481.548,0h-8.174v4h8.174V0L481.548,0z M465.2,0h-8.174v4h8.174V0L465.2,0z M448.852,0
			h-8.174v4h8.174V0L448.852,0z M432.504,0h-8.174v4h8.174V0L432.504,0z M416.156,0h-8.174v4h8.174V0L416.156,0z M399.808,0h-8.174
			v4h8.174V0L399.808,0z M383.46,0h-8.174v4h8.174V0L383.46,0z M367.112,0h-8.174v4h8.174V0L367.112,0z M350.764,0h-8.174v4h8.174V0
			L350.764,0z M334.416,0h-8.174v4h8.174V0L334.416,0z M318.068,0h-8.174v4h8.174V0L318.068,0z M301.72,0h-8.174v4h8.174V0L301.72,0
			z M285.372,0h-8.174v4h8.174V0L285.372,0z M269.024,0h-8.174v4h8.174V0L269.024,0z M252.676,0h-8.174v4h8.174V0L252.676,0z
			 M236.328,0h-8.174v4h8.174V0L236.328,0z M219.98,0h-8.174v4h8.174V0L219.98,0z M203.632,0h-8.174v4h8.174V0L203.632,0z
			 M187.284,0h-8.174v4h8.174V0L187.284,0z M170.936,0h-8.174v4h8.174V0L170.936,0z M154.588,0h-8.174v4h8.174V0L154.588,0z
			 M138.24,0h-8.174v4h8.174V0L138.24,0z M121.892,0h-8.174v4h8.174V0L121.892,0z M105.544,0H97.37v4h8.174V0L105.544,0z M89.196,0
			h-8.174v4h8.174V0L89.196,0z M72.848,0h-8.174v4h8.174V0L72.848,0z M56.5,0h-8.174v4H56.5V0L56.5,0z M40.152,0h-8.174v4h8.174V0
			L40.152,0z M23.804,0H15.63v4h8.174V0L23.804,0z M7.456,0H0v4h7.456V0L7.456,0z M4,8.892H0v8.174h4V8.892L4,8.892z M4,25.24H0
			v8.174h4V25.24L4,25.24z M4,41.588H0v8.174h4V41.588L4,41.588z M4,57.936H0v8.174h4V57.936L4,57.936z M4,74.284H0v8.174h4V74.284
			L4,74.284z M4,90.632H0v8.174h4V90.632L4,90.632z M4,106.98H0v8.174h4V106.98L4,106.98z M4,123.328H0v8.174h4V123.328L4,123.328z
			 M4,139.676H0v8.174h4V139.676L4,139.676z M4,156.024H0v8.174h4V156.024L4,156.024z M4,172.372H0v8.174h4V172.372L4,172.372z
			 M4,188.72H0v8.174h4V188.72L4,188.72z M4,205.068H0v8.174h4V205.068L4,205.068z M4,221.416H0v8.174h4V221.416L4,221.416z
			 M4,237.764H0v8.174h4V237.764L4,237.764z M4,254.112H0v8.174h4V254.112L4,254.112z M4,270.46H0v8.174h4V270.46L4,270.46z
			 M4,286.808H0v8.174h4V286.808L4,286.808z M4,303.156H0v8.174h4V303.156L4,303.156z M4,319.504H0v8.174h4V319.504L4,319.504z
			 M4,335.852H0v8.174h4V335.852L4,335.852z M4,352.2H0v8.174h4V352.2L4,352.2z M4,368.548H0v8.174h4V368.548L4,368.548z M4,384.896
			H0v8.174h4V384.896L4,384.896z M4,401.244H0v8.174h4V401.244L4,401.244z M4,417.592H0v8.174h4V417.592L4,417.592z M4,433.94H0
			v8.174h4V433.94L4,433.94z M4,450.288H0v8.174h4V450.288L4,450.288z M4,466.636H0v8.174h4V466.636L4,466.636z M4,482.984H0v8.174
			h4V482.984L4,482.984z M4,499.332H0v8.174h4V499.332L4,499.332z M4,515.68H0v8.174h4V515.68L4,515.68z M4,532.028H0v8.174h4
			V532.028L4,532.028z M4,548.376H0v8.174h4V548.376L4,548.376z M4,564.724H0v8.174h4V564.724L4,564.724z M4,581.072H0v8.174h4
			V581.072L4,581.072z M4,597.42H0v8.174h4V597.42L4,597.42z M4,613.768H0v8.174h4V613.768L4,613.768z M4,630.116H0v8.174h4V630.116
			L4,630.116z M4,646.464H0v8.174h4V646.464L4,646.464z M4,662.812H0v8.174h4V662.812L4,662.812z M4,679.16H0v8.174h4V679.16
			L4,679.16z M4,695.508H0v8.174h4V695.508L4,695.508z M4,711.856H0v8.174h4V711.856L4,711.856z M4,728.204H0v8.174h4V728.204
			L4,728.204z M4,744.552H0v8.174h4V744.552L4,744.552z M4,760.9H0v8.174h4V760.9L4,760.9z M4,777.248H0v8.174h4V777.248L4,777.248z
			 M4,793.596H0v8.174h4V793.596L4,793.596z M4,809.944H0v8.174h4V809.944L4,809.944z M4,826.292H0v8.174h4V826.292L4,826.292z
			 M4,842.64H0v8.174h4V842.64L4,842.64z M4,858.988H0v8.174h4V858.988L4,858.988z M4,875.336H0v8.174h4V875.336L4,875.336z
			 M4,891.684H0v8.174h4V891.684L4,891.684z M4,908.032H0v8.174h4V908.032L4,908.032z M4,924.38H0v8.174h4V924.38L4,924.38z
			 M4,940.728H0v8.174h4V940.728L4,940.728z M4,957.076H0v8.174h4V957.076L4,957.076z M4,973.424H0v8.174h4V973.424L4,973.424z
			 M4,989.772H0v8.174h4V989.772L4,989.772z M4,1006.12H0v8.174h4V1006.12L4,1006.12z M4,1022.468H0v8.174h4V1022.468L4,1022.468z
			 M4,1038.816H0v8.174h4V1038.816L4,1038.816z M4,1055.164H0v8.174h4V1055.164L4,1055.164z M4,1071.512H0v8.174h4V1071.512
			L4,1071.512z M4,1087.86H0v8.174h4V1087.86L4,1087.86z M4,1104.208H0v8.174h4V1104.208L4,1104.208z M4,1120.556H0v8.174h4
			V1120.556L4,1120.556z M4,1136.904H0v8.174h4V1136.904L4,1136.904z M4,1153.252H0v8.174h4V1153.252L4,1153.252z M4,1169.6H0v8.174
			h4V1169.6L4,1169.6z M4,1185.947H0v8.175h4V1185.947L4,1185.947z M4,1202.296H0v8.174h4V1202.296L4,1202.296z M4,1218.644H0v8.174
			h4V1218.644L4,1218.644z M4,1234.992H0v8.174h4V1234.992L4,1234.992z M4,1251.34H0v8.174h4V1251.34L4,1251.34z M4,1267.688H0
			v8.175h4V1267.688L4,1267.688z M4,1284.036H0v8.174h4V1284.036L4,1284.036z M4,1300.384H0v8.174h4V1300.384L4,1300.384z
			 M4,1316.732H0v8.174h4V1316.732L4,1316.732z M4,1333.08H0v8.174h4V1333.08L4,1333.08z M4,1349.428H0v8.174h4V1349.428L4,1349.428
			z M4,1365.775H0v8.174h4V1365.775L4,1365.775z M4,1382.124H0v8.174h4V1382.124L4,1382.124z M4,1398.472H0v8.174h4V1398.472
			L4,1398.472z M4,1414.819H0v8.175h4V1414.819L4,1414.819z M4,1431.168H0v8.174h4V1431.168L4,1431.168z M4,1447.516H0v8.174h4
			V1447.516L4,1447.516z M4,1463.864H0v8.174h4V1463.864L4,1463.864z M4,1480.212H0v8.174h4V1480.212L4,1480.212z M4,1496.56H0
			v8.175h4V1496.56L4,1496.56z M4,1512.908H0v8.174h4V1512.908L4,1512.908z M4,1529.256H0v8.174h4V1529.256L4,1529.256z M4,1545.604
			H0v8.174h4V1545.604L4,1545.604z M4,1561.951H0v8.175h4V1561.951L4,1561.951z M4,1578.3H0v8.174h4V1578.3L4,1578.3z M4,1594.647H0
			v8.174h4V1594.647L4,1594.647z M4,1610.996H0v8.174h4V1610.996L4,1610.996z M4,1627.344H0v8.174h4V1627.344L4,1627.344z
			 M4,1643.691H0v8.175h4V1643.691L4,1643.691z M4,1660.04H0v8.174h4V1660.04L4,1660.04z M4,1676.388H0v8.174h4V1676.388L4,1676.388
			z M4,1692.736H0v8.174h4V1692.736L4,1692.736z M4,1709.084H0v8.174h4V1709.084L4,1709.084z M4,1725.432H0v8.174h4V1725.432
			L4,1725.432z M4,1741.779H0v8.175h4V1741.779L4,1741.779z M4,1758.128H0v8.174h4V1758.128L4,1758.128z M4,1774.476H0v8.174h4
			V1774.476L4,1774.476z M4,1790.824H0v8.174h4V1790.824L4,1790.824z M4,1807.172H0v8.174h4V1807.172L4,1807.172z M4,1823.52H0
			v8.175h4V1823.52L4,1823.52z M4,1839.868H0v8.174h4V1839.868L4,1839.868z M4,1856.216H0v8.174h4V1856.216L4,1856.216z M4,1872.563
			H0v8.174h4V1872.563L4,1872.563z M4,1888.912H0v8.174h4V1888.912L4,1888.912z M4,1905.26H0v8.174h4V1905.26L4,1905.26z
			 M4,1921.607H0v8.174h4V1921.607L4,1921.607z M4,1937.956H0v8.174h4V1937.956L4,1937.956z M4,1954.304H0v8.174h4V1954.304
			L4,1954.304z M4,1970.651H0v8.175h4V1970.651L4,1970.651z M4,1987H0v8.174h4V1987L4,1987z M4,2003.348H0v8.174h4V2003.348
			L4,2003.348z M4,2019.696H0v8.174h4V2019.696L4,2019.696z M4,2036.044H0v8.174h4V2036.044L4,2036.044z M4,2052.392H0v8.174h4
			V2052.392L4,2052.392z M4,2068.739H0v8.175h4V2068.739L4,2068.739z M4,2085.088H0v8.174h4V2085.088L4,2085.088z M4,2101.436H0
			v8.174h4V2101.436L4,2101.436z M4,2117.784H0v8.174h4V2117.784L4,2117.784z M4,2134.132H0v8.174h4V2134.132L4,2134.132z
			 M4,2150.479H0v8.175h4V2150.479L4,2150.479z M4,2166.828H0v8.174h4V2166.828L4,2166.828z M4,2183.176H0v8.174h4V2183.176
			L4,2183.176z M7.698,2196H0v3.523l0,0V2196v3.523l0,0V2200h4l0,0l0,0l0,0l0,0c1.873,0,3.698,0,3.698,0V2196L7.698,2196z
			 M24.046,2196h-8.174v4h8.174V2196L24.046,2196z M40.394,2196H32.22v4h8.174V2196L40.394,2196z M56.742,2196h-8.174v4h8.174V2196
			L56.742,2196z M73.09,2196h-8.174v4h8.174V2196L73.09,2196z M89.438,2196h-8.174v4h8.174V2196L89.438,2196z M105.786,2196h-8.174
			v4h8.174V2196L105.786,2196z M122.134,2196h-8.174v4h8.174V2196L122.134,2196z M138.481,2196h-8.174v4h8.174V2196L138.481,2196z
			 M154.83,2196h-8.174v4h8.174V2196L154.83,2196z M171.178,2196h-8.174v4h8.174V2196L171.178,2196z M187.526,2196h-8.174v4h8.174
			V2196L187.526,2196z M203.874,2196H195.7v4h8.174V2196L203.874,2196z M220.222,2196h-8.174v4h8.174V2196L220.222,2196z
			 M236.57,2196h-8.174v4h8.174V2196L236.57,2196z M252.918,2196h-8.174v4h8.174V2196L252.918,2196z M269.266,2196h-8.174v4h8.174
			V2196L269.266,2196z M285.614,2196h-8.174v4h8.174V2196L285.614,2196z M301.962,2196h-8.174v4h8.174V2196L301.962,2196z
			 M318.31,2196h-8.174v4h8.174V2196L318.31,2196z M334.658,2196h-8.174v4h8.174V2196L334.658,2196z M351.006,2196h-8.174v4h8.174
			V2196L351.006,2196z M367.354,2196h-8.174v4h8.174V2196L367.354,2196z M383.702,2196h-8.174v4h8.174V2196L383.702,2196z
			 M400.05,2196h-8.174v4h8.174V2196L400.05,2196z M416.398,2196h-8.174v4h8.174V2196L416.398,2196z M432.746,2196h-8.174v4h8.174
			V2196L432.746,2196z M449.094,2196h-8.174v4h8.174V2196L449.094,2196z M465.442,2196h-8.174v4h8.174V2196L465.442,2196z
			 M481.79,2196h-8.174v4h8.174V2196L481.79,2196z M498.138,2196h-8.174v4h8.174V2196L498.138,2196z M514.486,2196h-8.174v4h8.174
			V2196L514.486,2196z M530.833,2196h-8.174v4h8.174V2196L530.833,2196z M547.182,2196h-8.174v4h8.174V2196L547.182,2196z
			 M563.53,2196h-8.174v4h8.174V2196L563.53,2196z M579.878,2196h-8.174v4h8.174V2196L579.878,2196z M596.226,2196h-8.174v4h8.174
			V2196L596.226,2196z M612.574,2196H604.4v4h8.174V2196L612.574,2196z M628.922,2196h-8.174v4h8.174V2196L628.922,2196z
			 M645.27,2196h-8.174v4h8.174V2196L645.27,2196z M661.618,2196h-8.174v4h8.174V2196L661.618,2196z M677.966,2196h-8.174v4h8.174
			V2196L677.966,2196z M694.313,2196h-8.174v4h8.174V2196L694.313,2196z M710.662,2196h-8.174v4h8.174V2196L710.662,2196z
			 M727.01,2196h-8.174v4h8.174V2196L727.01,2196z M743.358,2196h-8.174v4h8.174V2196L743.358,2196z M759.706,2196h-8.174v4h8.174
			V2196L759.706,2196z M776.054,2196h-8.174v4h8.174V2196L776.054,2196z M792.402,2196h-8.174v4h8.174V2196L792.402,2196z
			 M808.75,2196h-8.174v4h8.174V2196L808.75,2196z M825.098,2196h-8.174v4h8.174V2196L825.098,2196z M841.446,2196h-8.174v4h8.174
			V2196L841.446,2196z M857.793,2196h-8.174v4h8.174V2196L857.793,2196z M874.142,2196h-8.174v4h8.174V2196L874.142,2196z
			 M890.49,2196h-8.174v4h8.174V2196L890.49,2196z M906.838,2196h-8.174v4h8.174V2196L906.838,2196z M923.186,2196h-8.174v4h8.174
			V2196L923.186,2196z M939.534,2196h-8.174v4h8.174V2196L939.534,2196z M955.882,2196h-8.174v4h8.174V2196L955.882,2196z
			 M972.229,2196h-8.174v4h8.174V2196L972.229,2196z M988.578,2196h-8.174v4h8.174V2196L988.578,2196z M1004.926,2196h-8.174v4
			h8.174V2196L1004.926,2196z M1021.273,2196h-8.174v4h8.174V2196L1021.273,2196z M1037.622,2196h-8.174v4h8.174V2196L1037.622,2196
			z M1053.97,2196h-8.174v4h8.174V2196L1053.97,2196z M1070.317,2196h-8.174v4h8.174V2196L1070.317,2196z M1086.666,2196h-8.175v4
			h8.175V2196L1086.666,2196z M1103.014,2196h-8.174v4h8.174V2196L1103.014,2196z M1119.361,2196h-8.174v4h8.174V2196L1119.361,2196
			z M1135.71,2196h-8.174v4h8.174V2196L1135.71,2196z M1152.058,2196h-8.174v4h8.174V2196L1152.058,2196z M1168.406,2196h-8.175v4
			h8.175V2196L1168.406,2196z M1184.754,2196h-8.174v4h8.174V2196L1184.754,2196z M1201.102,2196h-8.174v4h8.174V2196L1201.102,2196
			z M1217.449,2196h-8.174v4h8.174V2196L1217.449,2196z M1233.798,2196h-8.174v4h8.174V2196L1233.798,2196z M1250.146,2196h-8.174v4
			h8.174V2196L1250.146,2196z M1266.493,2196h-8.174v4h8.174V2196L1266.493,2196z M1282.842,2196h-8.174v4h8.174V2196L1282.842,2196
			z M1299.189,2196h-8.174v4h8.174V2196L1299.189,2196z M1315.538,2196h-8.175v4h8.175V2196L1315.538,2196z M1331.886,2196h-8.174v4
			h8.174V2196L1331.886,2196z M1348.233,2196h-8.174v4h8.174V2196L1348.233,2196z M1364.582,2196h-8.174v4h8.174V2196L1364.582,2196
			z M1380.93,2196h-8.174v4h8.174V2196L1380.93,2196z M1397.277,2196h-8.174v4h8.174V2196L1397.277,2196z M1413.626,2196h-8.175v4
			h8.175V2196L1413.626,2196z M1429.974,2196h-8.174v4h8.174V2196L1429.974,2196z M1446.321,2196h-8.174v4h8.174V2196L1446.321,2196
			z M1462.67,2196h-8.174v4h8.174V2196L1462.67,2196z M1479.018,2196h-8.174v4h8.174V2196L1479.018,2196z M1495.365,2196h-8.174v4
			h8.174V2196L1495.365,2196z M1511.714,2196h-8.174v4h8.174V2196L1511.714,2196z M1528.062,2196h-8.174v4h8.174V2196L1528.062,2196
			z M1544.41,2196h-8.175v4h8.175V2196L1544.41,2196z M1560.758,2196h-8.174v4h8.174V2196L1560.758,2196z M1577.105,2196h-8.174v4
			h8.174V2196L1577.105,2196z M1593.453,2196h-8.174v4h8.174V2196L1593.453,2196z M1609.802,2196h-8.174v4h8.174V2196L1609.802,2196
			z M1626.149,2196h-8.174v4h8.174V2196L1626.149,2196z M1642.498,2196h-8.175v4h8.175V2196L1642.498,2196z M1658.846,2196h-8.174v4
			h8.174V2196L1658.846,2196z M1675.193,2196h-8.174v4h8.174V2196L1675.193,2196z M1691.542,2196h-8.174v4h8.174V2196L1691.542,2196
			z M1707.89,2196h-8.174v4h8.174V2196L1707.89,2196z M1724.238,2196h-8.175v4h8.175V2196L1724.238,2196z M1740.586,2196h-8.174v4
			h8.174V2196L1740.586,2196z M1756.934,2196h-8.174v4h8.174V2196L1756.934,2196z M1773.281,2196h-8.174v4h8.174V2196L1773.281,2196
			z M1789.63,2196h-8.175v4h8.175V2196L1789.63,2196z M1805.978,2196h-8.174v4h8.174V2196L1805.978,2196z M1822.325,2196h-8.174v4
			h8.174V2196L1822.325,2196z M1838.674,2196h-8.174v4h8.174V2196L1838.674,2196z M1855.021,2196h-8.174v4h8.174V2196L1855.021,2196
			z M1871.37,2196h-8.175v4h8.175V2196L1871.37,2196z M1887.718,2196h-8.174v4h8.174V2196L1887.718,2196z M1904.065,2196h-8.174v4
			h8.174V2196L1904.065,2196z M1920.414,2196h-8.174v4h8.174V2196L1920.414,2196z M1936.762,2196h-8.174v4h8.174V2196L1936.762,2196
			z M1953.109,2196h-8.174v4h8.174V2196L1953.109,2196z M1969.458,2196h-8.175v4h8.175V2196L1969.458,2196z M1985.806,2196h-8.174v4
			h8.174V2196L1985.806,2196z M2002.153,2196h-8.174v4h8.174V2196L2002.153,2196z M2018.502,2196h-8.174v4h8.174V2196L2018.502,2196
			z M2034.85,2196h-8.174v4h8.174V2196L2034.85,2196z M2051.197,2196h-8.174v4h8.174V2196L2051.197,2196z M2067.546,2196h-8.174v4
			h8.174V2196L2067.546,2196z M2083.894,2196h-8.174v4h8.174V2196L2083.894,2196z M2100,2196h-7.933v4H2100V2196L2100,2196z
			 M2100,2183.41h-4v8.174h4V2183.41L2100,2183.41z M2100,2167.063h-4v8.174h4V2167.063L2100,2167.063z M2100,2150.715h-4v8.174h4
			V2150.715L2100,2150.715z M2100,2134.366h-4v8.174h4V2134.366L2100,2134.366z M2100,2118.019h-4v8.174h4V2118.019L2100,2118.019z
			 M2100,2101.67h-4v8.175h4V2101.67L2100,2101.67z M2100,2085.322h-4v8.174h4V2085.322L2100,2085.322z M2100,2068.975h-4v8.174h4
			V2068.975L2100,2068.975z M2100,2052.626h-4v8.174h4V2052.626L2100,2052.626z M2100,2036.278h-4v8.174h4V2036.278L2100,2036.278z
			 M2100,2019.931h-4v8.174h4V2019.931L2100,2019.931z M2100,2003.582h-4v8.175h4V2003.582L2100,2003.582z M2100,1987.234h-4v8.174
			h4V1987.234L2100,1987.234z M2100,1970.887h-4v8.174h4V1970.887L2100,1970.887z M2100,1954.538h-4v8.174h4V1954.538L2100,1954.538
			z M2100,1938.19h-4v8.174h4V1938.19L2100,1938.19z M2100,1921.842h-4v8.175h4V1921.842L2100,1921.842z M2100,1905.494h-4v8.174h4
			V1905.494L2100,1905.494z M2100,1889.146h-4v8.174h4V1889.146L2100,1889.146z M2100,1872.799h-4v8.174h4V1872.799L2100,1872.799z
			 M2100,1856.45h-4v8.174h4V1856.45L2100,1856.45z M2100,1840.103h-4v8.174h4V1840.103L2100,1840.103z M2100,1823.755h-4v8.174h4
			V1823.755L2100,1823.755z M2100,1807.406h-4v8.174h4V1807.406L2100,1807.406z M2100,1791.059h-4v8.174h4V1791.059L2100,1791.059z
			 M2100,1774.71h-4v8.175h4V1774.71L2100,1774.71z M2100,1758.362h-4v8.174h4V1758.362L2100,1758.362z M2100,1742.015h-4v8.174h4
			V1742.015L2100,1742.015z M2100,1725.666h-4v8.174h4V1725.666L2100,1725.666z M2100,1709.318h-4v8.174h4V1709.318L2100,1709.318z
			 M2100,1692.971h-4v8.174h4V1692.971L2100,1692.971z M2100,1676.622h-4v8.175h4V1676.622L2100,1676.622z M2100,1660.274h-4v8.174
			h4V1660.274L2100,1660.274z M2100,1643.927h-4v8.174h4V1643.927L2100,1643.927z M2100,1627.578h-4v8.175h4V1627.578L2100,1627.578
			z M2100,1611.23h-4v8.174h4V1611.23L2100,1611.23z M2100,1594.883h-4v8.174h4V1594.883L2100,1594.883z M2100,1578.534h-4v8.174h4
			V1578.534L2100,1578.534z M2100,1562.187h-4v8.174h4V1562.187L2100,1562.187z M2100,1545.838h-4v8.175h4V1545.838L2100,1545.838z
			 M2100,1529.49h-4v8.174h4V1529.49L2100,1529.49z M2100,1513.143h-4v8.174h4V1513.143L2100,1513.143z M2100,1496.795h-4v8.174h4
			V1496.795L2100,1496.795z M2100,1480.446h-4v8.174h4V1480.446L2100,1480.446z M2100,1464.099h-4v8.174h4V1464.099L2100,1464.099z
			 M2100,1447.75h-4v8.175h4V1447.75L2100,1447.75z M2100,1431.402h-4v8.174h4V1431.402L2100,1431.402z M2100,1415.055h-4v8.174h4
			V1415.055L2100,1415.055z M2100,1398.706h-4v8.174h4V1398.706L2100,1398.706z M2100,1382.358h-4v8.174h4V1382.358L2100,1382.358z
			 M2100,1366.01h-4v8.175h4V1366.01L2100,1366.01z M2100,1349.662h-4v8.174h4V1349.662L2100,1349.662z M2100,1333.314h-4v8.174h4
			V1333.314L2100,1333.314z M2100,1316.967h-4v8.174h4V1316.967L2100,1316.967z M2100,1300.618h-4v8.175h4V1300.618L2100,1300.618z
			 M2100,1284.271h-4v8.174h4V1284.271L2100,1284.271z M2100,1267.923h-4v8.174h4V1267.923L2100,1267.923z M2100,1251.574h-4v8.174
			h4V1251.574L2100,1251.574z M2100,1235.227h-4v8.174h4V1235.227L2100,1235.227z M2100,1218.878h-4v8.175h4V1218.878L2100,1218.878
			z M2100,1202.53h-4v8.174h4V1202.53L2100,1202.53z M2100,1186.183h-4v8.174h4V1186.183L2100,1186.183z M2100,1169.834h-4v8.175h4
			V1169.834L2100,1169.834z M2100,1153.486h-4v8.174h4V1153.486L2100,1153.486z M2100,1137.139h-4v8.174h4V1137.139L2100,1137.139z
			 M2100,1120.79h-4v8.175h4V1120.79L2100,1120.79z M2100,1104.442h-4v8.174h4V1104.442L2100,1104.442z M2100,1088.094h-4v8.174h4
			V1088.094L2100,1088.094z M2100,1071.746h-4v8.174h4V1071.746L2100,1071.746z M2100,1055.398h-4v8.174h4V1055.398L2100,1055.398z
			 M2100,1039.05h-4v8.174h4V1039.05L2100,1039.05z M2100,1022.703h-4v8.174h4V1022.703L2100,1022.703z M2100,1006.354h-4v8.174h4
			V1006.354L2100,1006.354z M2100,990.006h-4v8.174h4V990.006L2100,990.006z M2100,973.658h-4v8.174h4V973.658L2100,973.658z
			 M2100,957.311h-4v8.174h4V957.311L2100,957.311z M2100,940.962h-4v8.174h4V940.962L2100,940.962z M2100,924.614h-4v8.174h4
			V924.614L2100,924.614z M2100,908.267h-4v8.174h4V908.267L2100,908.267z M2100,891.918h-4v8.174h4V891.918L2100,891.918z
			 M2100,875.57h-4v8.174h4V875.57L2100,875.57z M2100,859.223h-4v8.174h4V859.223L2100,859.223z M2100,842.875h-4v8.174h4V842.875
			L2100,842.875z M2100,826.526h-4v8.174h4V826.526L2100,826.526z M2100,810.178h-4v8.174h4V810.178L2100,810.178z M2100,793.83h-4
			v8.174h4V793.83L2100,793.83z M2100,777.482h-4v8.174h4V777.482L2100,777.482z M2100,761.134h-4v8.174h4V761.134L2100,761.134z
			 M2100,744.786h-4v8.174h4V744.786L2100,744.786z M2100,728.438h-4v8.174h4V728.438L2100,728.438z M2100,712.091h-4v8.174h4
			V712.091L2100,712.091z M2100,695.743h-4v8.174h4V695.743L2100,695.743z M2100,679.395h-4v8.174h4V679.395L2100,679.395z
			 M2100,663.046h-4v8.174h4V663.046L2100,663.046z M2100,646.698h-4v8.174h4V646.698L2100,646.698z M2100,630.351h-4v8.174h4
			V630.351L2100,630.351z M2100,614.002h-4v8.174h4V614.002L2100,614.002z M2100,597.654h-4v8.174h4V597.654L2100,597.654z
			 M2100,581.307h-4v8.174h4V581.307L2100,581.307z M2100,564.958h-4v8.174h4V564.958L2100,564.958z M2100,548.61h-4v8.174h4V548.61
			L2100,548.61z M2100,532.263h-4v8.174h4V532.263L2100,532.263z M2100,515.915h-4v8.174h4V515.915L2100,515.915z M2100,499.566h-4
			v8.174h4V499.566L2100,499.566z M2100,483.218h-4v8.174h4V483.218L2100,483.218z M2100,466.871h-4v8.174h4V466.871L2100,466.871z
			 M2100,450.522h-4v8.174h4V450.522L2100,450.522z M2100,434.174h-4v8.174h4V434.174L2100,434.174z M2100,417.826h-4V426h4V417.826
			L2100,417.826z M2100,401.479h-4v8.174h4V401.479L2100,401.479z M2100,385.131h-4v8.174h4V385.131L2100,385.131z M2100,368.782h-4
			v8.174h4V368.782L2100,368.782z M2100,352.435h-4v8.174h4V352.435L2100,352.435z M2100,336.086h-4v8.174h4V336.086L2100,336.086z
			 M2100,319.738h-4v8.174h4V319.738L2100,319.738z M2100,303.391h-4v8.174h4V303.391L2100,303.391z M2100,287.042h-4v8.174h4
			V287.042L2100,287.042z M2100,270.694h-4v8.174h4V270.694L2100,270.694z M2100,254.347h-4v8.174h4V254.347L2100,254.347z
			 M2100,237.998h-4v8.174h4V237.998L2100,237.998z M2100,221.65h-4v8.174h4V221.65L2100,221.65z M2100,205.303h-4v8.174h4V205.303
			L2100,205.303z M2100,188.955h-4v8.174h4V188.955L2100,188.955z M2100,172.606h-4v8.174h4V172.606L2100,172.606z M2100,156.258h-4
			v8.174h4V156.258L2100,156.258z M2100,139.911h-4v8.174h4V139.911L2100,139.911z M2100,123.563h-4v8.174h4V123.563L2100,123.563z
			 M2100,107.214h-4v8.174h4V107.214L2100,107.214z M2100,90.866h-4v8.174h4V90.866L2100,90.866z M2100,74.519h-4v8.174h4V74.519
			L2100,74.519z M2100,58.17h-4v8.174h4V58.17L2100,58.17z M2100,41.822h-4v8.174h4V41.822L2100,41.822z M2100,25.475h-4v8.174h4
			V25.475L2100,25.475z M2100,9.126h-4v8.174h4V9.126L2100,9.126z M2100,0h-8.174v4H2100V0L2100,0z"/>
	</g>
</g>
</svg>
