<?xml version="1.0" encoding="utf-8"?>
<!-- Generator: Adobe Illustrator 16.0.0, SVG Export Plug-In . SVG Version: 6.00 Build 0)  -->
<!DOCTYPE svg PUBLIC "-//W3C//DTD SVG 1.1//EN" "http://www.w3.org/Graphics/SVG/1.1/DTD/svg11.dtd">
<svg version="1.1" xmlns="http://www.w3.org/2000/svg" xmlns:xlink="http://www.w3.org/1999/xlink" x="0px" y="0px" viewBox="0 0 2100 2200" enable-background="new 0 0 2100 2200" xml:space="preserve">
<g id="Structure">
	<g id="Layer_2" display="none">
		<g display="inline">
			<polygon points="1400,400 1400,500 700,500 400,500 400,800 400,900 700,900 700,800 1400,800 1400,1200 1700,1200 1700,400 			
				"/>
			<polygon points="700,1800 700,1700 1400,1700 1700,1700 1700,1400 1700,1300 1400,1300 1400,1400 700,1400 700,1000 400,1000 
				400,1800 			"/>
		</g>
	</g>
	<rect x="400.27" y="500.274" fill="none" class="scuroStroke" stroke-width="4" stroke-miterlimit="10" width="300" height="300"/>
	<rect x="700.3" y="500.274" fill="none" class="scuroStroke" stroke-width="4" stroke-miterlimit="10" width="300" height="300"/>
	<rect x="1100.271" y="500.274" fill="none" class="scuroStroke" stroke-width="4" stroke-miterlimit="10" width="300" height="300"/>
	<rect x="1400.301" y="500.274" fill="none" class="scuroStroke" stroke-width="4" stroke-miterlimit="10" width="300" height="300"/>
	<rect x="1400.301" y="800.304" fill="none" class="scuroStroke" stroke-width="4" stroke-miterlimit="10" width="300" height="300"/>
	<rect x="1000.33" y="500.274" fill="none" class="scuroStroke" stroke-width="4" stroke-miterlimit="10" width="100" height="300"/>
	<rect x="1400.329" y="400.275" fill="none" class="scuroStroke" stroke-width="4" stroke-miterlimit="10" width="300" height="100"/>
	<rect x="400.27" y="800.315" fill="none" class="scuroStroke" stroke-width="4" stroke-miterlimit="10" width="300" height="100"/>
	
		<rect x="1400.329" y="1099.345" fill="none" class="scuroStroke" stroke-width="4" stroke-miterlimit="10" width="300" height="99.999"/>
	<rect x="1400.329" y="1400.406" fill="none" class="scuroStroke" stroke-width="4" stroke-miterlimit="10" width="300" height="300"/>
	<rect x="1100.3" y="1400.406" fill="none" class="scuroStroke" stroke-width="4" stroke-miterlimit="10" width="300" height="300"/>
	<rect x="700.33" y="1400.406" fill="none" class="scuroStroke" stroke-width="4" stroke-miterlimit="10" width="300" height="300"/>
	<rect x="400.299" y="1400.406" fill="none" class="scuroStroke" stroke-width="4" stroke-miterlimit="10" width="300" height="300"/>
	<rect x="400.299" y="1100.377" fill="none" class="scuroStroke" stroke-width="4" stroke-miterlimit="10" width="300" height="300"/>
	<rect x="1000.271" y="1400.406" fill="none" class="scuroStroke" stroke-width="4" stroke-miterlimit="10" width="100" height="300"/>
	
		<rect x="400.27" y="1700.406" fill="none" class="scuroStroke" stroke-width="4" stroke-miterlimit="10" width="300" height="99.999"/>
	
		<rect x="1400.329" y="1300.366" fill="none" class="scuroStroke" stroke-width="4" stroke-miterlimit="10" width="300" height="99.999"/>
	
		<rect x="400.27" y="1001.338" fill="none" class="scuroStroke" stroke-width="4" stroke-miterlimit="10" width="300" height="99.998"/>
	
		<line fill="none" class="scuroStroke" stroke-width="2.7248" stroke-miterlimit="10" x1="401.255" y1="602.271" x2="405.342" y2="602.271"/>
	
		<line fill="none" class="scuroStroke" stroke-width="2.7248" stroke-miterlimit="10" stroke-dasharray="8.108,8.108" x1="413.449" y1="602.271" x2="993.173" y2="602.271"/>
	
		<line fill="none" class="scuroStroke" stroke-width="2.7248" stroke-miterlimit="10" x1="997.227" y1="602.271" x2="1001.314" y2="602.271"/>
	
		<line fill="none" class="scuroStroke" stroke-width="2.7248" stroke-miterlimit="10" x1="401.255" y1="705.271" x2="405.342" y2="705.271"/>
	
		<line fill="none" class="scuroStroke" stroke-width="2.7248" stroke-miterlimit="10" stroke-dasharray="8.108,8.108" x1="413.449" y1="705.271" x2="993.173" y2="705.271"/>
	
		<line fill="none" class="scuroStroke" stroke-width="2.7248" stroke-miterlimit="10" x1="997.227" y1="705.271" x2="1001.314" y2="705.271"/>
	
		<line fill="none" class="scuroStroke" stroke-width="2.7248" stroke-miterlimit="10" x1="1100.324" y1="602.271" x2="1104.411" y2="602.271"/>
	
		<line fill="none" class="scuroStroke" stroke-width="2.7248" stroke-miterlimit="10" stroke-dasharray="8.108,8.108" x1="1112.521" y1="602.271" x2="1692.243" y2="602.271"/>
	
		<line fill="none" class="scuroStroke" stroke-width="2.7248" stroke-miterlimit="10" x1="1696.297" y1="602.271" x2="1700.385" y2="602.271"/>
	
		<line fill="none" class="scuroStroke" stroke-width="2.7248" stroke-miterlimit="10" x1="1100.324" y1="705.271" x2="1104.411" y2="705.271"/>
	
		<line fill="none" class="scuroStroke" stroke-width="2.7248" stroke-miterlimit="10" stroke-dasharray="8.108,8.108" x1="1112.521" y1="705.271" x2="1692.243" y2="705.271"/>
	
		<line fill="none" class="scuroStroke" stroke-width="2.7248" stroke-miterlimit="10" x1="1696.297" y1="705.271" x2="1700.385" y2="705.271"/>
	
		<line fill="none" class="scuroStroke" stroke-width="2.7248" stroke-miterlimit="10" x1="401.255" y1="1508.362" x2="405.342" y2="1508.362"/>
	
		<line fill="none" class="scuroStroke" stroke-width="2.7248" stroke-miterlimit="10" stroke-dasharray="8.108,8.108" x1="413.449" y1="1508.362" x2="993.173" y2="1508.362"/>
	
		<line fill="none" class="scuroStroke" stroke-width="2.7248" stroke-miterlimit="10" x1="997.227" y1="1508.362" x2="1001.314" y2="1508.362"/>
	
		<line fill="none" class="scuroStroke" stroke-width="2.7248" stroke-miterlimit="10" x1="401.255" y1="1611.362" x2="405.342" y2="1611.362"/>
	
		<line fill="none" class="scuroStroke" stroke-width="2.7248" stroke-miterlimit="10" stroke-dasharray="8.108,8.108" x1="413.449" y1="1611.362" x2="993.173" y2="1611.362"/>
	
		<line fill="none" class="scuroStroke" stroke-width="2.7248" stroke-miterlimit="10" x1="997.227" y1="1611.362" x2="1001.314" y2="1611.362"/>
	
		<line fill="none" class="scuroStroke" stroke-width="2.7248" stroke-miterlimit="10" x1="1100.324" y1="1508.362" x2="1104.411" y2="1508.362"/>
	
		<line fill="none" class="scuroStroke" stroke-width="2.7248" stroke-miterlimit="10" stroke-dasharray="8.108,8.108" x1="1112.521" y1="1508.362" x2="1692.243" y2="1508.362"/>
	
		<line fill="none" class="scuroStroke" stroke-width="2.7248" stroke-miterlimit="10" x1="1696.297" y1="1508.362" x2="1700.385" y2="1508.362"/>
	
		<line fill="none" class="scuroStroke" stroke-width="2.7248" stroke-miterlimit="10" x1="1100.324" y1="1611.362" x2="1104.411" y2="1611.362"/>
	
		<line fill="none" class="scuroStroke" stroke-width="2.7248" stroke-miterlimit="10" stroke-dasharray="8.108,8.108" x1="1112.521" y1="1611.362" x2="1692.243" y2="1611.362"/>
	
		<line fill="none" class="scuroStroke" stroke-width="2.7248" stroke-miterlimit="10" x1="1696.297" y1="1611.362" x2="1700.385" y2="1611.362"/>
	
		<line fill="none" class="scuroStroke" stroke-width="2.7248" stroke-miterlimit="10" x1="1402.324" y1="902.271" x2="1406.411" y2="902.271"/>
	
		<line fill="none" class="scuroStroke" stroke-width="2.7248" stroke-miterlimit="10" stroke-dasharray="8.2824,8.2824" x1="1414.695" y1="902.271" x2="1692.156" y2="902.271"/>
	
		<line fill="none" class="scuroStroke" stroke-width="2.7248" stroke-miterlimit="10" x1="1696.298" y1="902.271" x2="1700.385" y2="902.271"/>
	
		<line fill="none" class="scuroStroke" stroke-width="2.7248" stroke-miterlimit="10" x1="1402.324" y1="1005.271" x2="1406.411" y2="1005.271"/>
	
		<line fill="none" class="scuroStroke" stroke-width="2.7248" stroke-miterlimit="10" stroke-dasharray="8.2824,8.2824" x1="1414.695" y1="1005.271" x2="1692.156" y2="1005.271"/>
	
		<line fill="none" class="scuroStroke" stroke-width="2.7248" stroke-miterlimit="10" x1="1696.298" y1="1005.271" x2="1700.385" y2="1005.271"/>
	
		<line fill="none" class="scuroStroke" stroke-width="2.7248" stroke-miterlimit="10" x1="400.225" y1="1199.302" x2="404.312" y2="1199.302"/>
	
		<line fill="none" class="scuroStroke" stroke-width="2.7248" stroke-miterlimit="10" stroke-dasharray="8.2824,8.2824" x1="412.595" y1="1199.302" x2="690.056" y2="1199.302"/>
	
		<line fill="none" class="scuroStroke" stroke-width="2.7248" stroke-miterlimit="10" x1="694.198" y1="1199.302" x2="698.284" y2="1199.302"/>
	
		<line fill="none" class="scuroStroke" stroke-width="2.7248" stroke-miterlimit="10" x1="400.225" y1="1302.302" x2="404.312" y2="1302.302"/>
	
		<line fill="none" class="scuroStroke" stroke-width="2.7248" stroke-miterlimit="10" stroke-dasharray="8.2824,8.2824" x1="412.595" y1="1302.302" x2="690.056" y2="1302.302"/>
	
		<line fill="none" class="scuroStroke" stroke-width="2.7248" stroke-miterlimit="10" x1="694.198" y1="1302.302" x2="698.284" y2="1302.302"/>
</g>
<g id="Meter">
	<path fill="#CCCCCC" d="M1850.887,693.887v-5.286c-2.146,2.148-4.359,3.682-6.652,4.597c-2.304,0.92-5.249,1.373-8.849,1.373
		c-3.671,0-6.753-0.436-9.246-1.318c-2.482-0.879-4.612-2.198-6.373-3.961c-3.063-3.214-4.595-7.389-4.595-12.515
		c0-4.899,1.667-8.911,4.994-12.057c3.336-3.138,8.357-4.71,15.094-4.71h15.384v-4.129c0-3.677-0.979-6.413-2.929-8.214
		c-1.95-1.791-5.23-2.7-9.817-2.7c-3.208,0-5.738,0.417-7.568,1.26c-1.821,0.848-3.553,2.293-5.176,4.364l-7.688-7.232
		c2.757-3.209,5.712-5.413,8.894-6.601c3.174-1.188,7.171-1.782,11.994-1.782c15.988,0,23.994,6.669,23.994,19.976v38.927h-11.459
		L1850.887,693.887L1850.887,693.887z M1850.66,668.166h-13.67c-3.445,0-6.038,0.729-7.807,2.181
		c-1.769,1.459-2.646,3.518-2.646,6.201s0.859,4.724,2.583,6.146c1.724,1.418,4.424,2.126,8.096,2.126
		c2.222,0,4.207-0.177,5.965-0.521c1.759-0.346,3.408-1.277,4.94-2.812c1.687-1.682,2.521-4.55,2.521-8.616v-4.703h0.019
		L1850.66,668.166L1850.66,668.166z"/>
	<path fill="#CCCCCC" d="M1912.201,693.887l-12.175-19.867l-12.271,19.867h-14.124l19.979-29.742l-19.174-28.469h14.114
		l11.485,18.944l11.376-18.944h14.114l-19.056,28.469l19.86,29.742H1912.201z"/>
	<path fill="#CCCCCC" d="M1984.531,670.808c0,3.677-0.651,6.979-1.938,9.936c-1.307,2.94-3.092,5.448-5.385,7.516
		c-2.295,2.07-4.969,3.645-8.021,4.709c-3.056,1.073-6.337,1.604-9.854,1.604c-3.52,0-6.801-0.539-9.854-1.604
		c-3.055-1.064-5.702-2.639-7.969-4.709c-2.248-2.066-4.024-4.574-5.32-7.516c-1.297-2.946-1.938-6.259-1.938-9.936
		c0-2.447,0.315-4.668,0.969-6.661c0.652-1.986,1.496-3.771,2.529-5.341c1.024-1.56,2.222-2.94,3.554-4.129
		c1.353-1.188,2.737-2.198,4.196-3.045c-2.684-1.604-4.994-3.845-6.952-6.723c-1.948-2.863-2.928-6.485-2.928-10.841
		c0-3.445,0.605-6.545,1.839-9.302c1.226-2.756,2.91-5.122,5.052-7.116c2.139-1.988,4.647-3.521,7.522-4.596
		c2.873-1.07,5.991-1.604,9.362-1.604c3.281,0,6.384,0.533,9.302,1.604c2.909,1.074,5.446,2.599,7.623,4.596
		c2.187,1.994,3.881,4.36,5.114,7.116c1.222,2.756,1.829,5.855,1.829,9.302c0,4.364-0.971,7.978-2.918,10.841
		c-1.949,2.878-4.271,5.117-6.952,6.723c1.439,0.847,2.817,1.857,4.143,3.045c1.332,1.188,2.512,2.563,3.535,4.129
		c1.016,1.567,1.85,3.354,2.493,5.341C1984.204,666.14,1984.531,668.36,1984.531,670.808z M1972.82,670.576
		c0-1.912-0.346-3.692-1.024-5.334c-0.688-1.646-1.659-3.083-2.873-4.312c-1.232-1.225-2.646-2.198-4.262-2.924
		c-1.604-0.726-3.372-1.088-5.275-1.088c-1.912,0-3.697,0.362-5.34,1.088c-1.641,0.733-3.063,1.709-4.25,2.924
		c-1.188,1.229-2.121,2.665-2.811,4.312c-0.689,1.642-1.034,3.422-1.034,5.334c0,1.913,0.345,3.693,1.034,5.34
		c0.688,1.642,1.621,3.082,2.811,4.307c1.179,1.224,2.593,2.181,4.25,2.869c1.649,0.688,3.428,1.028,5.34,1.028
		c1.903,0,3.672-0.341,5.275-1.028c1.613-0.688,3.027-1.646,4.262-2.869c1.214-1.225,2.176-2.665,2.873-4.307
		C1972.493,674.271,1972.82,672.489,1972.82,670.576z M1971.551,634.412c0-3.6-1.133-6.581-3.392-8.957
		c-2.268-2.365-5.186-3.553-8.774-3.553s-6.508,1.188-8.729,3.553c-2.222,2.376-3.327,5.357-3.327,8.957
		c0,3.677,1.105,6.653,3.327,8.947c2.222,2.302,5.121,3.443,8.729,3.443c3.601,0,6.526-1.15,8.774-3.443
		C1970.427,641.065,1971.551,638.079,1971.551,634.412z"/>
	<path fill="#CCCCCC" d="M1850.887,1514.303v-5.276c-2.146,2.142-4.359,3.672-6.652,4.588c-2.304,0.925-5.249,1.379-8.849,1.379
		c-3.671,0-6.753-0.438-9.246-1.323c-2.482-0.879-4.612-2.193-6.373-3.963c-3.063-3.207-4.595-7.388-4.595-12.509
		c0-4.903,1.667-8.911,4.994-12.064c3.336-3.138,8.357-4.696,15.094-4.696h15.384v-4.133c0-3.683-0.979-6.42-2.929-8.213
		c-1.95-1.795-5.23-2.703-9.817-2.703c-3.208,0-5.738,0.419-7.568,1.262c-1.821,0.844-3.553,2.293-5.176,4.36l-7.688-7.233
		c2.757-3.211,5.712-5.403,8.894-6.602c3.174-1.188,7.171-1.775,11.994-1.775c15.988,0,23.994,6.662,23.994,19.979v38.916h-11.459
		L1850.887,1514.303L1850.887,1514.303z M1850.66,1488.576h-13.67c-3.445,0-6.038,0.742-7.807,2.186
		c-1.769,1.459-2.646,3.519-2.646,6.2c0,2.683,0.859,4.724,2.583,6.146c1.724,1.422,4.424,2.13,8.096,2.13
		c2.222,0,4.207-0.184,5.965-0.524c1.759-0.346,3.408-1.276,4.94-2.813c1.687-1.687,2.521-4.55,2.521-8.611v-4.713L1850.66,1488.576
		L1850.66,1488.576z"/>
	<path fill="#CCCCCC" d="M1912.201,1514.303l-12.175-19.87l-12.271,19.87h-14.124l19.979-29.743l-19.174-28.475h14.114
		l11.485,18.947l11.376-18.947h14.114l-19.056,28.475l19.86,29.743H1912.201z"/>
	<path fill="#CCCCCC" d="M1977.298,1502.02v12.283h-11.367v-12.283h-33.068v-10.904l28.81-58.551h12.638l-28.709,58.551h20.313
		v-19.057h11.377v19.057h8.729v10.904H1977.298z"/>
	
		<line fill="none" stroke="#CCCCCC" stroke-width="4.7842" stroke-miterlimit="10" x1="1759.358" y1="427.903" x2="1759.358" y2="1192.332"/>
	<polygon fill="#CCCCCC" points="1748.725,435.971 1759.358,431.447 1769.981,435.971 1759.358,410.77 	"/>
	<path fill="#CCCCCC" d="M1759.358,1209.666c-3.027-8.159-8.193-18.275-13.661-24.539l13.661,4.94l13.643-4.94
		C1767.545,1191.39,1762.386,1201.507,1759.358,1209.666z"/>
	
		<line fill="none" stroke="#CCCCCC" stroke-width="4.7842" stroke-miterlimit="10" x1="1759.358" y1="1324.854" x2="1759.358" y2="1701.819"/>
	<polygon fill="#CCCCCC" points="1748.725,1332.923 1759.358,1328.416 1769.981,1332.923 1759.358,1307.73 	"/>
	<path fill="#CCCCCC" d="M1759.358,1719.135c-3.027-8.143-8.193-18.257-13.661-24.529l13.661,4.938l13.643-4.938
		C1767.545,1700.879,1762.386,1710.993,1759.358,1719.135z"/>
	<path fill="#CCCCCC" d="M345.979,239.154v-5.28c-2.144,2.145-4.365,3.676-6.658,4.597c-2.303,0.92-5.244,1.374-8.843,1.374
		c-3.681,0-6.763-0.437-9.246-1.319c-2.489-0.879-4.614-2.199-6.377-3.961c-3.063-3.214-4.596-7.389-4.596-12.516
		c0-4.898,1.672-8.91,4.995-12.056c3.331-3.136,8.361-4.705,15.093-4.705h15.379v-4.134c0-3.676-0.976-6.413-2.923-8.212
		c-1.949-1.795-5.227-2.702-9.813-2.702c-3.218,0-5.742,0.417-7.574,1.26c-1.825,0.843-3.553,2.293-5.167,4.364l-7.695-7.233
		c2.756-3.209,5.715-5.411,8.893-6.599c3.173-1.188,7.175-1.781,11.993-1.781c15.995,0,23.995,6.663,23.995,19.976v38.92H345.98
		L345.979,239.154L345.979,239.154z M345.742,213.438h-13.661c-3.444,0-6.046,0.733-7.81,2.18c-1.763,1.456-2.643,3.518-2.643,6.201
		s0.86,4.728,2.578,6.146c1.728,1.419,4.42,2.125,8.096,2.125c2.217,0,4.206-0.176,5.97-0.521c1.754-0.345,3.404-1.283,4.937-2.815
		c1.682-1.677,2.524-4.546,2.524-8.61v-4.705L345.742,213.438L345.742,213.438z"/>
	<path fill="#CCCCCC" d="M470.55,122.243v-5.28c-2.144,2.139-4.359,3.67-6.652,4.591c-2.303,0.92-5.244,1.373-8.849,1.373
		c-3.675,0-6.757-0.436-9.246-1.313c-2.487-0.884-4.614-2.202-6.377-3.966c-3.063-3.214-4.596-7.389-4.596-12.515
		c0-4.9,1.672-8.91,4.995-12.058c3.332-3.136,8.361-4.703,15.093-4.703h15.383v-4.135c0-3.675-0.974-6.412-2.923-8.213
		c-1.949-1.794-5.227-2.701-9.813-2.701c-3.223,0-5.747,0.418-7.573,1.26c-1.831,0.848-3.56,2.293-5.172,4.364l-7.695-7.229
		c2.76-3.214,5.72-5.411,8.893-6.604c3.178-1.188,7.176-1.78,11.993-1.78c15.995,0,23.995,6.664,23.995,19.979v38.92h-11.454
		L470.55,122.243L470.55,122.243z M470.328,96.529h-13.665c-3.444,0-6.042,0.734-7.806,2.181c-1.764,1.456-2.646,3.517-2.646,6.201
		c0,2.683,0.865,4.728,2.583,6.145c1.727,1.419,4.415,2.126,8.095,2.126c2.217,0,4.202-0.177,5.964-0.521
		c1.755-0.341,3.409-1.283,4.941-2.814c1.682-1.677,2.523-4.546,2.523-8.612V96.53L470.328,96.529L470.328,96.529z"/>
	<path fill="#CCCCCC" d="M531.861,122.243l-12.17-19.866l-12.277,19.866h-14.128L513.26,92.5l-19.167-28.468h14.119l11.479,18.944
		l11.372-18.944h14.119L526.129,92.5l19.861,29.743H531.861z"/>
	<path fill="#CCCCCC" d="M603.384,99.285c0,3.897-0.667,7.352-2.003,10.334c-1.347,2.978-3.142,5.467-5.403,7.461
		c-2.266,1.993-4.895,3.479-7.918,4.473c-3.025,0.993-6.259,1.496-9.698,1.496c-3.285,0,2.94,0.879,0,0
		c-2.951-0.879-14.931-3.577-17.232-5.448c-2.289-1.876-4.146-4.261-5.565-7.175c-1.424-2.911-2.162-6.359-2.238-10.334h11.716
		c0.071,2.248,0.517,4.133,1.318,5.684c0.797,1.55,1.8,2.837,2.985,3.88c1.18,1.047,2.562,1.799,4.129,2.262
		c1.568,0.467,3.195,0.698,4.887,0.698c3.82,0,6.998-1.169,9.521-3.518c2.523-2.343,3.785-5.71,3.785-10.084
		c0-4.146-1.128-7.433-3.387-9.854c-2.258-2.426-5.68-3.641-10.274-3.641h-1.948v-10.22h1.948c4.288,0,7.425-1.133,9.41-3.408
		c1.988-2.267,2.991-5.28,2.991-9.056c0-4.152-1.17-7.307-3.499-9.463c-2.33-2.148-5.19-3.229-8.549-3.229
		c-3.604,0-6.473,1.047-8.615,3.128c-2.146,2.089-3.368,4.985-3.677,8.697h-11.713c0.154-3.445,0.881-6.545,2.183-9.291
		c1.301-2.747,3.021-5.086,5.171-7.007c2.144-1.913,4.627-3.391,7.46-4.419c2.833-1.033,5.896-1.55,9.183-1.55
		c3.439,0,6.617,0.558,9.522,1.668c2.904,1.113,5.412,2.683,7.527,4.708c2.107,2.03,3.749,4.445,4.937,7.229
		c1.179,2.796,1.771,5.875,1.771,9.246c0,4.361-0.896,7.981-2.702,10.851c-1.8,2.869-4.307,5.067-7.515,6.6
		c3.518,1.533,6.31,3.871,8.381,6.999C602.354,90.135,603.384,94.227,603.384,99.285z"/>
	<rect x="389.659" y="158.327" fill="#CCCCCC" width="300" height="100"/>
	<path fill="#CCCCCC" d="M1063.972,2069.423v-5.286c-2.145,2.148-4.36,3.683-6.653,4.605c-2.304,0.916-5.244,1.367-8.848,1.367
		c-3.676,0-6.758-0.435-9.246-1.313c-2.488-0.889-4.613-2.202-6.377-3.972c-3.063-3.208-4.591-7.387-4.591-12.509
		c0-4.903,1.668-8.912,4.989-12.058c3.336-3.138,8.367-4.715,15.094-4.715h15.384v-4.125c0-3.672-0.976-6.418-2.924-8.221
		c-1.948-1.788-5.228-2.703-9.813-2.703c-3.223,0-5.746,0.427-7.573,1.271c-1.826,0.842-3.554,2.292-5.171,4.356l-7.696-7.224
		c2.761-3.218,5.72-5.422,8.894-6.6c3.177-1.195,7.179-1.786,11.992-1.786c16,0,23.995,6.663,23.995,19.971v38.925h-11.452v0.012
		h-0.004V2069.423z M1063.74,2043.703h-13.666c-3.439,0-6.042,0.727-7.806,2.177c-1.763,1.461-2.646,3.519-2.646,6.202
		s0.866,4.73,2.583,6.146c1.728,1.422,4.419,2.129,8.096,2.129c2.217,0,4.202-0.183,5.965-0.518
		c1.755-0.346,3.407-1.288,4.939-2.819c1.683-1.676,2.524-4.541,2.524-8.61v-4.707H1063.74L1063.74,2043.703z"/>
	<path fill="#CCCCCC" d="M1125.282,2069.423l-12.166-19.86l-12.282,19.86h-14.114l19.971-29.741l-19.174-28.465h14.124
		l11.478,18.943l11.376-18.943h14.114l-19.056,28.465l19.871,29.741H1125.282z"/>
	<path fill="#CCCCCC" d="M1170.988,2069.423v-69.002l-15.965,14.004v-12.979l15.965-13.771h11.692v81.738h-11.692V2069.423z"/>
	<path fill="#CCCCCC" d="M1258.012,2046.461c0,3.896-0.672,7.354-2.014,10.334c-1.342,2.973-3.137,5.457-5.401,7.461
		c-2.267,1.992-4.896,3.48-7.923,4.469c-3.026,0.998-6.256,1.496-9.7,1.496c-3.29,0-6.418-0.436-9.354-1.313
		c-2.954-0.888-5.574-2.257-7.877-4.134c-2.295-1.876-4.143-4.262-5.574-7.182c-1.415-2.899-2.158-6.354-2.229-10.324h11.711
		c0.073,2.249,0.526,4.126,1.323,5.686c0.799,1.541,1.796,2.837,2.991,3.879c1.181,1.043,2.558,1.796,4.126,2.269
		c1.566,0.452,3.188,0.688,4.885,0.688c3.825,0,6.998-1.169,9.519-3.517c2.53-2.338,3.791-5.71,3.791-10.079
		c0-4.151-1.134-7.436-3.392-9.864c-2.248-2.411-5.675-3.634-10.279-3.634h-1.939v-10.216h1.939c4.298,0,7.434-1.135,9.418-3.408
		c1.984-2.267,2.992-5.286,2.992-9.063c0-4.146-1.171-7.31-3.51-9.457c-2.319-2.146-5.187-3.229-8.539-3.229
		c-3.606,0-6.473,1.042-8.611,3.129c-2.146,2.084-3.371,4.985-3.681,8.692h-11.712c0.154-3.438,0.88-6.537,2.176-9.291
		c1.307-2.748,3.027-5.086,5.167-7.009c2.147-1.911,4.642-3.382,7.471-4.414c2.827-1.032,5.893-1.55,9.174-1.55
		c3.443,0,6.616,0.554,9.526,1.668c2.909,1.112,5.411,2.684,7.532,4.703c2.104,2.03,3.753,4.45,4.931,7.233
		c1.18,2.792,1.777,5.873,1.777,9.246c0,4.359-0.906,7.977-2.7,10.852c-1.795,2.863-4.307,5.066-7.523,6.601
		c3.518,1.529,6.316,3.87,8.385,6.998C1256.959,2037.313,1258.012,2041.411,1258.012,2046.461z"/>
	
		<line fill="none" stroke="#CCCCCC" stroke-width="4.7842" stroke-miterlimit="10" x1="1692.176" y1="1948.967" x2="427.83" y2="1948.967"/>
	<polygon fill="#CCCCCC" points="1684.107,1938.334 1688.631,1948.967 1684.107,1959.592 1709.309,1948.967 	"/>
	<path fill="#CCCCCC" d="M410.508,1948.967c8.152-3.026,18.271-8.186,24.533-13.659l-4.937,13.659l4.937,13.644
		C428.778,1957.145,418.661,1951.985,410.508,1948.967z"/>
</g>
</svg>
